G04 PROTEUS GERBER X2 FILE*
%TF.GenerationSoftware,Labcenter,Proteus,8.9-SP0-Build27865*%
%TF.CreationDate,2020-11-24T08:56:55+00:00*%
%TF.FileFunction,Copper,L2,Bot*%
%TF.FilePolarity,Positive*%
%TF.Part,Single*%
%TF.SameCoordinates,{ee39a552-392a-4f40-a773-eadb6806b216}*%
%FSLAX45Y45*%
%MOMM*%
G01*
%TA.AperFunction,Conductor*%
%ADD10C,0.381000*%
%ADD11C,0.762000*%
%ADD13C,0.635000*%
%ADD22C,2.032000*%
%ADD23C,1.016000*%
%ADD24C,1.778000*%
%ADD12C,0.508000*%
%ADD25C,2.286000*%
%ADD26C,0.304800*%
%TA.AperFunction,ViaPad*%
%ADD14C,0.762000*%
%TA.AperFunction,WasherPad*%
%ADD16R,1.524000X1.524000*%
%ADD17C,1.524000*%
%AMPPAD008*
4,1,36,
-0.965200,0.762000,
0.965200,0.762000,
1.027520,0.755940,
1.085160,0.738490,
1.136980,0.710770,
1.181890,0.673890,
1.218760,0.628980,
1.246480,0.577160,
1.263930,0.519520,
1.270000,0.457200,
1.270000,-0.457200,
1.263930,-0.519520,
1.246480,-0.577160,
1.218760,-0.628980,
1.181890,-0.673890,
1.136980,-0.710770,
1.085160,-0.738490,
1.027520,-0.755940,
0.965200,-0.762000,
-0.965200,-0.762000,
-1.027520,-0.755940,
-1.085160,-0.738490,
-1.136980,-0.710770,
-1.181890,-0.673890,
-1.218760,-0.628980,
-1.246480,-0.577160,
-1.263930,-0.519520,
-1.270000,-0.457200,
-1.270000,0.457200,
-1.263930,0.519520,
-1.246480,0.577160,
-1.218760,0.628980,
-1.181890,0.673890,
-1.136980,0.710770,
-1.085160,0.738490,
-1.027520,0.755940,
-0.965200,0.762000,
0*%
%TA.AperFunction,ComponentPad*%
%ADD18PPAD008*%
%AMDIL009*
4,1,8,
-0.762000,0.965200,-0.457200,1.270000,0.457200,1.270000,0.762000,0.965200,0.762000,-0.965200,
0.457200,-1.270000,-0.457200,-1.270000,-0.762000,-0.965200,-0.762000,0.965200,
0*%
%TA.AperFunction,ComponentPad*%
%ADD19DIL009*%
%TA.AperFunction,ComponentPad*%
%ADD70R,2.032000X2.032000*%
%TA.AperFunction,ComponentPad*%
%ADD71C,3.048000*%
%TA.AperFunction,Profile*%
%ADD20C,0.203200*%
%TD.AperFunction*%
G36*
X-756210Y-575602D02*
X-892161Y-439651D01*
X-1152351Y-439651D01*
X-1152351Y-366422D01*
X-1101551Y-315622D01*
X-1101551Y-68378D01*
X-1276378Y+106449D01*
X-1523622Y+106449D01*
X-1583222Y+46849D01*
X-2340951Y+46849D01*
X-2340951Y+72249D01*
X-2419892Y+72249D01*
X-2419892Y+1171335D01*
X-2542347Y+1293790D01*
X-756210Y+1293790D01*
X-756210Y-575602D01*
G37*
G36*
X-756210Y-4527751D02*
X-1173049Y-4527751D01*
X-1173049Y-5988249D01*
X-756210Y-5988249D01*
X-756210Y-6193790D01*
X-1726951Y-6193790D01*
X-1726951Y-5200849D01*
X-1708324Y-5200849D01*
X-1303151Y-4795676D01*
X-1303151Y-3759649D01*
X-1252351Y-3759649D01*
X-1252351Y-2756349D01*
X-933773Y-2756349D01*
X-756210Y-2578786D01*
X-756210Y-4527751D01*
G37*
G36*
X-8671722Y+1279722D02*
X-8723799Y+1227645D01*
X-8723799Y+1023049D01*
X-9022249Y+1023049D01*
X-9022249Y+476951D01*
X-8977799Y+476951D01*
X-8977799Y-4961146D01*
X-8698965Y-5239980D01*
X-5557441Y-5239980D01*
X-5397667Y-5080206D01*
X-5397667Y-4996149D01*
X-5035723Y-4996149D01*
X-4983823Y-4944249D01*
X-4884149Y-4944249D01*
X-4884149Y-5376277D01*
X-4564277Y-5696149D01*
X-2273049Y-5696149D01*
X-2273049Y-6193790D01*
X-9143790Y-6193790D01*
X-9143790Y+1293790D01*
X-8657654Y+1293790D01*
X-8671722Y+1279722D01*
G37*
G36*
X-8215799Y+1026145D02*
X-8215799Y+1023049D01*
X-8368201Y+1023049D01*
X-8368201Y+1072201D01*
X-8169743Y+1072201D01*
X-8215799Y+1026145D01*
G37*
G36*
X-7307751Y+693693D02*
X-7307751Y+838201D01*
X-7163243Y+838201D01*
X-7307751Y+693693D01*
G37*
G36*
X-6980213Y+372923D02*
X-6928750Y+321460D01*
X-7022201Y+228008D01*
X-7022201Y+414911D01*
X-6980213Y+372923D01*
G37*
G36*
X-5377751Y-863615D02*
X-5377751Y-829573D01*
X-5343709Y-829573D01*
X-5377751Y-863615D01*
G37*
G36*
X-2775490Y+1024045D02*
X-2775490Y+72249D01*
X-2887049Y+72249D01*
X-2887049Y-988641D01*
X-2909007Y-988641D01*
X-2952909Y-944739D01*
X-3105463Y-944739D01*
X-3213335Y-1052611D01*
X-3213335Y-1205165D01*
X-3064226Y-1354274D01*
X-3111734Y-1401783D01*
X-3219606Y-1509655D01*
X-3219606Y-1662209D01*
X-3111734Y-1770081D01*
X-2959180Y-1770081D01*
X-2887049Y-1697950D01*
X-2887049Y-1772201D01*
X-3167373Y-1772201D01*
X-3173723Y-1765851D01*
X-3326277Y-1765851D01*
X-3434149Y-1873723D01*
X-3434149Y-2026277D01*
X-3326277Y-2134149D01*
X-3173723Y-2134149D01*
X-3167373Y-2127799D01*
X-2887049Y-2127799D01*
X-2887049Y-4944249D01*
X-2340951Y-4944249D01*
X-2340951Y-4918849D01*
X-2273049Y-4918849D01*
X-2273049Y-5073851D01*
X-3963425Y-5073851D01*
X-3665851Y-4776277D01*
X-3665851Y-3565246D01*
X-3656203Y-3555598D01*
X-3656203Y-3403044D01*
X-3764075Y-3295172D01*
X-3916629Y-3295172D01*
X-3972201Y-3350744D01*
X-3972201Y+873645D01*
X-4170757Y+1072201D01*
X-2823646Y+1072201D01*
X-2775490Y+1024045D01*
G37*
G36*
X-1647649Y-366422D02*
X-1647649Y-525578D01*
X-1698449Y-576378D01*
X-1698449Y-823622D01*
X-1568071Y-954000D01*
X-1698449Y-1084378D01*
X-1698449Y-1223151D01*
X-2340951Y-1223151D01*
X-2340951Y-346849D01*
X-1667222Y-346849D01*
X-1647649Y-366422D01*
G37*
G36*
X-1098424Y-969764D02*
X-1098424Y-2184624D01*
X-1149451Y-2235651D01*
X-1607840Y-2235651D01*
X-1620540Y-2248351D01*
X-1747649Y-2248351D01*
X-1747649Y-2375460D01*
X-1760349Y-2388160D01*
X-1760349Y-2603840D01*
X-1747649Y-2616540D01*
X-1747649Y-3264351D01*
X-1777998Y-3264351D01*
X-1778955Y-3263394D01*
X-1778955Y-1954137D01*
X-1761082Y-1936264D01*
X-1601807Y-1936264D01*
X-1523622Y-2014449D01*
X-1276378Y-2014449D01*
X-1101551Y-1839622D01*
X-1101551Y-1592378D01*
X-1152351Y-1541578D01*
X-1152351Y-1382422D01*
X-1101551Y-1331622D01*
X-1101551Y-1084378D01*
X-1225580Y-960349D01*
X-1107839Y-960349D01*
X-1098424Y-969764D01*
G37*
G36*
X-7276277Y-1884149D02*
X-7063330Y-1884149D01*
X-7063330Y-2112434D01*
X-7063409Y-2112513D01*
X-7063409Y-2258201D01*
X-7315197Y-2258201D01*
X-7330531Y-2242867D01*
X-7330531Y-1829895D01*
X-7276277Y-1884149D01*
G37*
G36*
X-7574716Y-2501570D02*
X-7579828Y-2501570D01*
X-7606201Y-2475197D01*
X-7606201Y-2470085D01*
X-7574716Y-2501570D01*
G37*
G36*
X-7961799Y-2548842D02*
X-7961799Y-2622487D01*
X-7904585Y-2679701D01*
X-8114201Y-2679701D01*
X-8114201Y+476951D01*
X-7961799Y+476951D01*
X-7961799Y-2548842D01*
G37*
G36*
X-4327799Y+726355D02*
X-4327799Y-2720078D01*
X-4395874Y-2720078D01*
X-4503746Y-2827950D01*
X-4503746Y-2980504D01*
X-4491046Y-2993204D01*
X-4491046Y-3295172D01*
X-4534746Y-3295172D01*
X-4515851Y-3276277D01*
X-4515851Y-3123723D01*
X-4625723Y-3013851D01*
X-4626951Y-3013851D01*
X-4626951Y-1593969D01*
X-4400590Y-1367608D01*
X-4400590Y+83229D01*
X-4543084Y+225723D01*
X-5112109Y+225723D01*
X-5128551Y+209281D01*
X-5128551Y+271015D01*
X-5228985Y+371449D01*
X-5377751Y+371449D01*
X-5377751Y+504059D01*
X-5422201Y+548509D01*
X-5422201Y+762979D01*
X-5497423Y+838201D01*
X-4439645Y+838201D01*
X-4327799Y+726355D01*
G37*
G36*
X-4491046Y-3758363D02*
X-4626951Y-3758363D01*
X-4626951Y-3663470D01*
X-4491046Y-3663470D01*
X-4491046Y-3758363D01*
G37*
G36*
X-2201718Y-1676444D02*
X-2274253Y-1748979D01*
X-2274253Y-3468552D01*
X-1983156Y-3759649D01*
X-1696849Y-3759649D01*
X-1696849Y-4632602D01*
X-1726951Y-4662704D01*
X-1726951Y-4273751D01*
X-2273049Y-4273751D01*
X-2273049Y-4525151D01*
X-2340951Y-4525151D01*
X-2340951Y-1616849D01*
X-2142123Y-1616849D01*
X-2201718Y-1676444D01*
G37*
G36*
X-4034149Y-4623723D02*
X-4176277Y-4765851D01*
X-4626951Y-4765851D01*
X-4626951Y-4645799D01*
X-4244355Y-4645799D01*
X-4034149Y-4435593D01*
X-4034149Y-4623723D01*
G37*
G36*
X-8469799Y-2794000D02*
X-8469799Y-2867645D01*
X-8302145Y-3035299D01*
X-7084149Y-3035299D01*
X-7084149Y-3126277D01*
X-6976277Y-3234149D01*
X-6823723Y-3234149D01*
X-6817373Y-3227799D01*
X-6661657Y-3227799D01*
X-6687803Y-3253945D01*
X-6687803Y-3406499D01*
X-6677364Y-3416938D01*
X-6734149Y-3473723D01*
X-6734149Y-3626277D01*
X-6626277Y-3734149D01*
X-6473723Y-3734149D01*
X-6467373Y-3727799D01*
X-6076249Y-3727799D01*
X-6076249Y-3888059D01*
X-6041308Y-3923000D01*
X-6076249Y-3957941D01*
X-6076249Y-4142059D01*
X-6041308Y-4177000D01*
X-6076249Y-4211941D01*
X-6076249Y-4396059D01*
X-6041308Y-4431000D01*
X-6076249Y-4465941D01*
X-6076249Y-4650059D01*
X-6041308Y-4685000D01*
X-6076249Y-4719941D01*
X-6076249Y-4884382D01*
X-8551675Y-4884382D01*
X-8622201Y-4813856D01*
X-8622201Y+476951D01*
X-8469799Y+476951D01*
X-8469799Y-2794000D01*
G37*
G36*
X-4484149Y-5173723D02*
X-4484149Y-5255425D01*
X-4515851Y-5223723D01*
X-4515851Y-5134149D01*
X-4444575Y-5134149D01*
X-4484149Y-5173723D01*
G37*
D10*
X-5854000Y-604000D02*
X-5853999Y-604000D01*
D11*
X-5250000Y-4812000D02*
X-5112000Y-4812000D01*
X-5022000Y-4722000D01*
X-4900000Y-4722000D01*
D13*
X-5600000Y-4812000D02*
X-5584736Y-4867510D01*
X-5575466Y-4876780D01*
X-5575466Y-5006561D01*
X-5631086Y-5062181D01*
X-8625320Y-5062181D01*
X-8800000Y-4887501D01*
X-8800000Y+750000D01*
D22*
X-1400000Y-1419281D02*
X-1400000Y-1208000D01*
X-1400000Y-1716000D02*
X-1400000Y-1419281D01*
D23*
X-2614000Y-1420000D02*
X-1400719Y-1420000D01*
X-1400000Y-1419281D01*
D11*
X-5600000Y-3288000D02*
X-5272116Y-3288000D01*
X-5600000Y-4812000D02*
X-5250000Y-4812000D01*
X-5250000Y-4300000D02*
X-5254000Y-4304000D01*
X-5600000Y-4304000D01*
X-5250000Y-4812000D02*
X-5250000Y-4300000D01*
D13*
X-8292000Y+750000D02*
X-8292000Y-2794000D01*
X-8228500Y-2857500D01*
X-5334000Y-2857500D01*
X-5247500Y-2944000D01*
X-4900000Y-2944000D01*
D10*
X-5853999Y-1366000D02*
X-5854000Y-1366000D01*
X-5854000Y-96000D02*
X-5854000Y-96001D01*
D13*
X-4900000Y-2690000D02*
X-4910631Y-2679369D01*
X-7653473Y-2679369D01*
X-7784000Y-2548842D01*
X-7784000Y+750000D01*
X-4900000Y-2436000D02*
X-7388842Y-2436000D01*
X-7508330Y-2316512D01*
X-7508330Y+728330D01*
X-7530000Y+750000D01*
X-2597691Y-150000D02*
X-2597691Y+1097690D01*
X-2750001Y+1250000D01*
X-8450000Y+1250000D01*
X-8546000Y+1154000D01*
X-8546000Y+750000D01*
D23*
X-1400000Y-192000D02*
X-1442000Y-150000D01*
X-2597691Y-150000D01*
D24*
X-2614000Y-150000D02*
X-2597691Y-150000D01*
D10*
X-2614000Y-150000D02*
X-2600000Y-200000D01*
X-2597691Y-197691D01*
X-2597691Y-150000D01*
D22*
X-1400000Y-192000D02*
X-1400000Y-700000D01*
D11*
X-5854000Y+412000D02*
X-6758864Y+412000D01*
X-6850000Y+503136D01*
X-6850000Y+550000D01*
X-3029186Y-1128888D02*
X-2985284Y-1172790D01*
X-2741000Y-1172790D01*
X-2614000Y-1166000D01*
X-5300000Y-3800000D02*
X-5250000Y-3850000D01*
X-5250000Y-4300000D01*
X-5600000Y-3796000D02*
X-5588305Y-3796000D01*
X-5346000Y-3796000D01*
X-5188000Y-3288000D02*
X-5150000Y-3250000D01*
X-4900000Y-3198000D02*
X-4902000Y-3200000D01*
X-5100000Y-3200000D01*
X-5188000Y-3288000D02*
X-5272116Y-3288000D01*
X-5346000Y-3796000D02*
X-5327390Y-3796000D01*
D10*
X-5304000Y-3796000D01*
D11*
X-5315695Y-3784305D02*
X-5304000Y-3796000D01*
X-5300000Y-3800000D01*
X-5327390Y-3796000D02*
X-5315695Y-3784305D01*
X-5304000Y-3796000D02*
X-5150000Y-3796000D01*
X-5150000Y-3250000D01*
D13*
X-6503654Y-3330222D02*
X-5896222Y-3330222D01*
X-5854000Y-3288000D01*
X-5854000Y-604000D02*
X-6191999Y-604000D01*
X-6350000Y-762001D01*
X-6350000Y-2050000D01*
X-6200000Y-2200000D01*
X-5027000Y-2200000D01*
X-4900000Y-2182000D01*
D12*
X-5854000Y-858000D02*
X-6025802Y-858000D01*
X-6200000Y-1032198D01*
X-6200000Y-1950000D01*
X-6074099Y-2075901D01*
X-5205431Y-2075901D01*
X-5211703Y-1354666D02*
X-5211703Y-1254320D01*
X-5117629Y-1160246D01*
X-4905754Y-1160246D01*
X-4900000Y-1166000D01*
D11*
X-5854000Y-1366000D02*
X-5854000Y-1750000D01*
X-5800199Y-1800000D01*
X-5300000Y-1800000D01*
X-5172000Y-1928000D01*
X-4900000Y-1928000D01*
D10*
X-5600000Y-858000D02*
X-5692000Y-858000D01*
X-5732246Y-817754D01*
X-5732246Y-438229D01*
X-5676200Y-382183D01*
X-5600000Y-350000D01*
X-5600000Y-1366000D02*
X-5600000Y-1517486D01*
X-5550369Y-1567117D01*
X-5111356Y-1567117D01*
X-5086270Y-1592203D01*
X-5086270Y-1656989D01*
X-5090472Y-1661191D01*
X-5150000Y-3250000D02*
X-5100000Y-3200000D01*
X-5098000Y-3198000D01*
X-4900000Y-3198000D01*
D11*
X-4702000Y-3198000D01*
X-4700000Y-3200000D01*
X-3035457Y-1585932D02*
X-2891210Y-1441685D01*
X-2741000Y-1441685D01*
X-2614000Y-1420000D01*
D13*
X-4900000Y-4468000D02*
X-4318000Y-4468000D01*
X-4150000Y-4300000D01*
X-4150000Y+800000D01*
X-4366000Y+1016000D01*
X-7974500Y+1016000D01*
X-8038000Y+952500D01*
X-8038000Y+750000D01*
X-5600000Y+412000D02*
X-5600000Y+689334D01*
X-5638172Y+727506D01*
X-7022494Y+727506D01*
X-7200000Y+550000D01*
X-7200000Y-1700000D01*
X-6550000Y-3550000D02*
X-5862000Y-3550000D01*
X-5854000Y-3542000D01*
X-5600000Y-3542000D02*
X-5285506Y-3542000D01*
X-5280691Y-3537185D01*
X-7050000Y-1700000D02*
X-7050000Y-51235D01*
X-6840765Y+158000D01*
X-5854000Y+158000D01*
X-5854000Y-96000D02*
X-6793383Y-96000D01*
X-6885531Y-188148D01*
X-6885531Y-2182519D01*
X-6879260Y-2188790D01*
X-5854000Y-350000D02*
X-6620917Y-350000D01*
X-6722472Y-451555D01*
X-6722472Y-2207608D01*
X-6716200Y-2213880D01*
X-6900000Y-3050000D02*
X-5870000Y-3050000D01*
X-5854000Y-3034000D01*
D10*
X-5600000Y-3034000D02*
X-5416000Y-3034000D01*
X-5400000Y-3050000D01*
X-6509925Y-2231123D02*
X-6509925Y-625593D01*
X-6365678Y-481346D01*
X-6196345Y-481346D01*
X-5400000Y+39197D02*
X-5400000Y-43525D01*
X-5416141Y-59666D01*
X-5492341Y-96000D01*
X-5600000Y-96000D01*
D13*
X-5854000Y-1112000D02*
X-6012000Y-1112000D01*
X-6050000Y-1150000D01*
X-6050000Y-1802049D01*
X-5964296Y-1887753D01*
X-3250000Y-1950000D02*
X-2741000Y-1950000D01*
X-2614000Y-1928000D01*
D12*
X-5600000Y-350000D02*
X-5300000Y-350000D01*
X-5300000Y+200000D01*
X-5600000Y+200000D01*
X-5600000Y+158000D01*
D25*
X-1500000Y-2496000D02*
X-1041612Y-2496000D01*
X-838076Y-2292464D01*
X-838076Y-861924D01*
X-1000000Y-700000D01*
X-1400000Y-700000D01*
D22*
X-1500000Y-3512000D02*
X-1880577Y-3512000D01*
X-2026604Y-3365973D01*
X-2026604Y-1851558D01*
X-1863661Y-1688615D01*
X-1427385Y-1688615D01*
X-1400000Y-1716000D01*
D23*
X-2614000Y-4722000D02*
X-2028000Y-4722000D01*
X-2000000Y-4750000D01*
X-2000000Y-5004000D02*
X-1789861Y-5004000D01*
X-1500000Y-4714139D01*
X-1500000Y-3512000D01*
D11*
X-2000000Y-5258000D02*
X-4292000Y-5258000D01*
X-4300000Y-5250000D01*
X-4386691Y-4217359D02*
X-4896641Y-4217359D01*
X-4900000Y-4214000D01*
X-2000000Y-5512000D02*
X-4488000Y-5512000D01*
X-4700000Y-5300000D01*
X-4700000Y-5000000D01*
X-4650000Y-4950000D01*
X-4100000Y-4950000D01*
X-3850000Y-4700000D01*
X-3850000Y-3488969D01*
X-3840352Y-3479321D01*
X-4463370Y-3479321D02*
X-4820679Y-3479321D01*
X-4850000Y-3450000D01*
X-4900000Y-3452000D01*
D13*
X-4900000Y-1420000D02*
X-4704426Y-1420000D01*
X-4578389Y-1293963D01*
X-4578389Y+9584D01*
X-4616729Y+47924D01*
X-5038464Y+47924D01*
X-5172653Y-86265D01*
X-5172653Y-472653D01*
X-5351774Y-651774D01*
X-5523800Y-651774D01*
X-5600000Y-604000D01*
D12*
X-5600000Y-1112000D02*
X-5383672Y-1112000D01*
X-5210993Y-939321D01*
X-5105559Y-833887D01*
X-5105559Y-776378D01*
X-4319597Y-2904227D02*
X-4319597Y-3853133D01*
X-4396276Y-3929812D01*
X-4869812Y-3929812D01*
X-4900000Y-3960000D01*
D26*
X-5600000Y-858000D02*
X-5720572Y-978572D01*
X-5720572Y-1388233D01*
X-5718993Y-1389812D01*
X-5623812Y-1389812D01*
X-5600000Y-1366000D01*
D14*
X-6850000Y+550000D03*
X-3029186Y-1128888D03*
X-6879260Y-2188790D03*
X-6900000Y-3050000D03*
X-6716200Y-2213880D03*
X-6503654Y-3330222D03*
X-5205431Y-2075901D03*
X-5211703Y-1354666D03*
X-5090472Y-1661191D03*
X-5150000Y-3250000D03*
X-4700000Y-3200000D03*
X-3035457Y-1585932D03*
X-7200000Y-1700000D03*
X-6550000Y-3550000D03*
X-5280691Y-3537185D03*
X-7050000Y-1700000D03*
X-5400000Y-3050000D03*
X-6509925Y-2231123D03*
X-6196345Y-481346D03*
X-5400000Y+39197D03*
X-5964296Y-1887753D03*
X-3250000Y-1950000D03*
X-4300000Y-5250000D03*
X-4386691Y-4217359D03*
X-3840352Y-3479321D03*
X-4463370Y-3479321D03*
X-5105559Y-776378D03*
X-4319597Y-2904227D03*
D10*
X-756210Y-575602D02*
X-892161Y-439651D01*
X-1152351Y-439651D01*
X-1152351Y-366422D01*
X-1101551Y-315622D01*
X-1101551Y-68378D01*
X-1276378Y+106449D01*
X-1523622Y+106449D01*
X-1583222Y+46849D01*
X-2340951Y+46849D01*
X-2340951Y+72249D01*
X-2419892Y+72249D01*
X-2419892Y+1171335D01*
X-2542347Y+1293790D01*
X-756210Y+1293790D01*
X-756210Y-575602D01*
X-756210Y-4527751D02*
X-1173049Y-4527751D01*
X-1173049Y-5988249D01*
X-756210Y-5988249D01*
X-756210Y-6193790D01*
X-1726951Y-6193790D01*
X-1726951Y-5200849D01*
X-1708324Y-5200849D01*
X-1303151Y-4795676D01*
X-1303151Y-3759649D01*
X-1252351Y-3759649D01*
X-1252351Y-2756349D01*
X-933773Y-2756349D01*
X-756210Y-2578786D01*
X-756210Y-4527751D01*
X-8671722Y+1279722D02*
X-8723799Y+1227645D01*
X-8723799Y+1023049D01*
X-9022249Y+1023049D01*
X-9022249Y+476951D01*
X-8977799Y+476951D01*
X-8977799Y-4961146D01*
X-8698965Y-5239980D01*
X-5557441Y-5239980D01*
X-5397667Y-5080206D01*
X-5397667Y-4996149D01*
X-5035723Y-4996149D01*
X-4983823Y-4944249D01*
X-4884149Y-4944249D01*
X-4884149Y-5376277D01*
X-4564277Y-5696149D01*
X-2273049Y-5696149D01*
X-2273049Y-6193790D01*
X-9143790Y-6193790D01*
X-9143790Y+1293790D01*
X-8657654Y+1293790D01*
X-8671722Y+1279722D01*
X-8215799Y+1026145D02*
X-8215799Y+1023049D01*
X-8368201Y+1023049D01*
X-8368201Y+1072201D01*
X-8169743Y+1072201D01*
X-8215799Y+1026145D01*
X-7307751Y+693693D02*
X-7307751Y+838201D01*
X-7163243Y+838201D01*
X-7307751Y+693693D01*
X-6980213Y+372923D02*
X-6928750Y+321460D01*
X-7022201Y+228008D01*
X-7022201Y+414911D01*
X-6980213Y+372923D01*
X-5377751Y-863615D02*
X-5377751Y-829573D01*
X-5343709Y-829573D01*
X-5377751Y-863615D01*
X-2775490Y+1024045D02*
X-2775490Y+72249D01*
X-2887049Y+72249D01*
X-2887049Y-988641D01*
X-2909007Y-988641D01*
X-2952909Y-944739D01*
X-3105463Y-944739D01*
X-3213335Y-1052611D01*
X-3213335Y-1205165D01*
X-3064226Y-1354274D01*
X-3111734Y-1401783D01*
X-3219606Y-1509655D01*
X-3219606Y-1662209D01*
X-3111734Y-1770081D01*
X-2959180Y-1770081D01*
X-2887049Y-1697950D01*
X-2887049Y-1772201D01*
X-3167373Y-1772201D01*
X-3173723Y-1765851D01*
X-3326277Y-1765851D01*
X-3434149Y-1873723D01*
X-3434149Y-2026277D01*
X-3326277Y-2134149D01*
X-3173723Y-2134149D01*
X-3167373Y-2127799D01*
X-2887049Y-2127799D01*
X-2887049Y-4944249D01*
X-2340951Y-4944249D01*
X-2340951Y-4918849D01*
X-2273049Y-4918849D01*
X-2273049Y-5073851D01*
X-3963425Y-5073851D01*
X-3665851Y-4776277D01*
X-3665851Y-3565246D01*
X-3656203Y-3555598D01*
X-3656203Y-3403044D01*
X-3764075Y-3295172D01*
X-3916629Y-3295172D01*
X-3972201Y-3350744D01*
X-3972201Y+873645D01*
X-4170757Y+1072201D01*
X-2823646Y+1072201D01*
X-2775490Y+1024045D01*
X-1647649Y-366422D02*
X-1647649Y-525578D01*
X-1698449Y-576378D01*
X-1698449Y-823622D01*
X-1568071Y-954000D01*
X-1698449Y-1084378D01*
X-1698449Y-1223151D01*
X-2340951Y-1223151D01*
X-2340951Y-346849D01*
X-1667222Y-346849D01*
X-1647649Y-366422D01*
X-1098424Y-969764D02*
X-1098424Y-2184624D01*
X-1149451Y-2235651D01*
X-1607840Y-2235651D01*
X-1620540Y-2248351D01*
X-1747649Y-2248351D01*
X-1747649Y-2375460D01*
X-1760349Y-2388160D01*
X-1760349Y-2603840D01*
X-1747649Y-2616540D01*
X-1747649Y-3264351D01*
X-1777998Y-3264351D01*
X-1778955Y-3263394D01*
X-1778955Y-1954137D01*
X-1761082Y-1936264D01*
X-1601807Y-1936264D01*
X-1523622Y-2014449D01*
X-1276378Y-2014449D01*
X-1101551Y-1839622D01*
X-1101551Y-1592378D01*
X-1152351Y-1541578D01*
X-1152351Y-1382422D01*
X-1101551Y-1331622D01*
X-1101551Y-1084378D01*
X-1225580Y-960349D01*
X-1107839Y-960349D01*
X-1098424Y-969764D01*
X-7276277Y-1884149D02*
X-7063330Y-1884149D01*
X-7063330Y-2112434D01*
X-7063409Y-2112513D01*
X-7063409Y-2258201D01*
X-7315197Y-2258201D01*
X-7330531Y-2242867D01*
X-7330531Y-1829895D01*
X-7276277Y-1884149D01*
X-7574716Y-2501570D02*
X-7579828Y-2501570D01*
X-7606201Y-2475197D01*
X-7606201Y-2470085D01*
X-7574716Y-2501570D01*
X-7961799Y-2548842D02*
X-7961799Y-2622487D01*
X-7904585Y-2679701D01*
X-8114201Y-2679701D01*
X-8114201Y+476951D01*
X-7961799Y+476951D01*
X-7961799Y-2548842D01*
X-4327799Y+726355D02*
X-4327799Y-2720078D01*
X-4395874Y-2720078D01*
X-4503746Y-2827950D01*
X-4503746Y-2980504D01*
X-4491046Y-2993204D01*
X-4491046Y-3295172D01*
X-4534746Y-3295172D01*
X-4515851Y-3276277D01*
X-4515851Y-3123723D01*
X-4625723Y-3013851D01*
X-4626951Y-3013851D01*
X-4626951Y-1593969D01*
X-4400590Y-1367608D01*
X-4400590Y+83229D01*
X-4543084Y+225723D01*
X-5112109Y+225723D01*
X-5128551Y+209281D01*
X-5128551Y+271015D01*
X-5228985Y+371449D01*
X-5377751Y+371449D01*
X-5377751Y+504059D01*
X-5422201Y+548509D01*
X-5422201Y+762979D01*
X-5497423Y+838201D01*
X-4439645Y+838201D01*
X-4327799Y+726355D01*
X-4491046Y-3758363D02*
X-4626951Y-3758363D01*
X-4626951Y-3663470D01*
X-4491046Y-3663470D01*
X-4491046Y-3758363D01*
X-2201718Y-1676444D02*
X-2274253Y-1748979D01*
X-2274253Y-3468552D01*
X-1983156Y-3759649D01*
X-1696849Y-3759649D01*
X-1696849Y-4632602D01*
X-1726951Y-4662704D01*
X-1726951Y-4273751D01*
X-2273049Y-4273751D01*
X-2273049Y-4525151D01*
X-2340951Y-4525151D01*
X-2340951Y-1616849D01*
X-2142123Y-1616849D01*
X-2201718Y-1676444D01*
X-4034149Y-4623723D02*
X-4176277Y-4765851D01*
X-4626951Y-4765851D01*
X-4626951Y-4645799D01*
X-4244355Y-4645799D01*
X-4034149Y-4435593D01*
X-4034149Y-4623723D01*
X-8469799Y-2794000D02*
X-8469799Y-2867645D01*
X-8302145Y-3035299D01*
X-7084149Y-3035299D01*
X-7084149Y-3126277D01*
X-6976277Y-3234149D01*
X-6823723Y-3234149D01*
X-6817373Y-3227799D01*
X-6661657Y-3227799D01*
X-6687803Y-3253945D01*
X-6687803Y-3406499D01*
X-6677364Y-3416938D01*
X-6734149Y-3473723D01*
X-6734149Y-3626277D01*
X-6626277Y-3734149D01*
X-6473723Y-3734149D01*
X-6467373Y-3727799D01*
X-6076249Y-3727799D01*
X-6076249Y-3888059D01*
X-6041308Y-3923000D01*
X-6076249Y-3957941D01*
X-6076249Y-4142059D01*
X-6041308Y-4177000D01*
X-6076249Y-4211941D01*
X-6076249Y-4396059D01*
X-6041308Y-4431000D01*
X-6076249Y-4465941D01*
X-6076249Y-4650059D01*
X-6041308Y-4685000D01*
X-6076249Y-4719941D01*
X-6076249Y-4884382D01*
X-8551675Y-4884382D01*
X-8622201Y-4813856D01*
X-8622201Y+476951D01*
X-8469799Y+476951D01*
X-8469799Y-2794000D01*
X-4484149Y-5173723D02*
X-4484149Y-5255425D01*
X-4515851Y-5223723D01*
X-4515851Y-5134149D01*
X-4444575Y-5134149D01*
X-4484149Y-5173723D01*
D16*
X-5854000Y+412000D03*
D17*
X-5600000Y+412000D03*
X-5854000Y+158000D03*
X-5600000Y+158000D03*
X-5854000Y-96000D03*
X-5600000Y-96000D03*
X-5854000Y-350000D03*
X-5600000Y-350000D03*
X-5854000Y-604000D03*
X-5600000Y-604000D03*
X-5854000Y-858000D03*
X-5600000Y-858000D03*
X-5854000Y-1112000D03*
X-5600000Y-1112000D03*
X-5854000Y-1366000D03*
X-5600000Y-1366000D03*
D18*
X-4900000Y-150000D03*
X-4900000Y-404000D03*
X-4900000Y-658000D03*
X-4900000Y-912000D03*
X-4900000Y-1166000D03*
X-4900000Y-1420000D03*
X-4900000Y-1674000D03*
X-4900000Y-1928000D03*
X-4900000Y-2182000D03*
X-4900000Y-2436000D03*
X-4900000Y-2690000D03*
X-4900000Y-2944000D03*
X-4900000Y-3198000D03*
X-4900000Y-3452000D03*
X-4900000Y-3706000D03*
X-4900000Y-3960000D03*
X-4900000Y-4214000D03*
X-4900000Y-4468000D03*
X-4900000Y-4722000D03*
X-2614000Y-150000D03*
X-2614000Y-404000D03*
X-2614000Y-658000D03*
X-2614000Y-912000D03*
X-2614000Y-1166000D03*
X-2614000Y-1420000D03*
X-2614000Y-1674000D03*
X-2614000Y-1928000D03*
X-2614000Y-2182000D03*
X-2614000Y-2436000D03*
X-2614000Y-2690000D03*
X-2614000Y-2944000D03*
X-2614000Y-3198000D03*
X-2614000Y-3452000D03*
X-2614000Y-3706000D03*
X-2614000Y-3960000D03*
X-2614000Y-4214000D03*
X-2614000Y-4468000D03*
X-2614000Y-4722000D03*
D16*
X-5854000Y-3034000D03*
D17*
X-5600000Y-3034000D03*
X-5854000Y-3288000D03*
X-5600000Y-3288000D03*
X-5854000Y-3542000D03*
X-5600000Y-3542000D03*
X-5854000Y-3796000D03*
X-5600000Y-3796000D03*
X-5854000Y-4050000D03*
X-5600000Y-4050000D03*
X-5854000Y-4304000D03*
X-5600000Y-4304000D03*
X-5854000Y-4558000D03*
X-5600000Y-4558000D03*
X-5854000Y-4812000D03*
X-5600000Y-4812000D03*
D19*
X-8800000Y+750000D03*
X-8546000Y+750000D03*
X-8292000Y+750000D03*
X-8038000Y+750000D03*
X-7784000Y+750000D03*
X-7530000Y+750000D03*
D70*
X-1500000Y-2496000D03*
X-1500000Y-2750000D03*
X-1500000Y-3004000D03*
X-1500000Y-3258000D03*
X-1500000Y-3512000D03*
D71*
X-1400000Y-192000D03*
X-1400000Y-700000D03*
X-1400000Y-1208000D03*
X-1400000Y-1716000D03*
D18*
X-2000000Y-4496000D03*
X-2000000Y-4750000D03*
X-2000000Y-5004000D03*
X-2000000Y-5258000D03*
X-2000000Y-5512000D03*
X-2000000Y-5766000D03*
X-2000000Y-6020000D03*
X-900000Y-4750000D03*
X-900000Y-5004000D03*
X-900000Y-5258000D03*
X-900000Y-5512000D03*
X-900000Y-5766000D03*
D20*
X-9300000Y-6350000D02*
X-600000Y-6350000D01*
X-600000Y+1450000D01*
X-9300000Y+1450000D01*
X-9300000Y-6350000D01*
M02*
