G04 PROTEUS GERBER X2 FILE*
%TF.GenerationSoftware,Labcenter,Proteus,8.9-SP0-Build27865*%
%TF.CreationDate,2020-11-24T08:56:55+00:00*%
%TF.FileFunction,AssemblyDrawing,Top*%
%TF.FilePolarity,Positive*%
%TF.Part,Single*%
%TF.SameCoordinates,{ee39a552-392a-4f40-a773-eadb6806b216}*%
%FSLAX45Y45*%
%MOMM*%
G01*
%TA.AperFunction,Profile*%
%ADD20C,0.203200*%
%TA.AperFunction,Material*%
%ADD28C,0.152400*%
%ADD37C,0.609600*%
%ADD38C,0.399280*%
%ADD29C,0.203200*%
%ADD39C,1.016000*%
%ADD40C,0.346160*%
%ADD41C,0.193040*%
%ADD42C,0.812800*%
%ADD43C,0.099250*%
%ADD44C,1.219200*%
%ADD45C,0.260060*%
%ADD46C,0.165480*%
%TD.AperFunction*%
D20*
X-9300000Y-6350000D02*
X-600000Y-6350000D01*
X-600000Y+1450000D01*
X-9300000Y+1450000D01*
X-9300000Y-6350000D01*
D28*
X-5401880Y+927620D02*
X-6052120Y+927620D01*
X-6052120Y-1881620D01*
X-5401880Y-1881620D01*
X-5401880Y+927620D01*
X-6052120Y+927620D01*
X-6052120Y-1881620D01*
X-5401880Y-1881620D01*
X-5401880Y+927620D01*
D37*
X-5854000Y+412000D02*
X-5854000Y+412000D01*
D38*
X-5846786Y-756502D02*
X-5846786Y-596787D01*
X-5846786Y-676644D02*
X-5607213Y-676644D01*
X-5607213Y-756502D02*
X-5607213Y-596787D01*
X-5607213Y-477000D02*
X-5846786Y-477000D01*
X-5607213Y-237428D01*
X-5846786Y-237428D01*
D29*
X-5027000Y-4810160D02*
X-2449840Y-4810160D01*
X-2449840Y+36160D01*
X-5027000Y+36160D01*
X-5027000Y-4810160D01*
D39*
X-4900000Y-150000D02*
X-4900000Y-150000D01*
D40*
X-3634571Y-3979359D02*
X-3634571Y-4187058D01*
X-3842270Y-4187058D01*
X-3842270Y-3979359D01*
X-3738420Y-4187058D02*
X-3738420Y-4048592D01*
X-3669187Y-3910126D02*
X-3634571Y-3875510D01*
X-3634571Y-3737044D01*
X-3669187Y-3702427D01*
X-3703804Y-3702427D01*
X-3738420Y-3737044D01*
X-3738420Y-3875510D01*
X-3773037Y-3910126D01*
X-3807653Y-3910126D01*
X-3842270Y-3875510D01*
X-3842270Y-3737044D01*
X-3807653Y-3702427D01*
X-3634571Y-3633194D02*
X-3842270Y-3633194D01*
X-3842270Y-3460112D01*
X-3807653Y-3425495D01*
X-3773037Y-3425495D01*
X-3738420Y-3460112D01*
X-3738420Y-3633194D01*
X-3807653Y-3321646D02*
X-3842270Y-3287029D01*
X-3842270Y-3183180D01*
X-3807653Y-3148563D01*
X-3773037Y-3148563D01*
X-3738420Y-3183180D01*
X-3703804Y-3148563D01*
X-3669187Y-3148563D01*
X-3634571Y-3183180D01*
X-3634571Y-3287029D01*
X-3669187Y-3321646D01*
X-3738420Y-3252413D02*
X-3738420Y-3183180D01*
X-3807653Y-3044714D02*
X-3842270Y-3010097D01*
X-3842270Y-2906248D01*
X-3807653Y-2871631D01*
X-3773037Y-2871631D01*
X-3738420Y-2906248D01*
X-3738420Y-3010097D01*
X-3703804Y-3044714D01*
X-3634571Y-3044714D01*
X-3634571Y-2871631D01*
X-3599954Y-2802398D02*
X-3599954Y-2594699D01*
X-3634571Y-2525466D02*
X-3842270Y-2525466D01*
X-3634571Y-2317767D01*
X-3842270Y-2317767D01*
X-3773037Y-2248534D02*
X-3842270Y-2179301D01*
X-3842270Y-2110068D01*
X-3773037Y-2040835D01*
X-3703804Y-2040835D01*
X-3634571Y-2110068D01*
X-3634571Y-2179301D01*
X-3703804Y-2248534D01*
X-3773037Y-2248534D01*
X-3634571Y-1971602D02*
X-3842270Y-1971602D01*
X-3842270Y-1833136D01*
X-3773037Y-1763903D01*
X-3703804Y-1763903D01*
X-3634571Y-1833136D01*
X-3634571Y-1971602D01*
X-3634571Y-1486971D02*
X-3634571Y-1694670D01*
X-3842270Y-1694670D01*
X-3842270Y-1486971D01*
X-3738420Y-1694670D02*
X-3738420Y-1556204D01*
X-3634571Y-1417738D02*
X-3842270Y-1417738D01*
X-3738420Y-1313889D01*
X-3842270Y-1210039D01*
X-3634571Y-1210039D01*
X-3669187Y-933107D02*
X-3634571Y-967724D01*
X-3634571Y-1071573D01*
X-3703804Y-1140806D01*
X-3773037Y-1140806D01*
X-3842270Y-1071573D01*
X-3842270Y-967724D01*
X-3807653Y-933107D01*
X-3842270Y-863874D02*
X-3669187Y-863874D01*
X-3634571Y-829258D01*
X-3634571Y-690792D01*
X-3669187Y-656175D01*
X-3842270Y-656175D01*
D28*
X-5401880Y-2518380D02*
X-6052120Y-2518380D01*
X-6052120Y-5327620D01*
X-5401880Y-5327620D01*
X-5401880Y-2518380D01*
X-6052120Y-2518380D01*
X-6052120Y-5327620D01*
X-5401880Y-5327620D01*
X-5401880Y-2518380D01*
D37*
X-5854000Y-3034000D02*
X-5854000Y-3034000D01*
D38*
X-5766928Y-4402145D02*
X-5846786Y-4322288D01*
X-5846786Y-4242430D01*
X-5766928Y-4162573D01*
X-5687071Y-4162573D01*
X-5607213Y-4242430D01*
X-5607213Y-4322288D01*
X-5687071Y-4402145D01*
X-5766928Y-4402145D01*
X-5846786Y-4082715D02*
X-5647142Y-4082715D01*
X-5607213Y-4042787D01*
X-5607213Y-3883072D01*
X-5647142Y-3843143D01*
X-5846786Y-3843143D01*
X-5846786Y-3763285D02*
X-5846786Y-3523713D01*
X-5846786Y-3643499D02*
X-5607213Y-3643499D01*
D29*
X-8937160Y+549340D02*
X-7392840Y+549340D01*
X-7392840Y+950660D01*
X-8937160Y+950660D01*
X-8937160Y+549340D01*
D39*
X-8800000Y+750000D02*
X-8800000Y+750000D01*
D41*
X-8705512Y+711392D02*
X-8686208Y+692088D01*
X-8608992Y+692088D01*
X-8589688Y+711392D01*
X-8589688Y+730696D01*
X-8608992Y+750000D01*
X-8686208Y+750000D01*
X-8705512Y+769304D01*
X-8705512Y+788608D01*
X-8686208Y+807912D01*
X-8608992Y+807912D01*
X-8589688Y+788608D01*
X-8551080Y+692088D02*
X-8551080Y+807912D01*
X-8473864Y+807912D01*
X-8435256Y+769304D01*
X-8435256Y+730696D01*
X-8473864Y+692088D01*
X-8551080Y+692088D01*
X-8126392Y+711392D02*
X-8145696Y+692088D01*
X-8203608Y+692088D01*
X-8242216Y+730696D01*
X-8242216Y+769304D01*
X-8203608Y+807912D01*
X-8145696Y+807912D01*
X-8126392Y+788608D01*
X-8087784Y+692088D02*
X-8087784Y+769304D01*
X-8049176Y+807912D01*
X-8010568Y+807912D01*
X-7971960Y+769304D01*
X-7971960Y+692088D01*
X-8087784Y+730696D02*
X-7971960Y+730696D01*
X-7933352Y+692088D02*
X-7933352Y+807912D01*
X-7836832Y+807912D01*
X-7817528Y+788608D01*
X-7817528Y+769304D01*
X-7836832Y+750000D01*
X-7933352Y+750000D01*
X-7836832Y+750000D02*
X-7817528Y+730696D01*
X-7817528Y+692088D01*
X-7778920Y+692088D02*
X-7778920Y+807912D01*
X-7701704Y+807912D01*
X-7663096Y+769304D01*
X-7663096Y+730696D01*
X-7701704Y+692088D01*
X-7778920Y+692088D01*
D29*
X-1637160Y-3649160D02*
X-1362840Y-3649160D01*
X-1362840Y-2358840D01*
X-1637160Y-2358840D01*
X-1637160Y-3649160D01*
D42*
X-1500000Y-2496000D02*
X-1500000Y-2496000D01*
D43*
X-1529777Y-3480424D02*
X-1480149Y-3480424D01*
X-1470224Y-3470499D01*
X-1470224Y-3430797D01*
X-1480149Y-3420871D01*
X-1529777Y-3420871D01*
X-1480149Y-3401020D02*
X-1470224Y-3391095D01*
X-1470224Y-3351393D01*
X-1480149Y-3341467D01*
X-1490075Y-3341467D01*
X-1500000Y-3351393D01*
X-1500000Y-3391095D01*
X-1509926Y-3401020D01*
X-1519851Y-3401020D01*
X-1529777Y-3391095D01*
X-1529777Y-3351393D01*
X-1519851Y-3341467D01*
X-1470224Y-3321616D02*
X-1529777Y-3321616D01*
X-1529777Y-3271989D01*
X-1519851Y-3262063D01*
X-1509926Y-3262063D01*
X-1500000Y-3271989D01*
X-1490075Y-3262063D01*
X-1480149Y-3262063D01*
X-1470224Y-3271989D01*
X-1470224Y-3321616D01*
X-1500000Y-3321616D02*
X-1500000Y-3271989D01*
X-1470224Y-3162808D02*
X-1529777Y-3162808D01*
X-1529777Y-3113181D01*
X-1519851Y-3103255D01*
X-1509926Y-3103255D01*
X-1500000Y-3113181D01*
X-1490075Y-3103255D01*
X-1480149Y-3103255D01*
X-1470224Y-3113181D01*
X-1470224Y-3162808D01*
X-1500000Y-3162808D02*
X-1500000Y-3113181D01*
X-1470224Y-3083404D02*
X-1529777Y-3083404D01*
X-1529777Y-3033777D01*
X-1519851Y-3023851D01*
X-1509926Y-3023851D01*
X-1500000Y-3033777D01*
X-1500000Y-3083404D01*
X-1500000Y-3033777D02*
X-1490075Y-3023851D01*
X-1470224Y-3023851D01*
X-1470224Y-2944447D02*
X-1470224Y-3004000D01*
X-1529777Y-3004000D01*
X-1529777Y-2944447D01*
X-1500000Y-3004000D02*
X-1500000Y-2964298D01*
X-1470224Y-2924596D02*
X-1509926Y-2924596D01*
X-1529777Y-2904745D01*
X-1529777Y-2884894D01*
X-1509926Y-2865043D01*
X-1470224Y-2865043D01*
X-1490075Y-2924596D02*
X-1490075Y-2865043D01*
X-1529777Y-2845192D02*
X-1470224Y-2845192D01*
X-1529777Y-2785639D02*
X-1500000Y-2815416D01*
X-1470224Y-2785639D01*
X-1500000Y-2845192D02*
X-1500000Y-2815416D01*
X-1509926Y-2765788D02*
X-1529777Y-2745937D01*
X-1529777Y-2726086D01*
X-1509926Y-2706235D01*
X-1490075Y-2706235D01*
X-1470224Y-2726086D01*
X-1470224Y-2745937D01*
X-1490075Y-2765788D01*
X-1509926Y-2765788D01*
X-1529777Y-2686384D02*
X-1480149Y-2686384D01*
X-1470224Y-2676459D01*
X-1470224Y-2636757D01*
X-1480149Y-2626831D01*
X-1529777Y-2626831D01*
X-1529777Y-2606980D02*
X-1529777Y-2547427D01*
X-1529777Y-2577204D02*
X-1470224Y-2577204D01*
D29*
X-1790240Y-2007240D02*
X-1059760Y-2007240D01*
X-1059760Y+73240D01*
X-1790240Y+73240D01*
X-1790240Y-2007240D01*
D44*
X-1400000Y-192000D02*
X-1400000Y-192000D01*
D45*
X-1346982Y-1695168D02*
X-1503018Y-1695168D01*
X-1425000Y-1617150D01*
X-1503018Y-1539132D01*
X-1346982Y-1539132D01*
X-1320976Y-1487120D02*
X-1320976Y-1331084D01*
X-1346982Y-1279072D02*
X-1503018Y-1279072D01*
X-1503018Y-1149042D01*
X-1477012Y-1123036D01*
X-1451006Y-1123036D01*
X-1425000Y-1149042D01*
X-1425000Y-1279072D01*
X-1451006Y-1071024D02*
X-1503018Y-1019012D01*
X-1503018Y-967000D01*
X-1451006Y-914988D01*
X-1398994Y-914988D01*
X-1346982Y-967000D01*
X-1346982Y-1019012D01*
X-1398994Y-1071024D01*
X-1451006Y-1071024D01*
X-1503018Y-862976D02*
X-1346982Y-862976D01*
X-1425000Y-784958D01*
X-1346982Y-706940D01*
X-1503018Y-706940D01*
X-1346982Y-498892D02*
X-1346982Y-654928D01*
X-1503018Y-654928D01*
X-1503018Y-498892D01*
X-1425000Y-654928D02*
X-1425000Y-550904D01*
X-1346982Y-446880D02*
X-1503018Y-446880D01*
X-1503018Y-316850D01*
X-1477012Y-290844D01*
X-1451006Y-290844D01*
X-1425000Y-316850D01*
X-1425000Y-446880D01*
X-1425000Y-316850D02*
X-1398994Y-290844D01*
X-1346982Y-290844D01*
D29*
X-2127000Y-6206160D02*
X-773000Y-6206160D01*
X-773000Y-4385840D01*
X-2127000Y-4385840D01*
X-2127000Y-6206160D01*
D39*
X-2000000Y-4496000D02*
X-2000000Y-4496000D01*
D46*
X-1433452Y-5891737D02*
X-1433452Y-5858641D01*
X-1400355Y-5858641D01*
X-1400355Y-5924834D01*
X-1433452Y-5957930D01*
X-1466548Y-5957930D01*
X-1499645Y-5924834D01*
X-1499645Y-5875189D01*
X-1483097Y-5858641D01*
X-1499645Y-5726255D02*
X-1400355Y-5825544D01*
X-1499645Y-5825544D02*
X-1450000Y-5775900D01*
X-1383807Y-5693158D02*
X-1383807Y-5593869D01*
X-1499645Y-5560772D02*
X-1400355Y-5560772D01*
X-1400355Y-5461483D01*
X-1416903Y-5428386D02*
X-1400355Y-5411838D01*
X-1400355Y-5345645D01*
X-1416903Y-5329097D01*
X-1433452Y-5329097D01*
X-1450000Y-5345645D01*
X-1450000Y-5411838D01*
X-1466548Y-5428386D01*
X-1483097Y-5428386D01*
X-1499645Y-5411838D01*
X-1499645Y-5345645D01*
X-1483097Y-5329097D01*
X-1400355Y-5296000D02*
X-1499645Y-5296000D01*
X-1450000Y-5246356D01*
X-1499645Y-5196711D01*
X-1400355Y-5196711D01*
X-1483097Y-5064325D02*
X-1499645Y-5080873D01*
X-1499645Y-5130518D01*
X-1483097Y-5147066D01*
X-1416903Y-5147066D01*
X-1400355Y-5130518D01*
X-1400355Y-5080873D01*
X-1416903Y-5064325D01*
X-1433452Y-5064325D01*
X-1450000Y-5080873D01*
X-1450000Y-5147066D01*
X-1400355Y-5031228D02*
X-1499645Y-5031228D01*
X-1499645Y-4965035D01*
X-1466548Y-4931939D01*
X-1433452Y-4931939D01*
X-1400355Y-4965035D01*
X-1400355Y-5031228D01*
X-1416903Y-4898842D02*
X-1400355Y-4882294D01*
X-1400355Y-4816101D01*
X-1416903Y-4799553D01*
X-1433452Y-4799553D01*
X-1450000Y-4816101D01*
X-1450000Y-4882294D01*
X-1466548Y-4898842D01*
X-1483097Y-4898842D01*
X-1499645Y-4882294D01*
X-1499645Y-4816101D01*
X-1483097Y-4799553D01*
X-1483097Y-4749908D02*
X-1499645Y-4733360D01*
X-1499645Y-4683715D01*
X-1483097Y-4667167D01*
X-1466548Y-4667167D01*
X-1450000Y-4683715D01*
X-1433452Y-4667167D01*
X-1416903Y-4667167D01*
X-1400355Y-4683715D01*
X-1400355Y-4733360D01*
X-1416903Y-4749908D01*
X-1450000Y-4716812D02*
X-1450000Y-4683715D01*
M02*
