G04 #@! TF.GenerationSoftware,KiCad,Pcbnew,(5.1.4)-1*
G04 #@! TF.CreationDate,2021-01-03T10:51:31-08:00*
G04 #@! TF.ProjectId,BOMPanelClipon,424f4d50-616e-4656-9c43-6c69706f6e2e,rev?*
G04 #@! TF.SameCoordinates,Original*
G04 #@! TF.FileFunction,Paste,Top*
G04 #@! TF.FilePolarity,Positive*
%FSLAX46Y46*%
G04 Gerber Fmt 4.6, Leading zero omitted, Abs format (unit mm)*
G04 Created by KiCad (PCBNEW (5.1.4)-1) date 2021-01-03 10:51:31*
%MOMM*%
%LPD*%
G04 APERTURE LIST*
%ADD10C,0.100000*%
%ADD11C,0.975000*%
%ADD12R,1.900000X0.800000*%
G04 APERTURE END LIST*
D10*
G36*
X-16969858Y-9301174D02*
G01*
X-16946197Y-9304684D01*
X-16922993Y-9310496D01*
X-16900471Y-9318554D01*
X-16878847Y-9328782D01*
X-16858330Y-9341079D01*
X-16839117Y-9355329D01*
X-16821393Y-9371393D01*
X-16805329Y-9389117D01*
X-16791079Y-9408330D01*
X-16778782Y-9428847D01*
X-16768554Y-9450471D01*
X-16760496Y-9472993D01*
X-16754684Y-9496197D01*
X-16751174Y-9519858D01*
X-16750000Y-9543750D01*
X-16750000Y-10456250D01*
X-16751174Y-10480142D01*
X-16754684Y-10503803D01*
X-16760496Y-10527007D01*
X-16768554Y-10549529D01*
X-16778782Y-10571153D01*
X-16791079Y-10591670D01*
X-16805329Y-10610883D01*
X-16821393Y-10628607D01*
X-16839117Y-10644671D01*
X-16858330Y-10658921D01*
X-16878847Y-10671218D01*
X-16900471Y-10681446D01*
X-16922993Y-10689504D01*
X-16946197Y-10695316D01*
X-16969858Y-10698826D01*
X-16993750Y-10700000D01*
X-17481250Y-10700000D01*
X-17505142Y-10698826D01*
X-17528803Y-10695316D01*
X-17552007Y-10689504D01*
X-17574529Y-10681446D01*
X-17596153Y-10671218D01*
X-17616670Y-10658921D01*
X-17635883Y-10644671D01*
X-17653607Y-10628607D01*
X-17669671Y-10610883D01*
X-17683921Y-10591670D01*
X-17696218Y-10571153D01*
X-17706446Y-10549529D01*
X-17714504Y-10527007D01*
X-17720316Y-10503803D01*
X-17723826Y-10480142D01*
X-17725000Y-10456250D01*
X-17725000Y-9543750D01*
X-17723826Y-9519858D01*
X-17720316Y-9496197D01*
X-17714504Y-9472993D01*
X-17706446Y-9450471D01*
X-17696218Y-9428847D01*
X-17683921Y-9408330D01*
X-17669671Y-9389117D01*
X-17653607Y-9371393D01*
X-17635883Y-9355329D01*
X-17616670Y-9341079D01*
X-17596153Y-9328782D01*
X-17574529Y-9318554D01*
X-17552007Y-9310496D01*
X-17528803Y-9304684D01*
X-17505142Y-9301174D01*
X-17481250Y-9300000D01*
X-16993750Y-9300000D01*
X-16969858Y-9301174D01*
X-16969858Y-9301174D01*
G37*
D11*
X-17237500Y-10000000D03*
D10*
G36*
X-15094858Y-9301174D02*
G01*
X-15071197Y-9304684D01*
X-15047993Y-9310496D01*
X-15025471Y-9318554D01*
X-15003847Y-9328782D01*
X-14983330Y-9341079D01*
X-14964117Y-9355329D01*
X-14946393Y-9371393D01*
X-14930329Y-9389117D01*
X-14916079Y-9408330D01*
X-14903782Y-9428847D01*
X-14893554Y-9450471D01*
X-14885496Y-9472993D01*
X-14879684Y-9496197D01*
X-14876174Y-9519858D01*
X-14875000Y-9543750D01*
X-14875000Y-10456250D01*
X-14876174Y-10480142D01*
X-14879684Y-10503803D01*
X-14885496Y-10527007D01*
X-14893554Y-10549529D01*
X-14903782Y-10571153D01*
X-14916079Y-10591670D01*
X-14930329Y-10610883D01*
X-14946393Y-10628607D01*
X-14964117Y-10644671D01*
X-14983330Y-10658921D01*
X-15003847Y-10671218D01*
X-15025471Y-10681446D01*
X-15047993Y-10689504D01*
X-15071197Y-10695316D01*
X-15094858Y-10698826D01*
X-15118750Y-10700000D01*
X-15606250Y-10700000D01*
X-15630142Y-10698826D01*
X-15653803Y-10695316D01*
X-15677007Y-10689504D01*
X-15699529Y-10681446D01*
X-15721153Y-10671218D01*
X-15741670Y-10658921D01*
X-15760883Y-10644671D01*
X-15778607Y-10628607D01*
X-15794671Y-10610883D01*
X-15808921Y-10591670D01*
X-15821218Y-10571153D01*
X-15831446Y-10549529D01*
X-15839504Y-10527007D01*
X-15845316Y-10503803D01*
X-15848826Y-10480142D01*
X-15850000Y-10456250D01*
X-15850000Y-9543750D01*
X-15848826Y-9519858D01*
X-15845316Y-9496197D01*
X-15839504Y-9472993D01*
X-15831446Y-9450471D01*
X-15821218Y-9428847D01*
X-15808921Y-9408330D01*
X-15794671Y-9389117D01*
X-15778607Y-9371393D01*
X-15760883Y-9355329D01*
X-15741670Y-9341079D01*
X-15721153Y-9328782D01*
X-15699529Y-9318554D01*
X-15677007Y-9310496D01*
X-15653803Y-9304684D01*
X-15630142Y-9301174D01*
X-15606250Y-9300000D01*
X-15118750Y-9300000D01*
X-15094858Y-9301174D01*
X-15094858Y-9301174D01*
G37*
D11*
X-15362500Y-10000000D03*
D10*
G36*
X-15094858Y-11301174D02*
G01*
X-15071197Y-11304684D01*
X-15047993Y-11310496D01*
X-15025471Y-11318554D01*
X-15003847Y-11328782D01*
X-14983330Y-11341079D01*
X-14964117Y-11355329D01*
X-14946393Y-11371393D01*
X-14930329Y-11389117D01*
X-14916079Y-11408330D01*
X-14903782Y-11428847D01*
X-14893554Y-11450471D01*
X-14885496Y-11472993D01*
X-14879684Y-11496197D01*
X-14876174Y-11519858D01*
X-14875000Y-11543750D01*
X-14875000Y-12456250D01*
X-14876174Y-12480142D01*
X-14879684Y-12503803D01*
X-14885496Y-12527007D01*
X-14893554Y-12549529D01*
X-14903782Y-12571153D01*
X-14916079Y-12591670D01*
X-14930329Y-12610883D01*
X-14946393Y-12628607D01*
X-14964117Y-12644671D01*
X-14983330Y-12658921D01*
X-15003847Y-12671218D01*
X-15025471Y-12681446D01*
X-15047993Y-12689504D01*
X-15071197Y-12695316D01*
X-15094858Y-12698826D01*
X-15118750Y-12700000D01*
X-15606250Y-12700000D01*
X-15630142Y-12698826D01*
X-15653803Y-12695316D01*
X-15677007Y-12689504D01*
X-15699529Y-12681446D01*
X-15721153Y-12671218D01*
X-15741670Y-12658921D01*
X-15760883Y-12644671D01*
X-15778607Y-12628607D01*
X-15794671Y-12610883D01*
X-15808921Y-12591670D01*
X-15821218Y-12571153D01*
X-15831446Y-12549529D01*
X-15839504Y-12527007D01*
X-15845316Y-12503803D01*
X-15848826Y-12480142D01*
X-15850000Y-12456250D01*
X-15850000Y-11543750D01*
X-15848826Y-11519858D01*
X-15845316Y-11496197D01*
X-15839504Y-11472993D01*
X-15831446Y-11450471D01*
X-15821218Y-11428847D01*
X-15808921Y-11408330D01*
X-15794671Y-11389117D01*
X-15778607Y-11371393D01*
X-15760883Y-11355329D01*
X-15741670Y-11341079D01*
X-15721153Y-11328782D01*
X-15699529Y-11318554D01*
X-15677007Y-11310496D01*
X-15653803Y-11304684D01*
X-15630142Y-11301174D01*
X-15606250Y-11300000D01*
X-15118750Y-11300000D01*
X-15094858Y-11301174D01*
X-15094858Y-11301174D01*
G37*
D11*
X-15362500Y-12000000D03*
D10*
G36*
X-16969858Y-11301174D02*
G01*
X-16946197Y-11304684D01*
X-16922993Y-11310496D01*
X-16900471Y-11318554D01*
X-16878847Y-11328782D01*
X-16858330Y-11341079D01*
X-16839117Y-11355329D01*
X-16821393Y-11371393D01*
X-16805329Y-11389117D01*
X-16791079Y-11408330D01*
X-16778782Y-11428847D01*
X-16768554Y-11450471D01*
X-16760496Y-11472993D01*
X-16754684Y-11496197D01*
X-16751174Y-11519858D01*
X-16750000Y-11543750D01*
X-16750000Y-12456250D01*
X-16751174Y-12480142D01*
X-16754684Y-12503803D01*
X-16760496Y-12527007D01*
X-16768554Y-12549529D01*
X-16778782Y-12571153D01*
X-16791079Y-12591670D01*
X-16805329Y-12610883D01*
X-16821393Y-12628607D01*
X-16839117Y-12644671D01*
X-16858330Y-12658921D01*
X-16878847Y-12671218D01*
X-16900471Y-12681446D01*
X-16922993Y-12689504D01*
X-16946197Y-12695316D01*
X-16969858Y-12698826D01*
X-16993750Y-12700000D01*
X-17481250Y-12700000D01*
X-17505142Y-12698826D01*
X-17528803Y-12695316D01*
X-17552007Y-12689504D01*
X-17574529Y-12681446D01*
X-17596153Y-12671218D01*
X-17616670Y-12658921D01*
X-17635883Y-12644671D01*
X-17653607Y-12628607D01*
X-17669671Y-12610883D01*
X-17683921Y-12591670D01*
X-17696218Y-12571153D01*
X-17706446Y-12549529D01*
X-17714504Y-12527007D01*
X-17720316Y-12503803D01*
X-17723826Y-12480142D01*
X-17725000Y-12456250D01*
X-17725000Y-11543750D01*
X-17723826Y-11519858D01*
X-17720316Y-11496197D01*
X-17714504Y-11472993D01*
X-17706446Y-11450471D01*
X-17696218Y-11428847D01*
X-17683921Y-11408330D01*
X-17669671Y-11389117D01*
X-17653607Y-11371393D01*
X-17635883Y-11355329D01*
X-17616670Y-11341079D01*
X-17596153Y-11328782D01*
X-17574529Y-11318554D01*
X-17552007Y-11310496D01*
X-17528803Y-11304684D01*
X-17505142Y-11301174D01*
X-17481250Y-11300000D01*
X-16993750Y-11300000D01*
X-16969858Y-11301174D01*
X-16969858Y-11301174D01*
G37*
D11*
X-17237500Y-12000000D03*
D10*
G36*
X-11594858Y-11301174D02*
G01*
X-11571197Y-11304684D01*
X-11547993Y-11310496D01*
X-11525471Y-11318554D01*
X-11503847Y-11328782D01*
X-11483330Y-11341079D01*
X-11464117Y-11355329D01*
X-11446393Y-11371393D01*
X-11430329Y-11389117D01*
X-11416079Y-11408330D01*
X-11403782Y-11428847D01*
X-11393554Y-11450471D01*
X-11385496Y-11472993D01*
X-11379684Y-11496197D01*
X-11376174Y-11519858D01*
X-11375000Y-11543750D01*
X-11375000Y-12456250D01*
X-11376174Y-12480142D01*
X-11379684Y-12503803D01*
X-11385496Y-12527007D01*
X-11393554Y-12549529D01*
X-11403782Y-12571153D01*
X-11416079Y-12591670D01*
X-11430329Y-12610883D01*
X-11446393Y-12628607D01*
X-11464117Y-12644671D01*
X-11483330Y-12658921D01*
X-11503847Y-12671218D01*
X-11525471Y-12681446D01*
X-11547993Y-12689504D01*
X-11571197Y-12695316D01*
X-11594858Y-12698826D01*
X-11618750Y-12700000D01*
X-12106250Y-12700000D01*
X-12130142Y-12698826D01*
X-12153803Y-12695316D01*
X-12177007Y-12689504D01*
X-12199529Y-12681446D01*
X-12221153Y-12671218D01*
X-12241670Y-12658921D01*
X-12260883Y-12644671D01*
X-12278607Y-12628607D01*
X-12294671Y-12610883D01*
X-12308921Y-12591670D01*
X-12321218Y-12571153D01*
X-12331446Y-12549529D01*
X-12339504Y-12527007D01*
X-12345316Y-12503803D01*
X-12348826Y-12480142D01*
X-12350000Y-12456250D01*
X-12350000Y-11543750D01*
X-12348826Y-11519858D01*
X-12345316Y-11496197D01*
X-12339504Y-11472993D01*
X-12331446Y-11450471D01*
X-12321218Y-11428847D01*
X-12308921Y-11408330D01*
X-12294671Y-11389117D01*
X-12278607Y-11371393D01*
X-12260883Y-11355329D01*
X-12241670Y-11341079D01*
X-12221153Y-11328782D01*
X-12199529Y-11318554D01*
X-12177007Y-11310496D01*
X-12153803Y-11304684D01*
X-12130142Y-11301174D01*
X-12106250Y-11300000D01*
X-11618750Y-11300000D01*
X-11594858Y-11301174D01*
X-11594858Y-11301174D01*
G37*
D11*
X-11862500Y-12000000D03*
D10*
G36*
X-13469858Y-11301174D02*
G01*
X-13446197Y-11304684D01*
X-13422993Y-11310496D01*
X-13400471Y-11318554D01*
X-13378847Y-11328782D01*
X-13358330Y-11341079D01*
X-13339117Y-11355329D01*
X-13321393Y-11371393D01*
X-13305329Y-11389117D01*
X-13291079Y-11408330D01*
X-13278782Y-11428847D01*
X-13268554Y-11450471D01*
X-13260496Y-11472993D01*
X-13254684Y-11496197D01*
X-13251174Y-11519858D01*
X-13250000Y-11543750D01*
X-13250000Y-12456250D01*
X-13251174Y-12480142D01*
X-13254684Y-12503803D01*
X-13260496Y-12527007D01*
X-13268554Y-12549529D01*
X-13278782Y-12571153D01*
X-13291079Y-12591670D01*
X-13305329Y-12610883D01*
X-13321393Y-12628607D01*
X-13339117Y-12644671D01*
X-13358330Y-12658921D01*
X-13378847Y-12671218D01*
X-13400471Y-12681446D01*
X-13422993Y-12689504D01*
X-13446197Y-12695316D01*
X-13469858Y-12698826D01*
X-13493750Y-12700000D01*
X-13981250Y-12700000D01*
X-14005142Y-12698826D01*
X-14028803Y-12695316D01*
X-14052007Y-12689504D01*
X-14074529Y-12681446D01*
X-14096153Y-12671218D01*
X-14116670Y-12658921D01*
X-14135883Y-12644671D01*
X-14153607Y-12628607D01*
X-14169671Y-12610883D01*
X-14183921Y-12591670D01*
X-14196218Y-12571153D01*
X-14206446Y-12549529D01*
X-14214504Y-12527007D01*
X-14220316Y-12503803D01*
X-14223826Y-12480142D01*
X-14225000Y-12456250D01*
X-14225000Y-11543750D01*
X-14223826Y-11519858D01*
X-14220316Y-11496197D01*
X-14214504Y-11472993D01*
X-14206446Y-11450471D01*
X-14196218Y-11428847D01*
X-14183921Y-11408330D01*
X-14169671Y-11389117D01*
X-14153607Y-11371393D01*
X-14135883Y-11355329D01*
X-14116670Y-11341079D01*
X-14096153Y-11328782D01*
X-14074529Y-11318554D01*
X-14052007Y-11310496D01*
X-14028803Y-11304684D01*
X-14005142Y-11301174D01*
X-13981250Y-11300000D01*
X-13493750Y-11300000D01*
X-13469858Y-11301174D01*
X-13469858Y-11301174D01*
G37*
D11*
X-13737500Y-12000000D03*
D10*
G36*
X24230142Y5298826D02*
G01*
X24253803Y5295316D01*
X24277007Y5289504D01*
X24299529Y5281446D01*
X24321153Y5271218D01*
X24341670Y5258921D01*
X24360883Y5244671D01*
X24378607Y5228607D01*
X24394671Y5210883D01*
X24408921Y5191670D01*
X24421218Y5171153D01*
X24431446Y5149529D01*
X24439504Y5127007D01*
X24445316Y5103803D01*
X24448826Y5080142D01*
X24450000Y5056250D01*
X24450000Y4143750D01*
X24448826Y4119858D01*
X24445316Y4096197D01*
X24439504Y4072993D01*
X24431446Y4050471D01*
X24421218Y4028847D01*
X24408921Y4008330D01*
X24394671Y3989117D01*
X24378607Y3971393D01*
X24360883Y3955329D01*
X24341670Y3941079D01*
X24321153Y3928782D01*
X24299529Y3918554D01*
X24277007Y3910496D01*
X24253803Y3904684D01*
X24230142Y3901174D01*
X24206250Y3900000D01*
X23718750Y3900000D01*
X23694858Y3901174D01*
X23671197Y3904684D01*
X23647993Y3910496D01*
X23625471Y3918554D01*
X23603847Y3928782D01*
X23583330Y3941079D01*
X23564117Y3955329D01*
X23546393Y3971393D01*
X23530329Y3989117D01*
X23516079Y4008330D01*
X23503782Y4028847D01*
X23493554Y4050471D01*
X23485496Y4072993D01*
X23479684Y4096197D01*
X23476174Y4119858D01*
X23475000Y4143750D01*
X23475000Y5056250D01*
X23476174Y5080142D01*
X23479684Y5103803D01*
X23485496Y5127007D01*
X23493554Y5149529D01*
X23503782Y5171153D01*
X23516079Y5191670D01*
X23530329Y5210883D01*
X23546393Y5228607D01*
X23564117Y5244671D01*
X23583330Y5258921D01*
X23603847Y5271218D01*
X23625471Y5281446D01*
X23647993Y5289504D01*
X23671197Y5295316D01*
X23694858Y5298826D01*
X23718750Y5300000D01*
X24206250Y5300000D01*
X24230142Y5298826D01*
X24230142Y5298826D01*
G37*
D11*
X23962500Y4600000D03*
D10*
G36*
X26105142Y5298826D02*
G01*
X26128803Y5295316D01*
X26152007Y5289504D01*
X26174529Y5281446D01*
X26196153Y5271218D01*
X26216670Y5258921D01*
X26235883Y5244671D01*
X26253607Y5228607D01*
X26269671Y5210883D01*
X26283921Y5191670D01*
X26296218Y5171153D01*
X26306446Y5149529D01*
X26314504Y5127007D01*
X26320316Y5103803D01*
X26323826Y5080142D01*
X26325000Y5056250D01*
X26325000Y4143750D01*
X26323826Y4119858D01*
X26320316Y4096197D01*
X26314504Y4072993D01*
X26306446Y4050471D01*
X26296218Y4028847D01*
X26283921Y4008330D01*
X26269671Y3989117D01*
X26253607Y3971393D01*
X26235883Y3955329D01*
X26216670Y3941079D01*
X26196153Y3928782D01*
X26174529Y3918554D01*
X26152007Y3910496D01*
X26128803Y3904684D01*
X26105142Y3901174D01*
X26081250Y3900000D01*
X25593750Y3900000D01*
X25569858Y3901174D01*
X25546197Y3904684D01*
X25522993Y3910496D01*
X25500471Y3918554D01*
X25478847Y3928782D01*
X25458330Y3941079D01*
X25439117Y3955329D01*
X25421393Y3971393D01*
X25405329Y3989117D01*
X25391079Y4008330D01*
X25378782Y4028847D01*
X25368554Y4050471D01*
X25360496Y4072993D01*
X25354684Y4096197D01*
X25351174Y4119858D01*
X25350000Y4143750D01*
X25350000Y5056250D01*
X25351174Y5080142D01*
X25354684Y5103803D01*
X25360496Y5127007D01*
X25368554Y5149529D01*
X25378782Y5171153D01*
X25391079Y5191670D01*
X25405329Y5210883D01*
X25421393Y5228607D01*
X25439117Y5244671D01*
X25458330Y5258921D01*
X25478847Y5271218D01*
X25500471Y5281446D01*
X25522993Y5289504D01*
X25546197Y5295316D01*
X25569858Y5298826D01*
X25593750Y5300000D01*
X26081250Y5300000D01*
X26105142Y5298826D01*
X26105142Y5298826D01*
G37*
D11*
X25837500Y4600000D03*
D10*
G36*
X26105142Y3198826D02*
G01*
X26128803Y3195316D01*
X26152007Y3189504D01*
X26174529Y3181446D01*
X26196153Y3171218D01*
X26216670Y3158921D01*
X26235883Y3144671D01*
X26253607Y3128607D01*
X26269671Y3110883D01*
X26283921Y3091670D01*
X26296218Y3071153D01*
X26306446Y3049529D01*
X26314504Y3027007D01*
X26320316Y3003803D01*
X26323826Y2980142D01*
X26325000Y2956250D01*
X26325000Y2043750D01*
X26323826Y2019858D01*
X26320316Y1996197D01*
X26314504Y1972993D01*
X26306446Y1950471D01*
X26296218Y1928847D01*
X26283921Y1908330D01*
X26269671Y1889117D01*
X26253607Y1871393D01*
X26235883Y1855329D01*
X26216670Y1841079D01*
X26196153Y1828782D01*
X26174529Y1818554D01*
X26152007Y1810496D01*
X26128803Y1804684D01*
X26105142Y1801174D01*
X26081250Y1800000D01*
X25593750Y1800000D01*
X25569858Y1801174D01*
X25546197Y1804684D01*
X25522993Y1810496D01*
X25500471Y1818554D01*
X25478847Y1828782D01*
X25458330Y1841079D01*
X25439117Y1855329D01*
X25421393Y1871393D01*
X25405329Y1889117D01*
X25391079Y1908330D01*
X25378782Y1928847D01*
X25368554Y1950471D01*
X25360496Y1972993D01*
X25354684Y1996197D01*
X25351174Y2019858D01*
X25350000Y2043750D01*
X25350000Y2956250D01*
X25351174Y2980142D01*
X25354684Y3003803D01*
X25360496Y3027007D01*
X25368554Y3049529D01*
X25378782Y3071153D01*
X25391079Y3091670D01*
X25405329Y3110883D01*
X25421393Y3128607D01*
X25439117Y3144671D01*
X25458330Y3158921D01*
X25478847Y3171218D01*
X25500471Y3181446D01*
X25522993Y3189504D01*
X25546197Y3195316D01*
X25569858Y3198826D01*
X25593750Y3200000D01*
X26081250Y3200000D01*
X26105142Y3198826D01*
X26105142Y3198826D01*
G37*
D11*
X25837500Y2500000D03*
D10*
G36*
X24230142Y3198826D02*
G01*
X24253803Y3195316D01*
X24277007Y3189504D01*
X24299529Y3181446D01*
X24321153Y3171218D01*
X24341670Y3158921D01*
X24360883Y3144671D01*
X24378607Y3128607D01*
X24394671Y3110883D01*
X24408921Y3091670D01*
X24421218Y3071153D01*
X24431446Y3049529D01*
X24439504Y3027007D01*
X24445316Y3003803D01*
X24448826Y2980142D01*
X24450000Y2956250D01*
X24450000Y2043750D01*
X24448826Y2019858D01*
X24445316Y1996197D01*
X24439504Y1972993D01*
X24431446Y1950471D01*
X24421218Y1928847D01*
X24408921Y1908330D01*
X24394671Y1889117D01*
X24378607Y1871393D01*
X24360883Y1855329D01*
X24341670Y1841079D01*
X24321153Y1828782D01*
X24299529Y1818554D01*
X24277007Y1810496D01*
X24253803Y1804684D01*
X24230142Y1801174D01*
X24206250Y1800000D01*
X23718750Y1800000D01*
X23694858Y1801174D01*
X23671197Y1804684D01*
X23647993Y1810496D01*
X23625471Y1818554D01*
X23603847Y1828782D01*
X23583330Y1841079D01*
X23564117Y1855329D01*
X23546393Y1871393D01*
X23530329Y1889117D01*
X23516079Y1908330D01*
X23503782Y1928847D01*
X23493554Y1950471D01*
X23485496Y1972993D01*
X23479684Y1996197D01*
X23476174Y2019858D01*
X23475000Y2043750D01*
X23475000Y2956250D01*
X23476174Y2980142D01*
X23479684Y3003803D01*
X23485496Y3027007D01*
X23493554Y3049529D01*
X23503782Y3071153D01*
X23516079Y3091670D01*
X23530329Y3110883D01*
X23546393Y3128607D01*
X23564117Y3144671D01*
X23583330Y3158921D01*
X23603847Y3171218D01*
X23625471Y3181446D01*
X23647993Y3189504D01*
X23671197Y3195316D01*
X23694858Y3198826D01*
X23718750Y3200000D01*
X24206250Y3200000D01*
X24230142Y3198826D01*
X24230142Y3198826D01*
G37*
D11*
X23962500Y2500000D03*
D10*
G36*
X3480142Y-17651174D02*
G01*
X3503803Y-17654684D01*
X3527007Y-17660496D01*
X3549529Y-17668554D01*
X3571153Y-17678782D01*
X3591670Y-17691079D01*
X3610883Y-17705329D01*
X3628607Y-17721393D01*
X3644671Y-17739117D01*
X3658921Y-17758330D01*
X3671218Y-17778847D01*
X3681446Y-17800471D01*
X3689504Y-17822993D01*
X3695316Y-17846197D01*
X3698826Y-17869858D01*
X3700000Y-17893750D01*
X3700000Y-18381250D01*
X3698826Y-18405142D01*
X3695316Y-18428803D01*
X3689504Y-18452007D01*
X3681446Y-18474529D01*
X3671218Y-18496153D01*
X3658921Y-18516670D01*
X3644671Y-18535883D01*
X3628607Y-18553607D01*
X3610883Y-18569671D01*
X3591670Y-18583921D01*
X3571153Y-18596218D01*
X3549529Y-18606446D01*
X3527007Y-18614504D01*
X3503803Y-18620316D01*
X3480142Y-18623826D01*
X3456250Y-18625000D01*
X2543750Y-18625000D01*
X2519858Y-18623826D01*
X2496197Y-18620316D01*
X2472993Y-18614504D01*
X2450471Y-18606446D01*
X2428847Y-18596218D01*
X2408330Y-18583921D01*
X2389117Y-18569671D01*
X2371393Y-18553607D01*
X2355329Y-18535883D01*
X2341079Y-18516670D01*
X2328782Y-18496153D01*
X2318554Y-18474529D01*
X2310496Y-18452007D01*
X2304684Y-18428803D01*
X2301174Y-18405142D01*
X2300000Y-18381250D01*
X2300000Y-17893750D01*
X2301174Y-17869858D01*
X2304684Y-17846197D01*
X2310496Y-17822993D01*
X2318554Y-17800471D01*
X2328782Y-17778847D01*
X2341079Y-17758330D01*
X2355329Y-17739117D01*
X2371393Y-17721393D01*
X2389117Y-17705329D01*
X2408330Y-17691079D01*
X2428847Y-17678782D01*
X2450471Y-17668554D01*
X2472993Y-17660496D01*
X2496197Y-17654684D01*
X2519858Y-17651174D01*
X2543750Y-17650000D01*
X3456250Y-17650000D01*
X3480142Y-17651174D01*
X3480142Y-17651174D01*
G37*
D11*
X3000000Y-18137500D03*
D10*
G36*
X3480142Y-15776174D02*
G01*
X3503803Y-15779684D01*
X3527007Y-15785496D01*
X3549529Y-15793554D01*
X3571153Y-15803782D01*
X3591670Y-15816079D01*
X3610883Y-15830329D01*
X3628607Y-15846393D01*
X3644671Y-15864117D01*
X3658921Y-15883330D01*
X3671218Y-15903847D01*
X3681446Y-15925471D01*
X3689504Y-15947993D01*
X3695316Y-15971197D01*
X3698826Y-15994858D01*
X3700000Y-16018750D01*
X3700000Y-16506250D01*
X3698826Y-16530142D01*
X3695316Y-16553803D01*
X3689504Y-16577007D01*
X3681446Y-16599529D01*
X3671218Y-16621153D01*
X3658921Y-16641670D01*
X3644671Y-16660883D01*
X3628607Y-16678607D01*
X3610883Y-16694671D01*
X3591670Y-16708921D01*
X3571153Y-16721218D01*
X3549529Y-16731446D01*
X3527007Y-16739504D01*
X3503803Y-16745316D01*
X3480142Y-16748826D01*
X3456250Y-16750000D01*
X2543750Y-16750000D01*
X2519858Y-16748826D01*
X2496197Y-16745316D01*
X2472993Y-16739504D01*
X2450471Y-16731446D01*
X2428847Y-16721218D01*
X2408330Y-16708921D01*
X2389117Y-16694671D01*
X2371393Y-16678607D01*
X2355329Y-16660883D01*
X2341079Y-16641670D01*
X2328782Y-16621153D01*
X2318554Y-16599529D01*
X2310496Y-16577007D01*
X2304684Y-16553803D01*
X2301174Y-16530142D01*
X2300000Y-16506250D01*
X2300000Y-16018750D01*
X2301174Y-15994858D01*
X2304684Y-15971197D01*
X2310496Y-15947993D01*
X2318554Y-15925471D01*
X2328782Y-15903847D01*
X2341079Y-15883330D01*
X2355329Y-15864117D01*
X2371393Y-15846393D01*
X2389117Y-15830329D01*
X2408330Y-15816079D01*
X2428847Y-15803782D01*
X2450471Y-15793554D01*
X2472993Y-15785496D01*
X2496197Y-15779684D01*
X2519858Y-15776174D01*
X2543750Y-15775000D01*
X3456250Y-15775000D01*
X3480142Y-15776174D01*
X3480142Y-15776174D01*
G37*
D11*
X3000000Y-16262500D03*
D10*
G36*
X29605142Y5298826D02*
G01*
X29628803Y5295316D01*
X29652007Y5289504D01*
X29674529Y5281446D01*
X29696153Y5271218D01*
X29716670Y5258921D01*
X29735883Y5244671D01*
X29753607Y5228607D01*
X29769671Y5210883D01*
X29783921Y5191670D01*
X29796218Y5171153D01*
X29806446Y5149529D01*
X29814504Y5127007D01*
X29820316Y5103803D01*
X29823826Y5080142D01*
X29825000Y5056250D01*
X29825000Y4143750D01*
X29823826Y4119858D01*
X29820316Y4096197D01*
X29814504Y4072993D01*
X29806446Y4050471D01*
X29796218Y4028847D01*
X29783921Y4008330D01*
X29769671Y3989117D01*
X29753607Y3971393D01*
X29735883Y3955329D01*
X29716670Y3941079D01*
X29696153Y3928782D01*
X29674529Y3918554D01*
X29652007Y3910496D01*
X29628803Y3904684D01*
X29605142Y3901174D01*
X29581250Y3900000D01*
X29093750Y3900000D01*
X29069858Y3901174D01*
X29046197Y3904684D01*
X29022993Y3910496D01*
X29000471Y3918554D01*
X28978847Y3928782D01*
X28958330Y3941079D01*
X28939117Y3955329D01*
X28921393Y3971393D01*
X28905329Y3989117D01*
X28891079Y4008330D01*
X28878782Y4028847D01*
X28868554Y4050471D01*
X28860496Y4072993D01*
X28854684Y4096197D01*
X28851174Y4119858D01*
X28850000Y4143750D01*
X28850000Y5056250D01*
X28851174Y5080142D01*
X28854684Y5103803D01*
X28860496Y5127007D01*
X28868554Y5149529D01*
X28878782Y5171153D01*
X28891079Y5191670D01*
X28905329Y5210883D01*
X28921393Y5228607D01*
X28939117Y5244671D01*
X28958330Y5258921D01*
X28978847Y5271218D01*
X29000471Y5281446D01*
X29022993Y5289504D01*
X29046197Y5295316D01*
X29069858Y5298826D01*
X29093750Y5300000D01*
X29581250Y5300000D01*
X29605142Y5298826D01*
X29605142Y5298826D01*
G37*
D11*
X29337500Y4600000D03*
D10*
G36*
X27730142Y5298826D02*
G01*
X27753803Y5295316D01*
X27777007Y5289504D01*
X27799529Y5281446D01*
X27821153Y5271218D01*
X27841670Y5258921D01*
X27860883Y5244671D01*
X27878607Y5228607D01*
X27894671Y5210883D01*
X27908921Y5191670D01*
X27921218Y5171153D01*
X27931446Y5149529D01*
X27939504Y5127007D01*
X27945316Y5103803D01*
X27948826Y5080142D01*
X27950000Y5056250D01*
X27950000Y4143750D01*
X27948826Y4119858D01*
X27945316Y4096197D01*
X27939504Y4072993D01*
X27931446Y4050471D01*
X27921218Y4028847D01*
X27908921Y4008330D01*
X27894671Y3989117D01*
X27878607Y3971393D01*
X27860883Y3955329D01*
X27841670Y3941079D01*
X27821153Y3928782D01*
X27799529Y3918554D01*
X27777007Y3910496D01*
X27753803Y3904684D01*
X27730142Y3901174D01*
X27706250Y3900000D01*
X27218750Y3900000D01*
X27194858Y3901174D01*
X27171197Y3904684D01*
X27147993Y3910496D01*
X27125471Y3918554D01*
X27103847Y3928782D01*
X27083330Y3941079D01*
X27064117Y3955329D01*
X27046393Y3971393D01*
X27030329Y3989117D01*
X27016079Y4008330D01*
X27003782Y4028847D01*
X26993554Y4050471D01*
X26985496Y4072993D01*
X26979684Y4096197D01*
X26976174Y4119858D01*
X26975000Y4143750D01*
X26975000Y5056250D01*
X26976174Y5080142D01*
X26979684Y5103803D01*
X26985496Y5127007D01*
X26993554Y5149529D01*
X27003782Y5171153D01*
X27016079Y5191670D01*
X27030329Y5210883D01*
X27046393Y5228607D01*
X27064117Y5244671D01*
X27083330Y5258921D01*
X27103847Y5271218D01*
X27125471Y5281446D01*
X27147993Y5289504D01*
X27171197Y5295316D01*
X27194858Y5298826D01*
X27218750Y5300000D01*
X27706250Y5300000D01*
X27730142Y5298826D01*
X27730142Y5298826D01*
G37*
D11*
X27462500Y4600000D03*
D10*
G36*
X29605142Y3198826D02*
G01*
X29628803Y3195316D01*
X29652007Y3189504D01*
X29674529Y3181446D01*
X29696153Y3171218D01*
X29716670Y3158921D01*
X29735883Y3144671D01*
X29753607Y3128607D01*
X29769671Y3110883D01*
X29783921Y3091670D01*
X29796218Y3071153D01*
X29806446Y3049529D01*
X29814504Y3027007D01*
X29820316Y3003803D01*
X29823826Y2980142D01*
X29825000Y2956250D01*
X29825000Y2043750D01*
X29823826Y2019858D01*
X29820316Y1996197D01*
X29814504Y1972993D01*
X29806446Y1950471D01*
X29796218Y1928847D01*
X29783921Y1908330D01*
X29769671Y1889117D01*
X29753607Y1871393D01*
X29735883Y1855329D01*
X29716670Y1841079D01*
X29696153Y1828782D01*
X29674529Y1818554D01*
X29652007Y1810496D01*
X29628803Y1804684D01*
X29605142Y1801174D01*
X29581250Y1800000D01*
X29093750Y1800000D01*
X29069858Y1801174D01*
X29046197Y1804684D01*
X29022993Y1810496D01*
X29000471Y1818554D01*
X28978847Y1828782D01*
X28958330Y1841079D01*
X28939117Y1855329D01*
X28921393Y1871393D01*
X28905329Y1889117D01*
X28891079Y1908330D01*
X28878782Y1928847D01*
X28868554Y1950471D01*
X28860496Y1972993D01*
X28854684Y1996197D01*
X28851174Y2019858D01*
X28850000Y2043750D01*
X28850000Y2956250D01*
X28851174Y2980142D01*
X28854684Y3003803D01*
X28860496Y3027007D01*
X28868554Y3049529D01*
X28878782Y3071153D01*
X28891079Y3091670D01*
X28905329Y3110883D01*
X28921393Y3128607D01*
X28939117Y3144671D01*
X28958330Y3158921D01*
X28978847Y3171218D01*
X29000471Y3181446D01*
X29022993Y3189504D01*
X29046197Y3195316D01*
X29069858Y3198826D01*
X29093750Y3200000D01*
X29581250Y3200000D01*
X29605142Y3198826D01*
X29605142Y3198826D01*
G37*
D11*
X29337500Y2500000D03*
D10*
G36*
X27730142Y3198826D02*
G01*
X27753803Y3195316D01*
X27777007Y3189504D01*
X27799529Y3181446D01*
X27821153Y3171218D01*
X27841670Y3158921D01*
X27860883Y3144671D01*
X27878607Y3128607D01*
X27894671Y3110883D01*
X27908921Y3091670D01*
X27921218Y3071153D01*
X27931446Y3049529D01*
X27939504Y3027007D01*
X27945316Y3003803D01*
X27948826Y2980142D01*
X27950000Y2956250D01*
X27950000Y2043750D01*
X27948826Y2019858D01*
X27945316Y1996197D01*
X27939504Y1972993D01*
X27931446Y1950471D01*
X27921218Y1928847D01*
X27908921Y1908330D01*
X27894671Y1889117D01*
X27878607Y1871393D01*
X27860883Y1855329D01*
X27841670Y1841079D01*
X27821153Y1828782D01*
X27799529Y1818554D01*
X27777007Y1810496D01*
X27753803Y1804684D01*
X27730142Y1801174D01*
X27706250Y1800000D01*
X27218750Y1800000D01*
X27194858Y1801174D01*
X27171197Y1804684D01*
X27147993Y1810496D01*
X27125471Y1818554D01*
X27103847Y1828782D01*
X27083330Y1841079D01*
X27064117Y1855329D01*
X27046393Y1871393D01*
X27030329Y1889117D01*
X27016079Y1908330D01*
X27003782Y1928847D01*
X26993554Y1950471D01*
X26985496Y1972993D01*
X26979684Y1996197D01*
X26976174Y2019858D01*
X26975000Y2043750D01*
X26975000Y2956250D01*
X26976174Y2980142D01*
X26979684Y3003803D01*
X26985496Y3027007D01*
X26993554Y3049529D01*
X27003782Y3071153D01*
X27016079Y3091670D01*
X27030329Y3110883D01*
X27046393Y3128607D01*
X27064117Y3144671D01*
X27083330Y3158921D01*
X27103847Y3171218D01*
X27125471Y3181446D01*
X27147993Y3189504D01*
X27171197Y3195316D01*
X27194858Y3198826D01*
X27218750Y3200000D01*
X27706250Y3200000D01*
X27730142Y3198826D01*
X27730142Y3198826D01*
G37*
D11*
X27462500Y2500000D03*
D10*
G36*
X3480142Y-14151174D02*
G01*
X3503803Y-14154684D01*
X3527007Y-14160496D01*
X3549529Y-14168554D01*
X3571153Y-14178782D01*
X3591670Y-14191079D01*
X3610883Y-14205329D01*
X3628607Y-14221393D01*
X3644671Y-14239117D01*
X3658921Y-14258330D01*
X3671218Y-14278847D01*
X3681446Y-14300471D01*
X3689504Y-14322993D01*
X3695316Y-14346197D01*
X3698826Y-14369858D01*
X3700000Y-14393750D01*
X3700000Y-14881250D01*
X3698826Y-14905142D01*
X3695316Y-14928803D01*
X3689504Y-14952007D01*
X3681446Y-14974529D01*
X3671218Y-14996153D01*
X3658921Y-15016670D01*
X3644671Y-15035883D01*
X3628607Y-15053607D01*
X3610883Y-15069671D01*
X3591670Y-15083921D01*
X3571153Y-15096218D01*
X3549529Y-15106446D01*
X3527007Y-15114504D01*
X3503803Y-15120316D01*
X3480142Y-15123826D01*
X3456250Y-15125000D01*
X2543750Y-15125000D01*
X2519858Y-15123826D01*
X2496197Y-15120316D01*
X2472993Y-15114504D01*
X2450471Y-15106446D01*
X2428847Y-15096218D01*
X2408330Y-15083921D01*
X2389117Y-15069671D01*
X2371393Y-15053607D01*
X2355329Y-15035883D01*
X2341079Y-15016670D01*
X2328782Y-14996153D01*
X2318554Y-14974529D01*
X2310496Y-14952007D01*
X2304684Y-14928803D01*
X2301174Y-14905142D01*
X2300000Y-14881250D01*
X2300000Y-14393750D01*
X2301174Y-14369858D01*
X2304684Y-14346197D01*
X2310496Y-14322993D01*
X2318554Y-14300471D01*
X2328782Y-14278847D01*
X2341079Y-14258330D01*
X2355329Y-14239117D01*
X2371393Y-14221393D01*
X2389117Y-14205329D01*
X2408330Y-14191079D01*
X2428847Y-14178782D01*
X2450471Y-14168554D01*
X2472993Y-14160496D01*
X2496197Y-14154684D01*
X2519858Y-14151174D01*
X2543750Y-14150000D01*
X3456250Y-14150000D01*
X3480142Y-14151174D01*
X3480142Y-14151174D01*
G37*
D11*
X3000000Y-14637500D03*
D10*
G36*
X3480142Y-12276174D02*
G01*
X3503803Y-12279684D01*
X3527007Y-12285496D01*
X3549529Y-12293554D01*
X3571153Y-12303782D01*
X3591670Y-12316079D01*
X3610883Y-12330329D01*
X3628607Y-12346393D01*
X3644671Y-12364117D01*
X3658921Y-12383330D01*
X3671218Y-12403847D01*
X3681446Y-12425471D01*
X3689504Y-12447993D01*
X3695316Y-12471197D01*
X3698826Y-12494858D01*
X3700000Y-12518750D01*
X3700000Y-13006250D01*
X3698826Y-13030142D01*
X3695316Y-13053803D01*
X3689504Y-13077007D01*
X3681446Y-13099529D01*
X3671218Y-13121153D01*
X3658921Y-13141670D01*
X3644671Y-13160883D01*
X3628607Y-13178607D01*
X3610883Y-13194671D01*
X3591670Y-13208921D01*
X3571153Y-13221218D01*
X3549529Y-13231446D01*
X3527007Y-13239504D01*
X3503803Y-13245316D01*
X3480142Y-13248826D01*
X3456250Y-13250000D01*
X2543750Y-13250000D01*
X2519858Y-13248826D01*
X2496197Y-13245316D01*
X2472993Y-13239504D01*
X2450471Y-13231446D01*
X2428847Y-13221218D01*
X2408330Y-13208921D01*
X2389117Y-13194671D01*
X2371393Y-13178607D01*
X2355329Y-13160883D01*
X2341079Y-13141670D01*
X2328782Y-13121153D01*
X2318554Y-13099529D01*
X2310496Y-13077007D01*
X2304684Y-13053803D01*
X2301174Y-13030142D01*
X2300000Y-13006250D01*
X2300000Y-12518750D01*
X2301174Y-12494858D01*
X2304684Y-12471197D01*
X2310496Y-12447993D01*
X2318554Y-12425471D01*
X2328782Y-12403847D01*
X2341079Y-12383330D01*
X2355329Y-12364117D01*
X2371393Y-12346393D01*
X2389117Y-12330329D01*
X2408330Y-12316079D01*
X2428847Y-12303782D01*
X2450471Y-12293554D01*
X2472993Y-12285496D01*
X2496197Y-12279684D01*
X2519858Y-12276174D01*
X2543750Y-12275000D01*
X3456250Y-12275000D01*
X3480142Y-12276174D01*
X3480142Y-12276174D01*
G37*
D11*
X3000000Y-12762500D03*
D10*
G36*
X7780142Y-15776174D02*
G01*
X7803803Y-15779684D01*
X7827007Y-15785496D01*
X7849529Y-15793554D01*
X7871153Y-15803782D01*
X7891670Y-15816079D01*
X7910883Y-15830329D01*
X7928607Y-15846393D01*
X7944671Y-15864117D01*
X7958921Y-15883330D01*
X7971218Y-15903847D01*
X7981446Y-15925471D01*
X7989504Y-15947993D01*
X7995316Y-15971197D01*
X7998826Y-15994858D01*
X8000000Y-16018750D01*
X8000000Y-16506250D01*
X7998826Y-16530142D01*
X7995316Y-16553803D01*
X7989504Y-16577007D01*
X7981446Y-16599529D01*
X7971218Y-16621153D01*
X7958921Y-16641670D01*
X7944671Y-16660883D01*
X7928607Y-16678607D01*
X7910883Y-16694671D01*
X7891670Y-16708921D01*
X7871153Y-16721218D01*
X7849529Y-16731446D01*
X7827007Y-16739504D01*
X7803803Y-16745316D01*
X7780142Y-16748826D01*
X7756250Y-16750000D01*
X6843750Y-16750000D01*
X6819858Y-16748826D01*
X6796197Y-16745316D01*
X6772993Y-16739504D01*
X6750471Y-16731446D01*
X6728847Y-16721218D01*
X6708330Y-16708921D01*
X6689117Y-16694671D01*
X6671393Y-16678607D01*
X6655329Y-16660883D01*
X6641079Y-16641670D01*
X6628782Y-16621153D01*
X6618554Y-16599529D01*
X6610496Y-16577007D01*
X6604684Y-16553803D01*
X6601174Y-16530142D01*
X6600000Y-16506250D01*
X6600000Y-16018750D01*
X6601174Y-15994858D01*
X6604684Y-15971197D01*
X6610496Y-15947993D01*
X6618554Y-15925471D01*
X6628782Y-15903847D01*
X6641079Y-15883330D01*
X6655329Y-15864117D01*
X6671393Y-15846393D01*
X6689117Y-15830329D01*
X6708330Y-15816079D01*
X6728847Y-15803782D01*
X6750471Y-15793554D01*
X6772993Y-15785496D01*
X6796197Y-15779684D01*
X6819858Y-15776174D01*
X6843750Y-15775000D01*
X7756250Y-15775000D01*
X7780142Y-15776174D01*
X7780142Y-15776174D01*
G37*
D11*
X7300000Y-16262500D03*
D10*
G36*
X7780142Y-17651174D02*
G01*
X7803803Y-17654684D01*
X7827007Y-17660496D01*
X7849529Y-17668554D01*
X7871153Y-17678782D01*
X7891670Y-17691079D01*
X7910883Y-17705329D01*
X7928607Y-17721393D01*
X7944671Y-17739117D01*
X7958921Y-17758330D01*
X7971218Y-17778847D01*
X7981446Y-17800471D01*
X7989504Y-17822993D01*
X7995316Y-17846197D01*
X7998826Y-17869858D01*
X8000000Y-17893750D01*
X8000000Y-18381250D01*
X7998826Y-18405142D01*
X7995316Y-18428803D01*
X7989504Y-18452007D01*
X7981446Y-18474529D01*
X7971218Y-18496153D01*
X7958921Y-18516670D01*
X7944671Y-18535883D01*
X7928607Y-18553607D01*
X7910883Y-18569671D01*
X7891670Y-18583921D01*
X7871153Y-18596218D01*
X7849529Y-18606446D01*
X7827007Y-18614504D01*
X7803803Y-18620316D01*
X7780142Y-18623826D01*
X7756250Y-18625000D01*
X6843750Y-18625000D01*
X6819858Y-18623826D01*
X6796197Y-18620316D01*
X6772993Y-18614504D01*
X6750471Y-18606446D01*
X6728847Y-18596218D01*
X6708330Y-18583921D01*
X6689117Y-18569671D01*
X6671393Y-18553607D01*
X6655329Y-18535883D01*
X6641079Y-18516670D01*
X6628782Y-18496153D01*
X6618554Y-18474529D01*
X6610496Y-18452007D01*
X6604684Y-18428803D01*
X6601174Y-18405142D01*
X6600000Y-18381250D01*
X6600000Y-17893750D01*
X6601174Y-17869858D01*
X6604684Y-17846197D01*
X6610496Y-17822993D01*
X6618554Y-17800471D01*
X6628782Y-17778847D01*
X6641079Y-17758330D01*
X6655329Y-17739117D01*
X6671393Y-17721393D01*
X6689117Y-17705329D01*
X6708330Y-17691079D01*
X6728847Y-17678782D01*
X6750471Y-17668554D01*
X6772993Y-17660496D01*
X6796197Y-17654684D01*
X6819858Y-17651174D01*
X6843750Y-17650000D01*
X7756250Y-17650000D01*
X7780142Y-17651174D01*
X7780142Y-17651174D01*
G37*
D11*
X7300000Y-18137500D03*
D10*
G36*
X9880142Y-17651174D02*
G01*
X9903803Y-17654684D01*
X9927007Y-17660496D01*
X9949529Y-17668554D01*
X9971153Y-17678782D01*
X9991670Y-17691079D01*
X10010883Y-17705329D01*
X10028607Y-17721393D01*
X10044671Y-17739117D01*
X10058921Y-17758330D01*
X10071218Y-17778847D01*
X10081446Y-17800471D01*
X10089504Y-17822993D01*
X10095316Y-17846197D01*
X10098826Y-17869858D01*
X10100000Y-17893750D01*
X10100000Y-18381250D01*
X10098826Y-18405142D01*
X10095316Y-18428803D01*
X10089504Y-18452007D01*
X10081446Y-18474529D01*
X10071218Y-18496153D01*
X10058921Y-18516670D01*
X10044671Y-18535883D01*
X10028607Y-18553607D01*
X10010883Y-18569671D01*
X9991670Y-18583921D01*
X9971153Y-18596218D01*
X9949529Y-18606446D01*
X9927007Y-18614504D01*
X9903803Y-18620316D01*
X9880142Y-18623826D01*
X9856250Y-18625000D01*
X8943750Y-18625000D01*
X8919858Y-18623826D01*
X8896197Y-18620316D01*
X8872993Y-18614504D01*
X8850471Y-18606446D01*
X8828847Y-18596218D01*
X8808330Y-18583921D01*
X8789117Y-18569671D01*
X8771393Y-18553607D01*
X8755329Y-18535883D01*
X8741079Y-18516670D01*
X8728782Y-18496153D01*
X8718554Y-18474529D01*
X8710496Y-18452007D01*
X8704684Y-18428803D01*
X8701174Y-18405142D01*
X8700000Y-18381250D01*
X8700000Y-17893750D01*
X8701174Y-17869858D01*
X8704684Y-17846197D01*
X8710496Y-17822993D01*
X8718554Y-17800471D01*
X8728782Y-17778847D01*
X8741079Y-17758330D01*
X8755329Y-17739117D01*
X8771393Y-17721393D01*
X8789117Y-17705329D01*
X8808330Y-17691079D01*
X8828847Y-17678782D01*
X8850471Y-17668554D01*
X8872993Y-17660496D01*
X8896197Y-17654684D01*
X8919858Y-17651174D01*
X8943750Y-17650000D01*
X9856250Y-17650000D01*
X9880142Y-17651174D01*
X9880142Y-17651174D01*
G37*
D11*
X9400000Y-18137500D03*
D10*
G36*
X9880142Y-15776174D02*
G01*
X9903803Y-15779684D01*
X9927007Y-15785496D01*
X9949529Y-15793554D01*
X9971153Y-15803782D01*
X9991670Y-15816079D01*
X10010883Y-15830329D01*
X10028607Y-15846393D01*
X10044671Y-15864117D01*
X10058921Y-15883330D01*
X10071218Y-15903847D01*
X10081446Y-15925471D01*
X10089504Y-15947993D01*
X10095316Y-15971197D01*
X10098826Y-15994858D01*
X10100000Y-16018750D01*
X10100000Y-16506250D01*
X10098826Y-16530142D01*
X10095316Y-16553803D01*
X10089504Y-16577007D01*
X10081446Y-16599529D01*
X10071218Y-16621153D01*
X10058921Y-16641670D01*
X10044671Y-16660883D01*
X10028607Y-16678607D01*
X10010883Y-16694671D01*
X9991670Y-16708921D01*
X9971153Y-16721218D01*
X9949529Y-16731446D01*
X9927007Y-16739504D01*
X9903803Y-16745316D01*
X9880142Y-16748826D01*
X9856250Y-16750000D01*
X8943750Y-16750000D01*
X8919858Y-16748826D01*
X8896197Y-16745316D01*
X8872993Y-16739504D01*
X8850471Y-16731446D01*
X8828847Y-16721218D01*
X8808330Y-16708921D01*
X8789117Y-16694671D01*
X8771393Y-16678607D01*
X8755329Y-16660883D01*
X8741079Y-16641670D01*
X8728782Y-16621153D01*
X8718554Y-16599529D01*
X8710496Y-16577007D01*
X8704684Y-16553803D01*
X8701174Y-16530142D01*
X8700000Y-16506250D01*
X8700000Y-16018750D01*
X8701174Y-15994858D01*
X8704684Y-15971197D01*
X8710496Y-15947993D01*
X8718554Y-15925471D01*
X8728782Y-15903847D01*
X8741079Y-15883330D01*
X8755329Y-15864117D01*
X8771393Y-15846393D01*
X8789117Y-15830329D01*
X8808330Y-15816079D01*
X8828847Y-15803782D01*
X8850471Y-15793554D01*
X8872993Y-15785496D01*
X8896197Y-15779684D01*
X8919858Y-15776174D01*
X8943750Y-15775000D01*
X9856250Y-15775000D01*
X9880142Y-15776174D01*
X9880142Y-15776174D01*
G37*
D11*
X9400000Y-16262500D03*
D10*
G36*
X1380142Y-15776174D02*
G01*
X1403803Y-15779684D01*
X1427007Y-15785496D01*
X1449529Y-15793554D01*
X1471153Y-15803782D01*
X1491670Y-15816079D01*
X1510883Y-15830329D01*
X1528607Y-15846393D01*
X1544671Y-15864117D01*
X1558921Y-15883330D01*
X1571218Y-15903847D01*
X1581446Y-15925471D01*
X1589504Y-15947993D01*
X1595316Y-15971197D01*
X1598826Y-15994858D01*
X1600000Y-16018750D01*
X1600000Y-16506250D01*
X1598826Y-16530142D01*
X1595316Y-16553803D01*
X1589504Y-16577007D01*
X1581446Y-16599529D01*
X1571218Y-16621153D01*
X1558921Y-16641670D01*
X1544671Y-16660883D01*
X1528607Y-16678607D01*
X1510883Y-16694671D01*
X1491670Y-16708921D01*
X1471153Y-16721218D01*
X1449529Y-16731446D01*
X1427007Y-16739504D01*
X1403803Y-16745316D01*
X1380142Y-16748826D01*
X1356250Y-16750000D01*
X443750Y-16750000D01*
X419858Y-16748826D01*
X396197Y-16745316D01*
X372993Y-16739504D01*
X350471Y-16731446D01*
X328847Y-16721218D01*
X308330Y-16708921D01*
X289117Y-16694671D01*
X271393Y-16678607D01*
X255329Y-16660883D01*
X241079Y-16641670D01*
X228782Y-16621153D01*
X218554Y-16599529D01*
X210496Y-16577007D01*
X204684Y-16553803D01*
X201174Y-16530142D01*
X200000Y-16506250D01*
X200000Y-16018750D01*
X201174Y-15994858D01*
X204684Y-15971197D01*
X210496Y-15947993D01*
X218554Y-15925471D01*
X228782Y-15903847D01*
X241079Y-15883330D01*
X255329Y-15864117D01*
X271393Y-15846393D01*
X289117Y-15830329D01*
X308330Y-15816079D01*
X328847Y-15803782D01*
X350471Y-15793554D01*
X372993Y-15785496D01*
X396197Y-15779684D01*
X419858Y-15776174D01*
X443750Y-15775000D01*
X1356250Y-15775000D01*
X1380142Y-15776174D01*
X1380142Y-15776174D01*
G37*
D11*
X900000Y-16262500D03*
D10*
G36*
X1380142Y-17651174D02*
G01*
X1403803Y-17654684D01*
X1427007Y-17660496D01*
X1449529Y-17668554D01*
X1471153Y-17678782D01*
X1491670Y-17691079D01*
X1510883Y-17705329D01*
X1528607Y-17721393D01*
X1544671Y-17739117D01*
X1558921Y-17758330D01*
X1571218Y-17778847D01*
X1581446Y-17800471D01*
X1589504Y-17822993D01*
X1595316Y-17846197D01*
X1598826Y-17869858D01*
X1600000Y-17893750D01*
X1600000Y-18381250D01*
X1598826Y-18405142D01*
X1595316Y-18428803D01*
X1589504Y-18452007D01*
X1581446Y-18474529D01*
X1571218Y-18496153D01*
X1558921Y-18516670D01*
X1544671Y-18535883D01*
X1528607Y-18553607D01*
X1510883Y-18569671D01*
X1491670Y-18583921D01*
X1471153Y-18596218D01*
X1449529Y-18606446D01*
X1427007Y-18614504D01*
X1403803Y-18620316D01*
X1380142Y-18623826D01*
X1356250Y-18625000D01*
X443750Y-18625000D01*
X419858Y-18623826D01*
X396197Y-18620316D01*
X372993Y-18614504D01*
X350471Y-18606446D01*
X328847Y-18596218D01*
X308330Y-18583921D01*
X289117Y-18569671D01*
X271393Y-18553607D01*
X255329Y-18535883D01*
X241079Y-18516670D01*
X228782Y-18496153D01*
X218554Y-18474529D01*
X210496Y-18452007D01*
X204684Y-18428803D01*
X201174Y-18405142D01*
X200000Y-18381250D01*
X200000Y-17893750D01*
X201174Y-17869858D01*
X204684Y-17846197D01*
X210496Y-17822993D01*
X218554Y-17800471D01*
X228782Y-17778847D01*
X241079Y-17758330D01*
X255329Y-17739117D01*
X271393Y-17721393D01*
X289117Y-17705329D01*
X308330Y-17691079D01*
X328847Y-17678782D01*
X350471Y-17668554D01*
X372993Y-17660496D01*
X396197Y-17654684D01*
X419858Y-17651174D01*
X443750Y-17650000D01*
X1356250Y-17650000D01*
X1380142Y-17651174D01*
X1380142Y-17651174D01*
G37*
D11*
X900000Y-18137500D03*
D10*
G36*
X-719858Y-17651174D02*
G01*
X-696197Y-17654684D01*
X-672993Y-17660496D01*
X-650471Y-17668554D01*
X-628847Y-17678782D01*
X-608330Y-17691079D01*
X-589117Y-17705329D01*
X-571393Y-17721393D01*
X-555329Y-17739117D01*
X-541079Y-17758330D01*
X-528782Y-17778847D01*
X-518554Y-17800471D01*
X-510496Y-17822993D01*
X-504684Y-17846197D01*
X-501174Y-17869858D01*
X-500000Y-17893750D01*
X-500000Y-18381250D01*
X-501174Y-18405142D01*
X-504684Y-18428803D01*
X-510496Y-18452007D01*
X-518554Y-18474529D01*
X-528782Y-18496153D01*
X-541079Y-18516670D01*
X-555329Y-18535883D01*
X-571393Y-18553607D01*
X-589117Y-18569671D01*
X-608330Y-18583921D01*
X-628847Y-18596218D01*
X-650471Y-18606446D01*
X-672993Y-18614504D01*
X-696197Y-18620316D01*
X-719858Y-18623826D01*
X-743750Y-18625000D01*
X-1656250Y-18625000D01*
X-1680142Y-18623826D01*
X-1703803Y-18620316D01*
X-1727007Y-18614504D01*
X-1749529Y-18606446D01*
X-1771153Y-18596218D01*
X-1791670Y-18583921D01*
X-1810883Y-18569671D01*
X-1828607Y-18553607D01*
X-1844671Y-18535883D01*
X-1858921Y-18516670D01*
X-1871218Y-18496153D01*
X-1881446Y-18474529D01*
X-1889504Y-18452007D01*
X-1895316Y-18428803D01*
X-1898826Y-18405142D01*
X-1900000Y-18381250D01*
X-1900000Y-17893750D01*
X-1898826Y-17869858D01*
X-1895316Y-17846197D01*
X-1889504Y-17822993D01*
X-1881446Y-17800471D01*
X-1871218Y-17778847D01*
X-1858921Y-17758330D01*
X-1844671Y-17739117D01*
X-1828607Y-17721393D01*
X-1810883Y-17705329D01*
X-1791670Y-17691079D01*
X-1771153Y-17678782D01*
X-1749529Y-17668554D01*
X-1727007Y-17660496D01*
X-1703803Y-17654684D01*
X-1680142Y-17651174D01*
X-1656250Y-17650000D01*
X-743750Y-17650000D01*
X-719858Y-17651174D01*
X-719858Y-17651174D01*
G37*
D11*
X-1200000Y-18137500D03*
D10*
G36*
X-719858Y-15776174D02*
G01*
X-696197Y-15779684D01*
X-672993Y-15785496D01*
X-650471Y-15793554D01*
X-628847Y-15803782D01*
X-608330Y-15816079D01*
X-589117Y-15830329D01*
X-571393Y-15846393D01*
X-555329Y-15864117D01*
X-541079Y-15883330D01*
X-528782Y-15903847D01*
X-518554Y-15925471D01*
X-510496Y-15947993D01*
X-504684Y-15971197D01*
X-501174Y-15994858D01*
X-500000Y-16018750D01*
X-500000Y-16506250D01*
X-501174Y-16530142D01*
X-504684Y-16553803D01*
X-510496Y-16577007D01*
X-518554Y-16599529D01*
X-528782Y-16621153D01*
X-541079Y-16641670D01*
X-555329Y-16660883D01*
X-571393Y-16678607D01*
X-589117Y-16694671D01*
X-608330Y-16708921D01*
X-628847Y-16721218D01*
X-650471Y-16731446D01*
X-672993Y-16739504D01*
X-696197Y-16745316D01*
X-719858Y-16748826D01*
X-743750Y-16750000D01*
X-1656250Y-16750000D01*
X-1680142Y-16748826D01*
X-1703803Y-16745316D01*
X-1727007Y-16739504D01*
X-1749529Y-16731446D01*
X-1771153Y-16721218D01*
X-1791670Y-16708921D01*
X-1810883Y-16694671D01*
X-1828607Y-16678607D01*
X-1844671Y-16660883D01*
X-1858921Y-16641670D01*
X-1871218Y-16621153D01*
X-1881446Y-16599529D01*
X-1889504Y-16577007D01*
X-1895316Y-16553803D01*
X-1898826Y-16530142D01*
X-1900000Y-16506250D01*
X-1900000Y-16018750D01*
X-1898826Y-15994858D01*
X-1895316Y-15971197D01*
X-1889504Y-15947993D01*
X-1881446Y-15925471D01*
X-1871218Y-15903847D01*
X-1858921Y-15883330D01*
X-1844671Y-15864117D01*
X-1828607Y-15846393D01*
X-1810883Y-15830329D01*
X-1791670Y-15816079D01*
X-1771153Y-15803782D01*
X-1749529Y-15793554D01*
X-1727007Y-15785496D01*
X-1703803Y-15779684D01*
X-1680142Y-15776174D01*
X-1656250Y-15775000D01*
X-743750Y-15775000D01*
X-719858Y-15776174D01*
X-719858Y-15776174D01*
G37*
D11*
X-1200000Y-16262500D03*
D10*
G36*
X-2819858Y-17651174D02*
G01*
X-2796197Y-17654684D01*
X-2772993Y-17660496D01*
X-2750471Y-17668554D01*
X-2728847Y-17678782D01*
X-2708330Y-17691079D01*
X-2689117Y-17705329D01*
X-2671393Y-17721393D01*
X-2655329Y-17739117D01*
X-2641079Y-17758330D01*
X-2628782Y-17778847D01*
X-2618554Y-17800471D01*
X-2610496Y-17822993D01*
X-2604684Y-17846197D01*
X-2601174Y-17869858D01*
X-2600000Y-17893750D01*
X-2600000Y-18381250D01*
X-2601174Y-18405142D01*
X-2604684Y-18428803D01*
X-2610496Y-18452007D01*
X-2618554Y-18474529D01*
X-2628782Y-18496153D01*
X-2641079Y-18516670D01*
X-2655329Y-18535883D01*
X-2671393Y-18553607D01*
X-2689117Y-18569671D01*
X-2708330Y-18583921D01*
X-2728847Y-18596218D01*
X-2750471Y-18606446D01*
X-2772993Y-18614504D01*
X-2796197Y-18620316D01*
X-2819858Y-18623826D01*
X-2843750Y-18625000D01*
X-3756250Y-18625000D01*
X-3780142Y-18623826D01*
X-3803803Y-18620316D01*
X-3827007Y-18614504D01*
X-3849529Y-18606446D01*
X-3871153Y-18596218D01*
X-3891670Y-18583921D01*
X-3910883Y-18569671D01*
X-3928607Y-18553607D01*
X-3944671Y-18535883D01*
X-3958921Y-18516670D01*
X-3971218Y-18496153D01*
X-3981446Y-18474529D01*
X-3989504Y-18452007D01*
X-3995316Y-18428803D01*
X-3998826Y-18405142D01*
X-4000000Y-18381250D01*
X-4000000Y-17893750D01*
X-3998826Y-17869858D01*
X-3995316Y-17846197D01*
X-3989504Y-17822993D01*
X-3981446Y-17800471D01*
X-3971218Y-17778847D01*
X-3958921Y-17758330D01*
X-3944671Y-17739117D01*
X-3928607Y-17721393D01*
X-3910883Y-17705329D01*
X-3891670Y-17691079D01*
X-3871153Y-17678782D01*
X-3849529Y-17668554D01*
X-3827007Y-17660496D01*
X-3803803Y-17654684D01*
X-3780142Y-17651174D01*
X-3756250Y-17650000D01*
X-2843750Y-17650000D01*
X-2819858Y-17651174D01*
X-2819858Y-17651174D01*
G37*
D11*
X-3300000Y-18137500D03*
D10*
G36*
X-2819858Y-15776174D02*
G01*
X-2796197Y-15779684D01*
X-2772993Y-15785496D01*
X-2750471Y-15793554D01*
X-2728847Y-15803782D01*
X-2708330Y-15816079D01*
X-2689117Y-15830329D01*
X-2671393Y-15846393D01*
X-2655329Y-15864117D01*
X-2641079Y-15883330D01*
X-2628782Y-15903847D01*
X-2618554Y-15925471D01*
X-2610496Y-15947993D01*
X-2604684Y-15971197D01*
X-2601174Y-15994858D01*
X-2600000Y-16018750D01*
X-2600000Y-16506250D01*
X-2601174Y-16530142D01*
X-2604684Y-16553803D01*
X-2610496Y-16577007D01*
X-2618554Y-16599529D01*
X-2628782Y-16621153D01*
X-2641079Y-16641670D01*
X-2655329Y-16660883D01*
X-2671393Y-16678607D01*
X-2689117Y-16694671D01*
X-2708330Y-16708921D01*
X-2728847Y-16721218D01*
X-2750471Y-16731446D01*
X-2772993Y-16739504D01*
X-2796197Y-16745316D01*
X-2819858Y-16748826D01*
X-2843750Y-16750000D01*
X-3756250Y-16750000D01*
X-3780142Y-16748826D01*
X-3803803Y-16745316D01*
X-3827007Y-16739504D01*
X-3849529Y-16731446D01*
X-3871153Y-16721218D01*
X-3891670Y-16708921D01*
X-3910883Y-16694671D01*
X-3928607Y-16678607D01*
X-3944671Y-16660883D01*
X-3958921Y-16641670D01*
X-3971218Y-16621153D01*
X-3981446Y-16599529D01*
X-3989504Y-16577007D01*
X-3995316Y-16553803D01*
X-3998826Y-16530142D01*
X-4000000Y-16506250D01*
X-4000000Y-16018750D01*
X-3998826Y-15994858D01*
X-3995316Y-15971197D01*
X-3989504Y-15947993D01*
X-3981446Y-15925471D01*
X-3971218Y-15903847D01*
X-3958921Y-15883330D01*
X-3944671Y-15864117D01*
X-3928607Y-15846393D01*
X-3910883Y-15830329D01*
X-3891670Y-15816079D01*
X-3871153Y-15803782D01*
X-3849529Y-15793554D01*
X-3827007Y-15785496D01*
X-3803803Y-15779684D01*
X-3780142Y-15776174D01*
X-3756250Y-15775000D01*
X-2843750Y-15775000D01*
X-2819858Y-15776174D01*
X-2819858Y-15776174D01*
G37*
D11*
X-3300000Y-16262500D03*
D10*
G36*
X-4919858Y-17651174D02*
G01*
X-4896197Y-17654684D01*
X-4872993Y-17660496D01*
X-4850471Y-17668554D01*
X-4828847Y-17678782D01*
X-4808330Y-17691079D01*
X-4789117Y-17705329D01*
X-4771393Y-17721393D01*
X-4755329Y-17739117D01*
X-4741079Y-17758330D01*
X-4728782Y-17778847D01*
X-4718554Y-17800471D01*
X-4710496Y-17822993D01*
X-4704684Y-17846197D01*
X-4701174Y-17869858D01*
X-4700000Y-17893750D01*
X-4700000Y-18381250D01*
X-4701174Y-18405142D01*
X-4704684Y-18428803D01*
X-4710496Y-18452007D01*
X-4718554Y-18474529D01*
X-4728782Y-18496153D01*
X-4741079Y-18516670D01*
X-4755329Y-18535883D01*
X-4771393Y-18553607D01*
X-4789117Y-18569671D01*
X-4808330Y-18583921D01*
X-4828847Y-18596218D01*
X-4850471Y-18606446D01*
X-4872993Y-18614504D01*
X-4896197Y-18620316D01*
X-4919858Y-18623826D01*
X-4943750Y-18625000D01*
X-5856250Y-18625000D01*
X-5880142Y-18623826D01*
X-5903803Y-18620316D01*
X-5927007Y-18614504D01*
X-5949529Y-18606446D01*
X-5971153Y-18596218D01*
X-5991670Y-18583921D01*
X-6010883Y-18569671D01*
X-6028607Y-18553607D01*
X-6044671Y-18535883D01*
X-6058921Y-18516670D01*
X-6071218Y-18496153D01*
X-6081446Y-18474529D01*
X-6089504Y-18452007D01*
X-6095316Y-18428803D01*
X-6098826Y-18405142D01*
X-6100000Y-18381250D01*
X-6100000Y-17893750D01*
X-6098826Y-17869858D01*
X-6095316Y-17846197D01*
X-6089504Y-17822993D01*
X-6081446Y-17800471D01*
X-6071218Y-17778847D01*
X-6058921Y-17758330D01*
X-6044671Y-17739117D01*
X-6028607Y-17721393D01*
X-6010883Y-17705329D01*
X-5991670Y-17691079D01*
X-5971153Y-17678782D01*
X-5949529Y-17668554D01*
X-5927007Y-17660496D01*
X-5903803Y-17654684D01*
X-5880142Y-17651174D01*
X-5856250Y-17650000D01*
X-4943750Y-17650000D01*
X-4919858Y-17651174D01*
X-4919858Y-17651174D01*
G37*
D11*
X-5400000Y-18137500D03*
D10*
G36*
X-4919858Y-15776174D02*
G01*
X-4896197Y-15779684D01*
X-4872993Y-15785496D01*
X-4850471Y-15793554D01*
X-4828847Y-15803782D01*
X-4808330Y-15816079D01*
X-4789117Y-15830329D01*
X-4771393Y-15846393D01*
X-4755329Y-15864117D01*
X-4741079Y-15883330D01*
X-4728782Y-15903847D01*
X-4718554Y-15925471D01*
X-4710496Y-15947993D01*
X-4704684Y-15971197D01*
X-4701174Y-15994858D01*
X-4700000Y-16018750D01*
X-4700000Y-16506250D01*
X-4701174Y-16530142D01*
X-4704684Y-16553803D01*
X-4710496Y-16577007D01*
X-4718554Y-16599529D01*
X-4728782Y-16621153D01*
X-4741079Y-16641670D01*
X-4755329Y-16660883D01*
X-4771393Y-16678607D01*
X-4789117Y-16694671D01*
X-4808330Y-16708921D01*
X-4828847Y-16721218D01*
X-4850471Y-16731446D01*
X-4872993Y-16739504D01*
X-4896197Y-16745316D01*
X-4919858Y-16748826D01*
X-4943750Y-16750000D01*
X-5856250Y-16750000D01*
X-5880142Y-16748826D01*
X-5903803Y-16745316D01*
X-5927007Y-16739504D01*
X-5949529Y-16731446D01*
X-5971153Y-16721218D01*
X-5991670Y-16708921D01*
X-6010883Y-16694671D01*
X-6028607Y-16678607D01*
X-6044671Y-16660883D01*
X-6058921Y-16641670D01*
X-6071218Y-16621153D01*
X-6081446Y-16599529D01*
X-6089504Y-16577007D01*
X-6095316Y-16553803D01*
X-6098826Y-16530142D01*
X-6100000Y-16506250D01*
X-6100000Y-16018750D01*
X-6098826Y-15994858D01*
X-6095316Y-15971197D01*
X-6089504Y-15947993D01*
X-6081446Y-15925471D01*
X-6071218Y-15903847D01*
X-6058921Y-15883330D01*
X-6044671Y-15864117D01*
X-6028607Y-15846393D01*
X-6010883Y-15830329D01*
X-5991670Y-15816079D01*
X-5971153Y-15803782D01*
X-5949529Y-15793554D01*
X-5927007Y-15785496D01*
X-5903803Y-15779684D01*
X-5880142Y-15776174D01*
X-5856250Y-15775000D01*
X-4943750Y-15775000D01*
X-4919858Y-15776174D01*
X-4919858Y-15776174D01*
G37*
D11*
X-5400000Y-16262500D03*
D10*
G36*
X38730142Y6898826D02*
G01*
X38753803Y6895316D01*
X38777007Y6889504D01*
X38799529Y6881446D01*
X38821153Y6871218D01*
X38841670Y6858921D01*
X38860883Y6844671D01*
X38878607Y6828607D01*
X38894671Y6810883D01*
X38908921Y6791670D01*
X38921218Y6771153D01*
X38931446Y6749529D01*
X38939504Y6727007D01*
X38945316Y6703803D01*
X38948826Y6680142D01*
X38950000Y6656250D01*
X38950000Y5743750D01*
X38948826Y5719858D01*
X38945316Y5696197D01*
X38939504Y5672993D01*
X38931446Y5650471D01*
X38921218Y5628847D01*
X38908921Y5608330D01*
X38894671Y5589117D01*
X38878607Y5571393D01*
X38860883Y5555329D01*
X38841670Y5541079D01*
X38821153Y5528782D01*
X38799529Y5518554D01*
X38777007Y5510496D01*
X38753803Y5504684D01*
X38730142Y5501174D01*
X38706250Y5500000D01*
X38218750Y5500000D01*
X38194858Y5501174D01*
X38171197Y5504684D01*
X38147993Y5510496D01*
X38125471Y5518554D01*
X38103847Y5528782D01*
X38083330Y5541079D01*
X38064117Y5555329D01*
X38046393Y5571393D01*
X38030329Y5589117D01*
X38016079Y5608330D01*
X38003782Y5628847D01*
X37993554Y5650471D01*
X37985496Y5672993D01*
X37979684Y5696197D01*
X37976174Y5719858D01*
X37975000Y5743750D01*
X37975000Y6656250D01*
X37976174Y6680142D01*
X37979684Y6703803D01*
X37985496Y6727007D01*
X37993554Y6749529D01*
X38003782Y6771153D01*
X38016079Y6791670D01*
X38030329Y6810883D01*
X38046393Y6828607D01*
X38064117Y6844671D01*
X38083330Y6858921D01*
X38103847Y6871218D01*
X38125471Y6881446D01*
X38147993Y6889504D01*
X38171197Y6895316D01*
X38194858Y6898826D01*
X38218750Y6900000D01*
X38706250Y6900000D01*
X38730142Y6898826D01*
X38730142Y6898826D01*
G37*
D11*
X38462500Y6200000D03*
D10*
G36*
X40605142Y6898826D02*
G01*
X40628803Y6895316D01*
X40652007Y6889504D01*
X40674529Y6881446D01*
X40696153Y6871218D01*
X40716670Y6858921D01*
X40735883Y6844671D01*
X40753607Y6828607D01*
X40769671Y6810883D01*
X40783921Y6791670D01*
X40796218Y6771153D01*
X40806446Y6749529D01*
X40814504Y6727007D01*
X40820316Y6703803D01*
X40823826Y6680142D01*
X40825000Y6656250D01*
X40825000Y5743750D01*
X40823826Y5719858D01*
X40820316Y5696197D01*
X40814504Y5672993D01*
X40806446Y5650471D01*
X40796218Y5628847D01*
X40783921Y5608330D01*
X40769671Y5589117D01*
X40753607Y5571393D01*
X40735883Y5555329D01*
X40716670Y5541079D01*
X40696153Y5528782D01*
X40674529Y5518554D01*
X40652007Y5510496D01*
X40628803Y5504684D01*
X40605142Y5501174D01*
X40581250Y5500000D01*
X40093750Y5500000D01*
X40069858Y5501174D01*
X40046197Y5504684D01*
X40022993Y5510496D01*
X40000471Y5518554D01*
X39978847Y5528782D01*
X39958330Y5541079D01*
X39939117Y5555329D01*
X39921393Y5571393D01*
X39905329Y5589117D01*
X39891079Y5608330D01*
X39878782Y5628847D01*
X39868554Y5650471D01*
X39860496Y5672993D01*
X39854684Y5696197D01*
X39851174Y5719858D01*
X39850000Y5743750D01*
X39850000Y6656250D01*
X39851174Y6680142D01*
X39854684Y6703803D01*
X39860496Y6727007D01*
X39868554Y6749529D01*
X39878782Y6771153D01*
X39891079Y6791670D01*
X39905329Y6810883D01*
X39921393Y6828607D01*
X39939117Y6844671D01*
X39958330Y6858921D01*
X39978847Y6871218D01*
X40000471Y6881446D01*
X40022993Y6889504D01*
X40046197Y6895316D01*
X40069858Y6898826D01*
X40093750Y6900000D01*
X40581250Y6900000D01*
X40605142Y6898826D01*
X40605142Y6898826D01*
G37*
D11*
X40337500Y6200000D03*
D12*
X64200000Y14750000D03*
X64200000Y16650000D03*
X61200000Y15700000D03*
D10*
G36*
X7780142Y-14151174D02*
G01*
X7803803Y-14154684D01*
X7827007Y-14160496D01*
X7849529Y-14168554D01*
X7871153Y-14178782D01*
X7891670Y-14191079D01*
X7910883Y-14205329D01*
X7928607Y-14221393D01*
X7944671Y-14239117D01*
X7958921Y-14258330D01*
X7971218Y-14278847D01*
X7981446Y-14300471D01*
X7989504Y-14322993D01*
X7995316Y-14346197D01*
X7998826Y-14369858D01*
X8000000Y-14393750D01*
X8000000Y-14881250D01*
X7998826Y-14905142D01*
X7995316Y-14928803D01*
X7989504Y-14952007D01*
X7981446Y-14974529D01*
X7971218Y-14996153D01*
X7958921Y-15016670D01*
X7944671Y-15035883D01*
X7928607Y-15053607D01*
X7910883Y-15069671D01*
X7891670Y-15083921D01*
X7871153Y-15096218D01*
X7849529Y-15106446D01*
X7827007Y-15114504D01*
X7803803Y-15120316D01*
X7780142Y-15123826D01*
X7756250Y-15125000D01*
X6843750Y-15125000D01*
X6819858Y-15123826D01*
X6796197Y-15120316D01*
X6772993Y-15114504D01*
X6750471Y-15106446D01*
X6728847Y-15096218D01*
X6708330Y-15083921D01*
X6689117Y-15069671D01*
X6671393Y-15053607D01*
X6655329Y-15035883D01*
X6641079Y-15016670D01*
X6628782Y-14996153D01*
X6618554Y-14974529D01*
X6610496Y-14952007D01*
X6604684Y-14928803D01*
X6601174Y-14905142D01*
X6600000Y-14881250D01*
X6600000Y-14393750D01*
X6601174Y-14369858D01*
X6604684Y-14346197D01*
X6610496Y-14322993D01*
X6618554Y-14300471D01*
X6628782Y-14278847D01*
X6641079Y-14258330D01*
X6655329Y-14239117D01*
X6671393Y-14221393D01*
X6689117Y-14205329D01*
X6708330Y-14191079D01*
X6728847Y-14178782D01*
X6750471Y-14168554D01*
X6772993Y-14160496D01*
X6796197Y-14154684D01*
X6819858Y-14151174D01*
X6843750Y-14150000D01*
X7756250Y-14150000D01*
X7780142Y-14151174D01*
X7780142Y-14151174D01*
G37*
D11*
X7300000Y-14637500D03*
D10*
G36*
X7780142Y-12276174D02*
G01*
X7803803Y-12279684D01*
X7827007Y-12285496D01*
X7849529Y-12293554D01*
X7871153Y-12303782D01*
X7891670Y-12316079D01*
X7910883Y-12330329D01*
X7928607Y-12346393D01*
X7944671Y-12364117D01*
X7958921Y-12383330D01*
X7971218Y-12403847D01*
X7981446Y-12425471D01*
X7989504Y-12447993D01*
X7995316Y-12471197D01*
X7998826Y-12494858D01*
X8000000Y-12518750D01*
X8000000Y-13006250D01*
X7998826Y-13030142D01*
X7995316Y-13053803D01*
X7989504Y-13077007D01*
X7981446Y-13099529D01*
X7971218Y-13121153D01*
X7958921Y-13141670D01*
X7944671Y-13160883D01*
X7928607Y-13178607D01*
X7910883Y-13194671D01*
X7891670Y-13208921D01*
X7871153Y-13221218D01*
X7849529Y-13231446D01*
X7827007Y-13239504D01*
X7803803Y-13245316D01*
X7780142Y-13248826D01*
X7756250Y-13250000D01*
X6843750Y-13250000D01*
X6819858Y-13248826D01*
X6796197Y-13245316D01*
X6772993Y-13239504D01*
X6750471Y-13231446D01*
X6728847Y-13221218D01*
X6708330Y-13208921D01*
X6689117Y-13194671D01*
X6671393Y-13178607D01*
X6655329Y-13160883D01*
X6641079Y-13141670D01*
X6628782Y-13121153D01*
X6618554Y-13099529D01*
X6610496Y-13077007D01*
X6604684Y-13053803D01*
X6601174Y-13030142D01*
X6600000Y-13006250D01*
X6600000Y-12518750D01*
X6601174Y-12494858D01*
X6604684Y-12471197D01*
X6610496Y-12447993D01*
X6618554Y-12425471D01*
X6628782Y-12403847D01*
X6641079Y-12383330D01*
X6655329Y-12364117D01*
X6671393Y-12346393D01*
X6689117Y-12330329D01*
X6708330Y-12316079D01*
X6728847Y-12303782D01*
X6750471Y-12293554D01*
X6772993Y-12285496D01*
X6796197Y-12279684D01*
X6819858Y-12276174D01*
X6843750Y-12275000D01*
X7756250Y-12275000D01*
X7780142Y-12276174D01*
X7780142Y-12276174D01*
G37*
D11*
X7300000Y-12762500D03*
D10*
G36*
X9880142Y-12276174D02*
G01*
X9903803Y-12279684D01*
X9927007Y-12285496D01*
X9949529Y-12293554D01*
X9971153Y-12303782D01*
X9991670Y-12316079D01*
X10010883Y-12330329D01*
X10028607Y-12346393D01*
X10044671Y-12364117D01*
X10058921Y-12383330D01*
X10071218Y-12403847D01*
X10081446Y-12425471D01*
X10089504Y-12447993D01*
X10095316Y-12471197D01*
X10098826Y-12494858D01*
X10100000Y-12518750D01*
X10100000Y-13006250D01*
X10098826Y-13030142D01*
X10095316Y-13053803D01*
X10089504Y-13077007D01*
X10081446Y-13099529D01*
X10071218Y-13121153D01*
X10058921Y-13141670D01*
X10044671Y-13160883D01*
X10028607Y-13178607D01*
X10010883Y-13194671D01*
X9991670Y-13208921D01*
X9971153Y-13221218D01*
X9949529Y-13231446D01*
X9927007Y-13239504D01*
X9903803Y-13245316D01*
X9880142Y-13248826D01*
X9856250Y-13250000D01*
X8943750Y-13250000D01*
X8919858Y-13248826D01*
X8896197Y-13245316D01*
X8872993Y-13239504D01*
X8850471Y-13231446D01*
X8828847Y-13221218D01*
X8808330Y-13208921D01*
X8789117Y-13194671D01*
X8771393Y-13178607D01*
X8755329Y-13160883D01*
X8741079Y-13141670D01*
X8728782Y-13121153D01*
X8718554Y-13099529D01*
X8710496Y-13077007D01*
X8704684Y-13053803D01*
X8701174Y-13030142D01*
X8700000Y-13006250D01*
X8700000Y-12518750D01*
X8701174Y-12494858D01*
X8704684Y-12471197D01*
X8710496Y-12447993D01*
X8718554Y-12425471D01*
X8728782Y-12403847D01*
X8741079Y-12383330D01*
X8755329Y-12364117D01*
X8771393Y-12346393D01*
X8789117Y-12330329D01*
X8808330Y-12316079D01*
X8828847Y-12303782D01*
X8850471Y-12293554D01*
X8872993Y-12285496D01*
X8896197Y-12279684D01*
X8919858Y-12276174D01*
X8943750Y-12275000D01*
X9856250Y-12275000D01*
X9880142Y-12276174D01*
X9880142Y-12276174D01*
G37*
D11*
X9400000Y-12762500D03*
D10*
G36*
X9880142Y-14151174D02*
G01*
X9903803Y-14154684D01*
X9927007Y-14160496D01*
X9949529Y-14168554D01*
X9971153Y-14178782D01*
X9991670Y-14191079D01*
X10010883Y-14205329D01*
X10028607Y-14221393D01*
X10044671Y-14239117D01*
X10058921Y-14258330D01*
X10071218Y-14278847D01*
X10081446Y-14300471D01*
X10089504Y-14322993D01*
X10095316Y-14346197D01*
X10098826Y-14369858D01*
X10100000Y-14393750D01*
X10100000Y-14881250D01*
X10098826Y-14905142D01*
X10095316Y-14928803D01*
X10089504Y-14952007D01*
X10081446Y-14974529D01*
X10071218Y-14996153D01*
X10058921Y-15016670D01*
X10044671Y-15035883D01*
X10028607Y-15053607D01*
X10010883Y-15069671D01*
X9991670Y-15083921D01*
X9971153Y-15096218D01*
X9949529Y-15106446D01*
X9927007Y-15114504D01*
X9903803Y-15120316D01*
X9880142Y-15123826D01*
X9856250Y-15125000D01*
X8943750Y-15125000D01*
X8919858Y-15123826D01*
X8896197Y-15120316D01*
X8872993Y-15114504D01*
X8850471Y-15106446D01*
X8828847Y-15096218D01*
X8808330Y-15083921D01*
X8789117Y-15069671D01*
X8771393Y-15053607D01*
X8755329Y-15035883D01*
X8741079Y-15016670D01*
X8728782Y-14996153D01*
X8718554Y-14974529D01*
X8710496Y-14952007D01*
X8704684Y-14928803D01*
X8701174Y-14905142D01*
X8700000Y-14881250D01*
X8700000Y-14393750D01*
X8701174Y-14369858D01*
X8704684Y-14346197D01*
X8710496Y-14322993D01*
X8718554Y-14300471D01*
X8728782Y-14278847D01*
X8741079Y-14258330D01*
X8755329Y-14239117D01*
X8771393Y-14221393D01*
X8789117Y-14205329D01*
X8808330Y-14191079D01*
X8828847Y-14178782D01*
X8850471Y-14168554D01*
X8872993Y-14160496D01*
X8896197Y-14154684D01*
X8919858Y-14151174D01*
X8943750Y-14150000D01*
X9856250Y-14150000D01*
X9880142Y-14151174D01*
X9880142Y-14151174D01*
G37*
D11*
X9400000Y-14637500D03*
D10*
G36*
X68405142Y15498826D02*
G01*
X68428803Y15495316D01*
X68452007Y15489504D01*
X68474529Y15481446D01*
X68496153Y15471218D01*
X68516670Y15458921D01*
X68535883Y15444671D01*
X68553607Y15428607D01*
X68569671Y15410883D01*
X68583921Y15391670D01*
X68596218Y15371153D01*
X68606446Y15349529D01*
X68614504Y15327007D01*
X68620316Y15303803D01*
X68623826Y15280142D01*
X68625000Y15256250D01*
X68625000Y14343750D01*
X68623826Y14319858D01*
X68620316Y14296197D01*
X68614504Y14272993D01*
X68606446Y14250471D01*
X68596218Y14228847D01*
X68583921Y14208330D01*
X68569671Y14189117D01*
X68553607Y14171393D01*
X68535883Y14155329D01*
X68516670Y14141079D01*
X68496153Y14128782D01*
X68474529Y14118554D01*
X68452007Y14110496D01*
X68428803Y14104684D01*
X68405142Y14101174D01*
X68381250Y14100000D01*
X67893750Y14100000D01*
X67869858Y14101174D01*
X67846197Y14104684D01*
X67822993Y14110496D01*
X67800471Y14118554D01*
X67778847Y14128782D01*
X67758330Y14141079D01*
X67739117Y14155329D01*
X67721393Y14171393D01*
X67705329Y14189117D01*
X67691079Y14208330D01*
X67678782Y14228847D01*
X67668554Y14250471D01*
X67660496Y14272993D01*
X67654684Y14296197D01*
X67651174Y14319858D01*
X67650000Y14343750D01*
X67650000Y15256250D01*
X67651174Y15280142D01*
X67654684Y15303803D01*
X67660496Y15327007D01*
X67668554Y15349529D01*
X67678782Y15371153D01*
X67691079Y15391670D01*
X67705329Y15410883D01*
X67721393Y15428607D01*
X67739117Y15444671D01*
X67758330Y15458921D01*
X67778847Y15471218D01*
X67800471Y15481446D01*
X67822993Y15489504D01*
X67846197Y15495316D01*
X67869858Y15498826D01*
X67893750Y15500000D01*
X68381250Y15500000D01*
X68405142Y15498826D01*
X68405142Y15498826D01*
G37*
D11*
X68137500Y14800000D03*
D10*
G36*
X66530142Y15498826D02*
G01*
X66553803Y15495316D01*
X66577007Y15489504D01*
X66599529Y15481446D01*
X66621153Y15471218D01*
X66641670Y15458921D01*
X66660883Y15444671D01*
X66678607Y15428607D01*
X66694671Y15410883D01*
X66708921Y15391670D01*
X66721218Y15371153D01*
X66731446Y15349529D01*
X66739504Y15327007D01*
X66745316Y15303803D01*
X66748826Y15280142D01*
X66750000Y15256250D01*
X66750000Y14343750D01*
X66748826Y14319858D01*
X66745316Y14296197D01*
X66739504Y14272993D01*
X66731446Y14250471D01*
X66721218Y14228847D01*
X66708921Y14208330D01*
X66694671Y14189117D01*
X66678607Y14171393D01*
X66660883Y14155329D01*
X66641670Y14141079D01*
X66621153Y14128782D01*
X66599529Y14118554D01*
X66577007Y14110496D01*
X66553803Y14104684D01*
X66530142Y14101174D01*
X66506250Y14100000D01*
X66018750Y14100000D01*
X65994858Y14101174D01*
X65971197Y14104684D01*
X65947993Y14110496D01*
X65925471Y14118554D01*
X65903847Y14128782D01*
X65883330Y14141079D01*
X65864117Y14155329D01*
X65846393Y14171393D01*
X65830329Y14189117D01*
X65816079Y14208330D01*
X65803782Y14228847D01*
X65793554Y14250471D01*
X65785496Y14272993D01*
X65779684Y14296197D01*
X65776174Y14319858D01*
X65775000Y14343750D01*
X65775000Y15256250D01*
X65776174Y15280142D01*
X65779684Y15303803D01*
X65785496Y15327007D01*
X65793554Y15349529D01*
X65803782Y15371153D01*
X65816079Y15391670D01*
X65830329Y15410883D01*
X65846393Y15428607D01*
X65864117Y15444671D01*
X65883330Y15458921D01*
X65903847Y15471218D01*
X65925471Y15481446D01*
X65947993Y15489504D01*
X65971197Y15495316D01*
X65994858Y15498826D01*
X66018750Y15500000D01*
X66506250Y15500000D01*
X66530142Y15498826D01*
X66530142Y15498826D01*
G37*
D11*
X66262500Y14800000D03*
D10*
G36*
X1380142Y-12276174D02*
G01*
X1403803Y-12279684D01*
X1427007Y-12285496D01*
X1449529Y-12293554D01*
X1471153Y-12303782D01*
X1491670Y-12316079D01*
X1510883Y-12330329D01*
X1528607Y-12346393D01*
X1544671Y-12364117D01*
X1558921Y-12383330D01*
X1571218Y-12403847D01*
X1581446Y-12425471D01*
X1589504Y-12447993D01*
X1595316Y-12471197D01*
X1598826Y-12494858D01*
X1600000Y-12518750D01*
X1600000Y-13006250D01*
X1598826Y-13030142D01*
X1595316Y-13053803D01*
X1589504Y-13077007D01*
X1581446Y-13099529D01*
X1571218Y-13121153D01*
X1558921Y-13141670D01*
X1544671Y-13160883D01*
X1528607Y-13178607D01*
X1510883Y-13194671D01*
X1491670Y-13208921D01*
X1471153Y-13221218D01*
X1449529Y-13231446D01*
X1427007Y-13239504D01*
X1403803Y-13245316D01*
X1380142Y-13248826D01*
X1356250Y-13250000D01*
X443750Y-13250000D01*
X419858Y-13248826D01*
X396197Y-13245316D01*
X372993Y-13239504D01*
X350471Y-13231446D01*
X328847Y-13221218D01*
X308330Y-13208921D01*
X289117Y-13194671D01*
X271393Y-13178607D01*
X255329Y-13160883D01*
X241079Y-13141670D01*
X228782Y-13121153D01*
X218554Y-13099529D01*
X210496Y-13077007D01*
X204684Y-13053803D01*
X201174Y-13030142D01*
X200000Y-13006250D01*
X200000Y-12518750D01*
X201174Y-12494858D01*
X204684Y-12471197D01*
X210496Y-12447993D01*
X218554Y-12425471D01*
X228782Y-12403847D01*
X241079Y-12383330D01*
X255329Y-12364117D01*
X271393Y-12346393D01*
X289117Y-12330329D01*
X308330Y-12316079D01*
X328847Y-12303782D01*
X350471Y-12293554D01*
X372993Y-12285496D01*
X396197Y-12279684D01*
X419858Y-12276174D01*
X443750Y-12275000D01*
X1356250Y-12275000D01*
X1380142Y-12276174D01*
X1380142Y-12276174D01*
G37*
D11*
X900000Y-12762500D03*
D10*
G36*
X1380142Y-14151174D02*
G01*
X1403803Y-14154684D01*
X1427007Y-14160496D01*
X1449529Y-14168554D01*
X1471153Y-14178782D01*
X1491670Y-14191079D01*
X1510883Y-14205329D01*
X1528607Y-14221393D01*
X1544671Y-14239117D01*
X1558921Y-14258330D01*
X1571218Y-14278847D01*
X1581446Y-14300471D01*
X1589504Y-14322993D01*
X1595316Y-14346197D01*
X1598826Y-14369858D01*
X1600000Y-14393750D01*
X1600000Y-14881250D01*
X1598826Y-14905142D01*
X1595316Y-14928803D01*
X1589504Y-14952007D01*
X1581446Y-14974529D01*
X1571218Y-14996153D01*
X1558921Y-15016670D01*
X1544671Y-15035883D01*
X1528607Y-15053607D01*
X1510883Y-15069671D01*
X1491670Y-15083921D01*
X1471153Y-15096218D01*
X1449529Y-15106446D01*
X1427007Y-15114504D01*
X1403803Y-15120316D01*
X1380142Y-15123826D01*
X1356250Y-15125000D01*
X443750Y-15125000D01*
X419858Y-15123826D01*
X396197Y-15120316D01*
X372993Y-15114504D01*
X350471Y-15106446D01*
X328847Y-15096218D01*
X308330Y-15083921D01*
X289117Y-15069671D01*
X271393Y-15053607D01*
X255329Y-15035883D01*
X241079Y-15016670D01*
X228782Y-14996153D01*
X218554Y-14974529D01*
X210496Y-14952007D01*
X204684Y-14928803D01*
X201174Y-14905142D01*
X200000Y-14881250D01*
X200000Y-14393750D01*
X201174Y-14369858D01*
X204684Y-14346197D01*
X210496Y-14322993D01*
X218554Y-14300471D01*
X228782Y-14278847D01*
X241079Y-14258330D01*
X255329Y-14239117D01*
X271393Y-14221393D01*
X289117Y-14205329D01*
X308330Y-14191079D01*
X328847Y-14178782D01*
X350471Y-14168554D01*
X372993Y-14160496D01*
X396197Y-14154684D01*
X419858Y-14151174D01*
X443750Y-14150000D01*
X1356250Y-14150000D01*
X1380142Y-14151174D01*
X1380142Y-14151174D01*
G37*
D11*
X900000Y-14637500D03*
D10*
G36*
X-719858Y-14151174D02*
G01*
X-696197Y-14154684D01*
X-672993Y-14160496D01*
X-650471Y-14168554D01*
X-628847Y-14178782D01*
X-608330Y-14191079D01*
X-589117Y-14205329D01*
X-571393Y-14221393D01*
X-555329Y-14239117D01*
X-541079Y-14258330D01*
X-528782Y-14278847D01*
X-518554Y-14300471D01*
X-510496Y-14322993D01*
X-504684Y-14346197D01*
X-501174Y-14369858D01*
X-500000Y-14393750D01*
X-500000Y-14881250D01*
X-501174Y-14905142D01*
X-504684Y-14928803D01*
X-510496Y-14952007D01*
X-518554Y-14974529D01*
X-528782Y-14996153D01*
X-541079Y-15016670D01*
X-555329Y-15035883D01*
X-571393Y-15053607D01*
X-589117Y-15069671D01*
X-608330Y-15083921D01*
X-628847Y-15096218D01*
X-650471Y-15106446D01*
X-672993Y-15114504D01*
X-696197Y-15120316D01*
X-719858Y-15123826D01*
X-743750Y-15125000D01*
X-1656250Y-15125000D01*
X-1680142Y-15123826D01*
X-1703803Y-15120316D01*
X-1727007Y-15114504D01*
X-1749529Y-15106446D01*
X-1771153Y-15096218D01*
X-1791670Y-15083921D01*
X-1810883Y-15069671D01*
X-1828607Y-15053607D01*
X-1844671Y-15035883D01*
X-1858921Y-15016670D01*
X-1871218Y-14996153D01*
X-1881446Y-14974529D01*
X-1889504Y-14952007D01*
X-1895316Y-14928803D01*
X-1898826Y-14905142D01*
X-1900000Y-14881250D01*
X-1900000Y-14393750D01*
X-1898826Y-14369858D01*
X-1895316Y-14346197D01*
X-1889504Y-14322993D01*
X-1881446Y-14300471D01*
X-1871218Y-14278847D01*
X-1858921Y-14258330D01*
X-1844671Y-14239117D01*
X-1828607Y-14221393D01*
X-1810883Y-14205329D01*
X-1791670Y-14191079D01*
X-1771153Y-14178782D01*
X-1749529Y-14168554D01*
X-1727007Y-14160496D01*
X-1703803Y-14154684D01*
X-1680142Y-14151174D01*
X-1656250Y-14150000D01*
X-743750Y-14150000D01*
X-719858Y-14151174D01*
X-719858Y-14151174D01*
G37*
D11*
X-1200000Y-14637500D03*
D10*
G36*
X-719858Y-12276174D02*
G01*
X-696197Y-12279684D01*
X-672993Y-12285496D01*
X-650471Y-12293554D01*
X-628847Y-12303782D01*
X-608330Y-12316079D01*
X-589117Y-12330329D01*
X-571393Y-12346393D01*
X-555329Y-12364117D01*
X-541079Y-12383330D01*
X-528782Y-12403847D01*
X-518554Y-12425471D01*
X-510496Y-12447993D01*
X-504684Y-12471197D01*
X-501174Y-12494858D01*
X-500000Y-12518750D01*
X-500000Y-13006250D01*
X-501174Y-13030142D01*
X-504684Y-13053803D01*
X-510496Y-13077007D01*
X-518554Y-13099529D01*
X-528782Y-13121153D01*
X-541079Y-13141670D01*
X-555329Y-13160883D01*
X-571393Y-13178607D01*
X-589117Y-13194671D01*
X-608330Y-13208921D01*
X-628847Y-13221218D01*
X-650471Y-13231446D01*
X-672993Y-13239504D01*
X-696197Y-13245316D01*
X-719858Y-13248826D01*
X-743750Y-13250000D01*
X-1656250Y-13250000D01*
X-1680142Y-13248826D01*
X-1703803Y-13245316D01*
X-1727007Y-13239504D01*
X-1749529Y-13231446D01*
X-1771153Y-13221218D01*
X-1791670Y-13208921D01*
X-1810883Y-13194671D01*
X-1828607Y-13178607D01*
X-1844671Y-13160883D01*
X-1858921Y-13141670D01*
X-1871218Y-13121153D01*
X-1881446Y-13099529D01*
X-1889504Y-13077007D01*
X-1895316Y-13053803D01*
X-1898826Y-13030142D01*
X-1900000Y-13006250D01*
X-1900000Y-12518750D01*
X-1898826Y-12494858D01*
X-1895316Y-12471197D01*
X-1889504Y-12447993D01*
X-1881446Y-12425471D01*
X-1871218Y-12403847D01*
X-1858921Y-12383330D01*
X-1844671Y-12364117D01*
X-1828607Y-12346393D01*
X-1810883Y-12330329D01*
X-1791670Y-12316079D01*
X-1771153Y-12303782D01*
X-1749529Y-12293554D01*
X-1727007Y-12285496D01*
X-1703803Y-12279684D01*
X-1680142Y-12276174D01*
X-1656250Y-12275000D01*
X-743750Y-12275000D01*
X-719858Y-12276174D01*
X-719858Y-12276174D01*
G37*
D11*
X-1200000Y-12762500D03*
D10*
G36*
X-2819858Y-12276174D02*
G01*
X-2796197Y-12279684D01*
X-2772993Y-12285496D01*
X-2750471Y-12293554D01*
X-2728847Y-12303782D01*
X-2708330Y-12316079D01*
X-2689117Y-12330329D01*
X-2671393Y-12346393D01*
X-2655329Y-12364117D01*
X-2641079Y-12383330D01*
X-2628782Y-12403847D01*
X-2618554Y-12425471D01*
X-2610496Y-12447993D01*
X-2604684Y-12471197D01*
X-2601174Y-12494858D01*
X-2600000Y-12518750D01*
X-2600000Y-13006250D01*
X-2601174Y-13030142D01*
X-2604684Y-13053803D01*
X-2610496Y-13077007D01*
X-2618554Y-13099529D01*
X-2628782Y-13121153D01*
X-2641079Y-13141670D01*
X-2655329Y-13160883D01*
X-2671393Y-13178607D01*
X-2689117Y-13194671D01*
X-2708330Y-13208921D01*
X-2728847Y-13221218D01*
X-2750471Y-13231446D01*
X-2772993Y-13239504D01*
X-2796197Y-13245316D01*
X-2819858Y-13248826D01*
X-2843750Y-13250000D01*
X-3756250Y-13250000D01*
X-3780142Y-13248826D01*
X-3803803Y-13245316D01*
X-3827007Y-13239504D01*
X-3849529Y-13231446D01*
X-3871153Y-13221218D01*
X-3891670Y-13208921D01*
X-3910883Y-13194671D01*
X-3928607Y-13178607D01*
X-3944671Y-13160883D01*
X-3958921Y-13141670D01*
X-3971218Y-13121153D01*
X-3981446Y-13099529D01*
X-3989504Y-13077007D01*
X-3995316Y-13053803D01*
X-3998826Y-13030142D01*
X-4000000Y-13006250D01*
X-4000000Y-12518750D01*
X-3998826Y-12494858D01*
X-3995316Y-12471197D01*
X-3989504Y-12447993D01*
X-3981446Y-12425471D01*
X-3971218Y-12403847D01*
X-3958921Y-12383330D01*
X-3944671Y-12364117D01*
X-3928607Y-12346393D01*
X-3910883Y-12330329D01*
X-3891670Y-12316079D01*
X-3871153Y-12303782D01*
X-3849529Y-12293554D01*
X-3827007Y-12285496D01*
X-3803803Y-12279684D01*
X-3780142Y-12276174D01*
X-3756250Y-12275000D01*
X-2843750Y-12275000D01*
X-2819858Y-12276174D01*
X-2819858Y-12276174D01*
G37*
D11*
X-3300000Y-12762500D03*
D10*
G36*
X-2819858Y-14151174D02*
G01*
X-2796197Y-14154684D01*
X-2772993Y-14160496D01*
X-2750471Y-14168554D01*
X-2728847Y-14178782D01*
X-2708330Y-14191079D01*
X-2689117Y-14205329D01*
X-2671393Y-14221393D01*
X-2655329Y-14239117D01*
X-2641079Y-14258330D01*
X-2628782Y-14278847D01*
X-2618554Y-14300471D01*
X-2610496Y-14322993D01*
X-2604684Y-14346197D01*
X-2601174Y-14369858D01*
X-2600000Y-14393750D01*
X-2600000Y-14881250D01*
X-2601174Y-14905142D01*
X-2604684Y-14928803D01*
X-2610496Y-14952007D01*
X-2618554Y-14974529D01*
X-2628782Y-14996153D01*
X-2641079Y-15016670D01*
X-2655329Y-15035883D01*
X-2671393Y-15053607D01*
X-2689117Y-15069671D01*
X-2708330Y-15083921D01*
X-2728847Y-15096218D01*
X-2750471Y-15106446D01*
X-2772993Y-15114504D01*
X-2796197Y-15120316D01*
X-2819858Y-15123826D01*
X-2843750Y-15125000D01*
X-3756250Y-15125000D01*
X-3780142Y-15123826D01*
X-3803803Y-15120316D01*
X-3827007Y-15114504D01*
X-3849529Y-15106446D01*
X-3871153Y-15096218D01*
X-3891670Y-15083921D01*
X-3910883Y-15069671D01*
X-3928607Y-15053607D01*
X-3944671Y-15035883D01*
X-3958921Y-15016670D01*
X-3971218Y-14996153D01*
X-3981446Y-14974529D01*
X-3989504Y-14952007D01*
X-3995316Y-14928803D01*
X-3998826Y-14905142D01*
X-4000000Y-14881250D01*
X-4000000Y-14393750D01*
X-3998826Y-14369858D01*
X-3995316Y-14346197D01*
X-3989504Y-14322993D01*
X-3981446Y-14300471D01*
X-3971218Y-14278847D01*
X-3958921Y-14258330D01*
X-3944671Y-14239117D01*
X-3928607Y-14221393D01*
X-3910883Y-14205329D01*
X-3891670Y-14191079D01*
X-3871153Y-14178782D01*
X-3849529Y-14168554D01*
X-3827007Y-14160496D01*
X-3803803Y-14154684D01*
X-3780142Y-14151174D01*
X-3756250Y-14150000D01*
X-2843750Y-14150000D01*
X-2819858Y-14151174D01*
X-2819858Y-14151174D01*
G37*
D11*
X-3300000Y-14637500D03*
D10*
G36*
X-4919858Y-14151174D02*
G01*
X-4896197Y-14154684D01*
X-4872993Y-14160496D01*
X-4850471Y-14168554D01*
X-4828847Y-14178782D01*
X-4808330Y-14191079D01*
X-4789117Y-14205329D01*
X-4771393Y-14221393D01*
X-4755329Y-14239117D01*
X-4741079Y-14258330D01*
X-4728782Y-14278847D01*
X-4718554Y-14300471D01*
X-4710496Y-14322993D01*
X-4704684Y-14346197D01*
X-4701174Y-14369858D01*
X-4700000Y-14393750D01*
X-4700000Y-14881250D01*
X-4701174Y-14905142D01*
X-4704684Y-14928803D01*
X-4710496Y-14952007D01*
X-4718554Y-14974529D01*
X-4728782Y-14996153D01*
X-4741079Y-15016670D01*
X-4755329Y-15035883D01*
X-4771393Y-15053607D01*
X-4789117Y-15069671D01*
X-4808330Y-15083921D01*
X-4828847Y-15096218D01*
X-4850471Y-15106446D01*
X-4872993Y-15114504D01*
X-4896197Y-15120316D01*
X-4919858Y-15123826D01*
X-4943750Y-15125000D01*
X-5856250Y-15125000D01*
X-5880142Y-15123826D01*
X-5903803Y-15120316D01*
X-5927007Y-15114504D01*
X-5949529Y-15106446D01*
X-5971153Y-15096218D01*
X-5991670Y-15083921D01*
X-6010883Y-15069671D01*
X-6028607Y-15053607D01*
X-6044671Y-15035883D01*
X-6058921Y-15016670D01*
X-6071218Y-14996153D01*
X-6081446Y-14974529D01*
X-6089504Y-14952007D01*
X-6095316Y-14928803D01*
X-6098826Y-14905142D01*
X-6100000Y-14881250D01*
X-6100000Y-14393750D01*
X-6098826Y-14369858D01*
X-6095316Y-14346197D01*
X-6089504Y-14322993D01*
X-6081446Y-14300471D01*
X-6071218Y-14278847D01*
X-6058921Y-14258330D01*
X-6044671Y-14239117D01*
X-6028607Y-14221393D01*
X-6010883Y-14205329D01*
X-5991670Y-14191079D01*
X-5971153Y-14178782D01*
X-5949529Y-14168554D01*
X-5927007Y-14160496D01*
X-5903803Y-14154684D01*
X-5880142Y-14151174D01*
X-5856250Y-14150000D01*
X-4943750Y-14150000D01*
X-4919858Y-14151174D01*
X-4919858Y-14151174D01*
G37*
D11*
X-5400000Y-14637500D03*
D10*
G36*
X-4919858Y-12276174D02*
G01*
X-4896197Y-12279684D01*
X-4872993Y-12285496D01*
X-4850471Y-12293554D01*
X-4828847Y-12303782D01*
X-4808330Y-12316079D01*
X-4789117Y-12330329D01*
X-4771393Y-12346393D01*
X-4755329Y-12364117D01*
X-4741079Y-12383330D01*
X-4728782Y-12403847D01*
X-4718554Y-12425471D01*
X-4710496Y-12447993D01*
X-4704684Y-12471197D01*
X-4701174Y-12494858D01*
X-4700000Y-12518750D01*
X-4700000Y-13006250D01*
X-4701174Y-13030142D01*
X-4704684Y-13053803D01*
X-4710496Y-13077007D01*
X-4718554Y-13099529D01*
X-4728782Y-13121153D01*
X-4741079Y-13141670D01*
X-4755329Y-13160883D01*
X-4771393Y-13178607D01*
X-4789117Y-13194671D01*
X-4808330Y-13208921D01*
X-4828847Y-13221218D01*
X-4850471Y-13231446D01*
X-4872993Y-13239504D01*
X-4896197Y-13245316D01*
X-4919858Y-13248826D01*
X-4943750Y-13250000D01*
X-5856250Y-13250000D01*
X-5880142Y-13248826D01*
X-5903803Y-13245316D01*
X-5927007Y-13239504D01*
X-5949529Y-13231446D01*
X-5971153Y-13221218D01*
X-5991670Y-13208921D01*
X-6010883Y-13194671D01*
X-6028607Y-13178607D01*
X-6044671Y-13160883D01*
X-6058921Y-13141670D01*
X-6071218Y-13121153D01*
X-6081446Y-13099529D01*
X-6089504Y-13077007D01*
X-6095316Y-13053803D01*
X-6098826Y-13030142D01*
X-6100000Y-13006250D01*
X-6100000Y-12518750D01*
X-6098826Y-12494858D01*
X-6095316Y-12471197D01*
X-6089504Y-12447993D01*
X-6081446Y-12425471D01*
X-6071218Y-12403847D01*
X-6058921Y-12383330D01*
X-6044671Y-12364117D01*
X-6028607Y-12346393D01*
X-6010883Y-12330329D01*
X-5991670Y-12316079D01*
X-5971153Y-12303782D01*
X-5949529Y-12293554D01*
X-5927007Y-12285496D01*
X-5903803Y-12279684D01*
X-5880142Y-12276174D01*
X-5856250Y-12275000D01*
X-4943750Y-12275000D01*
X-4919858Y-12276174D01*
X-4919858Y-12276174D01*
G37*
D11*
X-5400000Y-12762500D03*
D10*
G36*
X35230142Y6898826D02*
G01*
X35253803Y6895316D01*
X35277007Y6889504D01*
X35299529Y6881446D01*
X35321153Y6871218D01*
X35341670Y6858921D01*
X35360883Y6844671D01*
X35378607Y6828607D01*
X35394671Y6810883D01*
X35408921Y6791670D01*
X35421218Y6771153D01*
X35431446Y6749529D01*
X35439504Y6727007D01*
X35445316Y6703803D01*
X35448826Y6680142D01*
X35450000Y6656250D01*
X35450000Y5743750D01*
X35448826Y5719858D01*
X35445316Y5696197D01*
X35439504Y5672993D01*
X35431446Y5650471D01*
X35421218Y5628847D01*
X35408921Y5608330D01*
X35394671Y5589117D01*
X35378607Y5571393D01*
X35360883Y5555329D01*
X35341670Y5541079D01*
X35321153Y5528782D01*
X35299529Y5518554D01*
X35277007Y5510496D01*
X35253803Y5504684D01*
X35230142Y5501174D01*
X35206250Y5500000D01*
X34718750Y5500000D01*
X34694858Y5501174D01*
X34671197Y5504684D01*
X34647993Y5510496D01*
X34625471Y5518554D01*
X34603847Y5528782D01*
X34583330Y5541079D01*
X34564117Y5555329D01*
X34546393Y5571393D01*
X34530329Y5589117D01*
X34516079Y5608330D01*
X34503782Y5628847D01*
X34493554Y5650471D01*
X34485496Y5672993D01*
X34479684Y5696197D01*
X34476174Y5719858D01*
X34475000Y5743750D01*
X34475000Y6656250D01*
X34476174Y6680142D01*
X34479684Y6703803D01*
X34485496Y6727007D01*
X34493554Y6749529D01*
X34503782Y6771153D01*
X34516079Y6791670D01*
X34530329Y6810883D01*
X34546393Y6828607D01*
X34564117Y6844671D01*
X34583330Y6858921D01*
X34603847Y6871218D01*
X34625471Y6881446D01*
X34647993Y6889504D01*
X34671197Y6895316D01*
X34694858Y6898826D01*
X34718750Y6900000D01*
X35206250Y6900000D01*
X35230142Y6898826D01*
X35230142Y6898826D01*
G37*
D11*
X34962500Y6200000D03*
D10*
G36*
X37105142Y6898826D02*
G01*
X37128803Y6895316D01*
X37152007Y6889504D01*
X37174529Y6881446D01*
X37196153Y6871218D01*
X37216670Y6858921D01*
X37235883Y6844671D01*
X37253607Y6828607D01*
X37269671Y6810883D01*
X37283921Y6791670D01*
X37296218Y6771153D01*
X37306446Y6749529D01*
X37314504Y6727007D01*
X37320316Y6703803D01*
X37323826Y6680142D01*
X37325000Y6656250D01*
X37325000Y5743750D01*
X37323826Y5719858D01*
X37320316Y5696197D01*
X37314504Y5672993D01*
X37306446Y5650471D01*
X37296218Y5628847D01*
X37283921Y5608330D01*
X37269671Y5589117D01*
X37253607Y5571393D01*
X37235883Y5555329D01*
X37216670Y5541079D01*
X37196153Y5528782D01*
X37174529Y5518554D01*
X37152007Y5510496D01*
X37128803Y5504684D01*
X37105142Y5501174D01*
X37081250Y5500000D01*
X36593750Y5500000D01*
X36569858Y5501174D01*
X36546197Y5504684D01*
X36522993Y5510496D01*
X36500471Y5518554D01*
X36478847Y5528782D01*
X36458330Y5541079D01*
X36439117Y5555329D01*
X36421393Y5571393D01*
X36405329Y5589117D01*
X36391079Y5608330D01*
X36378782Y5628847D01*
X36368554Y5650471D01*
X36360496Y5672993D01*
X36354684Y5696197D01*
X36351174Y5719858D01*
X36350000Y5743750D01*
X36350000Y6656250D01*
X36351174Y6680142D01*
X36354684Y6703803D01*
X36360496Y6727007D01*
X36368554Y6749529D01*
X36378782Y6771153D01*
X36391079Y6791670D01*
X36405329Y6810883D01*
X36421393Y6828607D01*
X36439117Y6844671D01*
X36458330Y6858921D01*
X36478847Y6871218D01*
X36500471Y6881446D01*
X36522993Y6889504D01*
X36546197Y6895316D01*
X36569858Y6898826D01*
X36593750Y6900000D01*
X37081250Y6900000D01*
X37105142Y6898826D01*
X37105142Y6898826D01*
G37*
D11*
X36837500Y6200000D03*
M02*
