M48
; DRILL file {KiCad (5.1.4)-1} date 1/3/2021 10:51:34 AM
; FORMAT={2:4/ absolute / inch / suppress leading zeros}
; #@! TF.CreationDate,2021-01-03T10:51:34-08:00
; #@! TF.GenerationSoftware,Kicad,Pcbnew,(5.1.4)-1
FMAT,2
INCH,TZ
T1C0.0157
T2C0.0335
T3C0.0394
T4C0.0400
T5C0.0512
T6C0.0728
%
G90
G05
T1
X-29055Y866
X-29016Y-2047
X-28976Y-6969
X-28858Y6811
X-28819Y-4331
X-28346Y4449
X-27756Y-5591
X-27047Y4291
X-25748Y-4291
X-25551Y-6988
X-25433Y-5787
X-25285Y-4213
X-25236Y3898
X-23756Y4248
X-23661Y-4291
X-23504Y2559
X-23406Y-7008
X-23307Y-3504
X-23268Y551
X-22528Y3876
X-22480Y-1457
X-22471Y3405
X-22323Y2559
X-22224Y59
X-21535Y-3740
X-21053Y2184
X-20984Y-2008
X-20969Y2569
X-20587Y2666
X-20512Y-4390
X-20485Y3046
X-20276Y1614
X-19764Y-1929
X-19685Y984
X-19606Y-906
X-19291Y-1260
X-19116Y1523
X-18976Y-1614
X-18976Y-2992
X-18976Y-3858
X-18661Y-630
X-18543Y-1811
X-18524Y354
X-18464Y1467
X-17835Y1339
X-17559Y906
X-16654Y-591
X-16614Y2323
X-15827Y118
X-15394Y-2913
X-15354Y-4252
X-14764Y-630
X-14213Y-354
X-14055Y-4134
X-13898Y-2913
X-13819Y6969
X-12874Y906
X-12480Y-2835
X-12008Y-354
X-11693Y2402
X-11654Y-5906
X-10906Y-4449
X-10413Y4035
X-9882Y-354
X-9528Y-3150
X-9370Y-7165
X-8937Y-5906
X-8386Y1260
X-8071Y-6969
X-7717Y-4409
X-7323Y-5315
X-6890Y-591
X-5827Y-6850
X-5669Y-5630
X-4606Y-512
X-3976Y-3504
X-3189Y-6850
X-3071Y4016
X-2992Y-1614
X-2717Y-2244
X-2598Y-472
X-2323Y-1181
X-2087Y-2480
X-1831Y2717
X-1732Y-512
X-1575Y-1890
X-840Y3767
X-748Y-512
X-530Y4279
X-450Y3822
X-176Y4458
X-152Y4851
X-79Y-3346
X472Y3425
X1299Y3376
X1485Y3723
X1595Y4657
X1770Y4304
X1829Y3914
X1929Y5079
X2008Y-4921
X2087Y-7008
X2400Y3408
X2402Y-3346
X2756Y-1063
X3661Y3622
X3661Y2835
X4370Y-4370
X4764Y-6969
X5157Y3770
X5591Y-827
X5906Y-3504
X6260Y1457
X6732Y1417
X6884Y-561
X7129Y-871
X7165Y1496
X7371Y-561
X7638Y1496
X7886Y-561
X7992Y2677
X8661Y-6732
X9094Y1614
X11929Y605
X12362Y1929
X12756Y-3228
X12795Y-512
X12795Y-6575
X13228Y3189
X14134Y276
X15000Y1181
X16339Y2598
X16496Y4606
X16890Y-118
X17047Y-3425
X17244Y-6614
X18622Y2480
X19882Y5630
X20787Y4528
X20866Y5630
X21102Y-118
X21102Y-6181
X21260Y-3307
X21378Y4685
X22087Y5315
X22362Y3228
X23465Y4882
X23898Y4921
X24724Y6654
X25039Y-6260
X26772Y7008
X26811Y5000
X28504Y4764
X28819Y-6535
X28858Y6929
T2
X-27000Y5000
X-27000Y-5000
X-26000Y5000
X-26000Y-5000
X-25000Y5000
X-25000Y-5000
X-24000Y5000
X-24000Y-5000
X-23000Y5000
X-23000Y-5000
X-22000Y5000
X-22000Y-5000
X-21000Y5000
X-21000Y-5000
X-20000Y5000
X-20000Y-5000
X-19000Y5000
X-19000Y-5000
X-18000Y5000
X-18000Y-5000
X-17000Y5000
X-17000Y-5000
X-16000Y5000
X-16000Y-5000
X-15000Y5000
X-15000Y-5000
X-14000Y5000
X-14000Y-5000
X-13000Y5000
X-13000Y-5000
X6882Y-1346
X6882Y-2346
X6882Y-3346
X6882Y-4346
X6882Y-5346
X10555Y-400
X10555Y-1400
X10555Y-2400
X10555Y-3400
X10555Y-4400
X10555Y-5400
X-362Y5661
X638Y5661
X638Y1661
X1638Y5661
X1638Y1661
X2638Y5661
X2638Y1661
X3638Y5661
X3638Y1661
X4638Y5661
X4638Y1661
X5638Y5661
T3
X28320Y3500
X28320Y2500
X28320Y1500
X28320Y500
X28320Y-500
X28320Y-1500
X28320Y-2500
X28320Y-3500
X-28268Y3500
X-28268Y2500
X-28268Y1500
X-28268Y500
X-28268Y-500
X-28268Y-1500
X-28268Y-2500
X-28268Y-3500
X-27000Y-6250
X-26000Y-6250
X-25000Y-6250
X-24000Y-6250
X-23000Y-6250
X-22000Y-6250
X-21000Y-6250
X-20000Y-6250
X-19000Y-6250
X-18000Y-6250
X-17000Y-6250
X-16000Y-6250
X-15000Y-6250
X-14000Y-6250
X-13000Y-6250
X-24449Y3500
X-24449Y2500
X-24449Y1500
X-24449Y500
X-24449Y-500
X-24449Y-1500
X-24449Y-2500
X-24449Y-3500
X19764Y4606
X22756Y4606
X-27000Y6250
X-26000Y6250
X-25000Y6250
X-24000Y6250
X-23000Y6250
X-22000Y6250
X-21000Y6250
X-20000Y6250
X-19000Y6250
X-18000Y6250
X-17000Y6250
X-16000Y6250
X-15000Y6250
X-14000Y6250
X-13000Y6250
X-26878Y3500
X-26878Y2500
X-26878Y1500
X-26878Y500
X-26878Y-500
X-26878Y-1500
X-26878Y-2500
X-26878Y-3500
X-25878Y3500
X-25878Y2500
X-25878Y1500
X-25878Y500
X-25878Y-500
X-25878Y-1500
X-25878Y-2500
X-25878Y-3500
X8150Y-2323
X8150Y-3323
X8150Y-4323
X25878Y3500
X25878Y2500
X25878Y1500
X25878Y500
X25878Y-500
X25878Y-1500
X25878Y-2500
X25878Y-3500
X26878Y3500
X26878Y2500
X26878Y1500
X26878Y500
X26878Y-500
X26878Y-1500
X26878Y-2500
X26878Y-3500
X9449Y-2323
X9449Y-3323
X9449Y-4323
X24470Y3500
X24470Y2500
X24470Y1500
X24470Y500
X24470Y-500
X24470Y-1500
X24470Y-2500
X24470Y-3500
T4
X7101Y3770
X8661Y3770
X10221Y3770
X11781Y3770
T5
X-7165Y-6339
X-4606Y-6339
T6
X13780Y4213
X15630Y4213
X17480Y4213
T0
M30
