G04 #@! TF.GenerationSoftware,KiCad,Pcbnew,(5.1.4)-1*
G04 #@! TF.CreationDate,2021-03-05T08:28:38-08:00*
G04 #@! TF.ProjectId,BOMPanelClipon,424f4d50-616e-4656-9c43-6c69706f6e2e,rev?*
G04 #@! TF.SameCoordinates,Original*
G04 #@! TF.FileFunction,Legend,Top*
G04 #@! TF.FilePolarity,Positive*
%FSLAX46Y46*%
G04 Gerber Fmt 4.6, Leading zero omitted, Abs format (unit mm)*
G04 Created by KiCad (PCBNEW (5.1.4)-1) date 2021-03-05 08:28:38*
%MOMM*%
%LPD*%
G04 APERTURE LIST*
%ADD10C,0.300000*%
%ADD11C,0.150000*%
%ADD12C,0.120000*%
%ADD13C,0.100000*%
%ADD14C,0.400000*%
%ADD15C,0.254000*%
G04 APERTURE END LIST*
D10*
X-29857142Y16107142D02*
X-29642857Y16035714D01*
X-29571428Y15964285D01*
X-29500000Y15821428D01*
X-29500000Y15607142D01*
X-29571428Y15464285D01*
X-29642857Y15392857D01*
X-29785714Y15321428D01*
X-30357142Y15321428D01*
X-30357142Y16821428D01*
X-29857142Y16821428D01*
X-29714285Y16750000D01*
X-29642857Y16678571D01*
X-29571428Y16535714D01*
X-29571428Y16392857D01*
X-29642857Y16250000D01*
X-29714285Y16178571D01*
X-29857142Y16107142D01*
X-30357142Y16107142D01*
X-28571428Y16821428D02*
X-28285714Y16821428D01*
X-28142857Y16750000D01*
X-28000000Y16607142D01*
X-27928571Y16321428D01*
X-27928571Y15821428D01*
X-28000000Y15535714D01*
X-28142857Y15392857D01*
X-28285714Y15321428D01*
X-28571428Y15321428D01*
X-28714285Y15392857D01*
X-28857142Y15535714D01*
X-28928571Y15821428D01*
X-28928571Y16321428D01*
X-28857142Y16607142D01*
X-28714285Y16750000D01*
X-28571428Y16821428D01*
X-27285714Y15321428D02*
X-27285714Y16821428D01*
X-26785714Y15750000D01*
X-26285714Y16821428D01*
X-26285714Y15321428D01*
X-24428571Y15321428D02*
X-24428571Y16821428D01*
X-23857142Y16821428D01*
X-23714285Y16750000D01*
X-23642857Y16678571D01*
X-23571428Y16535714D01*
X-23571428Y16321428D01*
X-23642857Y16178571D01*
X-23714285Y16107142D01*
X-23857142Y16035714D01*
X-24428571Y16035714D01*
X-22285714Y15321428D02*
X-22285714Y16107142D01*
X-22357142Y16250000D01*
X-22500000Y16321428D01*
X-22785714Y16321428D01*
X-22928571Y16250000D01*
X-22285714Y15392857D02*
X-22428571Y15321428D01*
X-22785714Y15321428D01*
X-22928571Y15392857D01*
X-23000000Y15535714D01*
X-23000000Y15678571D01*
X-22928571Y15821428D01*
X-22785714Y15892857D01*
X-22428571Y15892857D01*
X-22285714Y15964285D01*
X-21571428Y16321428D02*
X-21571428Y15321428D01*
X-21571428Y16178571D02*
X-21500000Y16250000D01*
X-21357142Y16321428D01*
X-21142857Y16321428D01*
X-21000000Y16250000D01*
X-20928571Y16107142D01*
X-20928571Y15321428D01*
X-19642857Y15392857D02*
X-19785714Y15321428D01*
X-20071428Y15321428D01*
X-20214285Y15392857D01*
X-20285714Y15535714D01*
X-20285714Y16107142D01*
X-20214285Y16250000D01*
X-20071428Y16321428D01*
X-19785714Y16321428D01*
X-19642857Y16250000D01*
X-19571428Y16107142D01*
X-19571428Y15964285D01*
X-20285714Y15821428D01*
X-18714285Y15321428D02*
X-18857142Y15392857D01*
X-18928571Y15535714D01*
X-18928571Y16821428D01*
X-16142857Y15464285D02*
X-16214285Y15392857D01*
X-16428571Y15321428D01*
X-16571428Y15321428D01*
X-16785714Y15392857D01*
X-16928571Y15535714D01*
X-17000000Y15678571D01*
X-17071428Y15964285D01*
X-17071428Y16178571D01*
X-17000000Y16464285D01*
X-16928571Y16607142D01*
X-16785714Y16750000D01*
X-16571428Y16821428D01*
X-16428571Y16821428D01*
X-16214285Y16750000D01*
X-16142857Y16678571D01*
X-15285714Y15321428D02*
X-15428571Y15392857D01*
X-15500000Y15535714D01*
X-15500000Y16821428D01*
X-14714285Y15321428D02*
X-14714285Y16321428D01*
X-14714285Y16821428D02*
X-14785714Y16750000D01*
X-14714285Y16678571D01*
X-14642857Y16750000D01*
X-14714285Y16821428D01*
X-14714285Y16678571D01*
X-14000000Y16321428D02*
X-14000000Y14821428D01*
X-14000000Y16250000D02*
X-13857142Y16321428D01*
X-13571428Y16321428D01*
X-13428571Y16250000D01*
X-13357142Y16178571D01*
X-13285714Y16035714D01*
X-13285714Y15607142D01*
X-13357142Y15464285D01*
X-13428571Y15392857D01*
X-13571428Y15321428D01*
X-13857142Y15321428D01*
X-14000000Y15392857D01*
X-12428571Y15321428D02*
X-12571428Y15392857D01*
X-12642857Y15464285D01*
X-12714285Y15607142D01*
X-12714285Y16035714D01*
X-12642857Y16178571D01*
X-12571428Y16250000D01*
X-12428571Y16321428D01*
X-12214285Y16321428D01*
X-12071428Y16250000D01*
X-12000000Y16178571D01*
X-11928571Y16035714D01*
X-11928571Y15607142D01*
X-12000000Y15464285D01*
X-12071428Y15392857D01*
X-12214285Y15321428D01*
X-12428571Y15321428D01*
X-11285714Y16321428D02*
X-11285714Y15321428D01*
X-11285714Y16178571D02*
X-11214285Y16250000D01*
X-11071428Y16321428D01*
X-10857142Y16321428D01*
X-10714285Y16250000D01*
X-10642857Y16107142D01*
X-10642857Y15321428D01*
X-9000000Y16821428D02*
X-8500000Y15321428D01*
X-8000000Y16821428D01*
X-7214285Y16821428D02*
X-7071428Y16821428D01*
X-6928571Y16750000D01*
X-6857142Y16678571D01*
X-6785714Y16535714D01*
X-6714285Y16250000D01*
X-6714285Y15892857D01*
X-6785714Y15607142D01*
X-6857142Y15464285D01*
X-6928571Y15392857D01*
X-7071428Y15321428D01*
X-7214285Y15321428D01*
X-7357142Y15392857D01*
X-7428571Y15464285D01*
X-7500000Y15607142D01*
X-7571428Y15892857D01*
X-7571428Y16250000D01*
X-7500000Y16535714D01*
X-7428571Y16678571D01*
X-7357142Y16750000D01*
X-7214285Y16821428D01*
X-6071428Y15464285D02*
X-6000000Y15392857D01*
X-6071428Y15321428D01*
X-6142857Y15392857D01*
X-6071428Y15464285D01*
X-6071428Y15321428D01*
X-5428571Y16678571D02*
X-5357142Y16750000D01*
X-5214285Y16821428D01*
X-4857142Y16821428D01*
X-4714285Y16750000D01*
X-4642857Y16678571D01*
X-4571428Y16535714D01*
X-4571428Y16392857D01*
X-4642857Y16178571D01*
X-5500000Y15321428D01*
X-4571428Y15321428D01*
D11*
X31833333Y15847619D02*
X31357142Y15847619D01*
X31309523Y15371428D01*
X31357142Y15419047D01*
X31452380Y15466666D01*
X31690476Y15466666D01*
X31785714Y15419047D01*
X31833333Y15371428D01*
X31880952Y15276190D01*
X31880952Y15038095D01*
X31833333Y14942857D01*
X31785714Y14895238D01*
X31690476Y14847619D01*
X31452380Y14847619D01*
X31357142Y14895238D01*
X31309523Y14942857D01*
X32166666Y15847619D02*
X32500000Y14847619D01*
X32833333Y15847619D01*
X33357142Y15847619D02*
X33452380Y15847619D01*
X33547619Y15800000D01*
X33595238Y15752380D01*
X33642857Y15657142D01*
X33690476Y15466666D01*
X33690476Y15228571D01*
X33642857Y15038095D01*
X33595238Y14942857D01*
X33547619Y14895238D01*
X33452380Y14847619D01*
X33357142Y14847619D01*
X33261904Y14895238D01*
X33214285Y14942857D01*
X33166666Y15038095D01*
X33119047Y15228571D01*
X33119047Y15466666D01*
X33166666Y15657142D01*
X33214285Y15752380D01*
X33261904Y15800000D01*
X33357142Y15847619D01*
X31261904Y17847619D02*
X31880952Y17847619D01*
X31547619Y17466666D01*
X31690476Y17466666D01*
X31785714Y17419047D01*
X31833333Y17371428D01*
X31880952Y17276190D01*
X31880952Y17038095D01*
X31833333Y16942857D01*
X31785714Y16895238D01*
X31690476Y16847619D01*
X31404761Y16847619D01*
X31309523Y16895238D01*
X31261904Y16942857D01*
X32166666Y17847619D02*
X32500000Y16847619D01*
X32833333Y17847619D01*
X33071428Y17847619D02*
X33690476Y17847619D01*
X33357142Y17466666D01*
X33500000Y17466666D01*
X33595238Y17419047D01*
X33642857Y17371428D01*
X33690476Y17276190D01*
X33690476Y17038095D01*
X33642857Y16942857D01*
X33595238Y16895238D01*
X33500000Y16847619D01*
X33214285Y16847619D01*
X33119047Y16895238D01*
X33071428Y16942857D01*
D12*
X18750000Y-1261000D02*
X-6650000Y-1261000D01*
X18750000Y-1261000D02*
X18750000Y-15739000D01*
X-6650000Y-15739000D02*
X18750000Y-15739000D01*
X-6650000Y-15739000D02*
X-6650000Y-1261000D01*
X4526000Y-8500000D02*
G75*
G03X4526000Y-8500000I-4826000J0D01*
G01*
X-4110000Y-3420000D02*
G75*
G03X-4110000Y-3420000I-1270000J0D01*
G01*
X-4110000Y-13580000D02*
G75*
G03X-4110000Y-13580000I-1270000J0D01*
G01*
X-59537600Y10220000D02*
X-58207600Y10220000D01*
X-58207600Y10220000D02*
X-58207600Y8890000D01*
X-58207600Y7620000D02*
X-58207600Y-10220000D01*
X-60867600Y-10220000D02*
X-58207600Y-10220000D01*
X-60867600Y7620000D02*
X-60867600Y-10220000D01*
X-60867600Y7620000D02*
X-58207600Y7620000D01*
X27558578Y13810000D02*
X27041422Y13810000D01*
X27558578Y12390000D02*
X27041422Y12390000D01*
X24058578Y13810000D02*
X23541422Y13810000D01*
X24058578Y12390000D02*
X23541422Y12390000D01*
X20041422Y13810000D02*
X20558578Y13810000D01*
X20041422Y12390000D02*
X20558578Y12390000D01*
X33020000Y4127500D02*
X74930000Y4127500D01*
X33020000Y-18859500D02*
X74930000Y-18859500D01*
X74930000Y-18859500D02*
X74930000Y4127500D01*
X33020000Y4127500D02*
X33020000Y-18859500D01*
X36068000Y2540000D02*
G75*
G03X36068000Y2540000I-1016000J0D01*
G01*
X73914000Y2540000D02*
G75*
G03X73914000Y2540000I-1016000J0D01*
G01*
X73914000Y-17272000D02*
G75*
G03X73914000Y-17272000I-1016000J0D01*
G01*
X36068000Y-17272000D02*
G75*
G03X36068000Y-17272000I-1016000J0D01*
G01*
X25527000Y254000D02*
X38176200Y254000D01*
X25527000Y-14986000D02*
X38176200Y-14986000D01*
X25527000Y254000D02*
X25527000Y-14986000D01*
X38176200Y254000D02*
X38176200Y-14986000D01*
X35636200Y-14986000D02*
X35636200Y254000D01*
X-24130000Y13995400D02*
X-74676000Y13995400D01*
X-74676000Y13995400D02*
X-74676000Y-13995400D01*
X-74676000Y-13995400D02*
X-24130000Y-13995400D01*
X-24130000Y-13995400D02*
X-24130000Y-4699000D01*
X-24130000Y-4699000D02*
X-24892000Y-4318000D01*
X-24892000Y-4318000D02*
X-24892000Y4318000D01*
X-24130000Y13995400D02*
X-24130000Y4699000D01*
X-24130000Y4699000D02*
X-24892000Y4318000D01*
X-25146000Y-11557000D02*
G75*
G03X-25146000Y-11557000I-1397000J0D01*
G01*
X-70485000Y-11557000D02*
G75*
G03X-70485000Y-11557000I-1397000J0D01*
G01*
X-25146000Y11303000D02*
G75*
G03X-25146000Y11303000I-1397000J0D01*
G01*
X-70485000Y11303000D02*
G75*
G03X-70485000Y11303000I-1397000J0D01*
G01*
X15304250Y8030000D02*
G75*
G03X15304250Y8030000I-1403350J0D01*
G01*
X902450Y8030000D02*
G75*
G03X902450Y8030000I-1403350J0D01*
G01*
X15844000Y2886500D02*
X-2444000Y2886500D01*
X-2444000Y15713500D02*
X15844000Y15713500D01*
X15844000Y15713500D02*
X15844000Y2886500D01*
X-2444000Y15713500D02*
X-2444000Y2886500D01*
X36700000Y18360000D02*
X34015000Y18360000D01*
X34015000Y18360000D02*
X34015000Y16440000D01*
X34015000Y16440000D02*
X36700000Y16440000D01*
X34015000Y14340000D02*
X36700000Y14340000D01*
X34015000Y16260000D02*
X34015000Y14340000D01*
X36700000Y16260000D02*
X34015000Y16260000D01*
X26500000Y540000D02*
X29185000Y540000D01*
X29185000Y540000D02*
X29185000Y2460000D01*
X29185000Y2460000D02*
X26500000Y2460000D01*
X-34290000Y-14545000D02*
X-34290000Y-17205000D01*
X-34290000Y-14545000D02*
X-69910000Y-14545000D01*
X-69910000Y-14545000D02*
X-69910000Y-17205000D01*
X-34290000Y-17205000D02*
X-69910000Y-17205000D01*
X-31690000Y-17205000D02*
X-33020000Y-17205000D01*
X-31690000Y-15875000D02*
X-31690000Y-17205000D01*
X-69910000Y15875000D02*
X-69910000Y17205000D01*
X-69910000Y17205000D02*
X-68580000Y17205000D01*
X-67310000Y17205000D02*
X-31690000Y17205000D01*
X-31690000Y14545000D02*
X-31690000Y17205000D01*
X-67310000Y14545000D02*
X-31690000Y14545000D01*
X-67310000Y14545000D02*
X-67310000Y17205000D01*
X-70621200Y7620000D02*
X-67961200Y7620000D01*
X-70621200Y7620000D02*
X-70621200Y-10220000D01*
X-70621200Y-10220000D02*
X-67961200Y-10220000D01*
X-67961200Y7620000D02*
X-67961200Y-10220000D01*
X-67961200Y10220000D02*
X-67961200Y8890000D01*
X-69291200Y10220000D02*
X-67961200Y10220000D01*
X60823800Y7620000D02*
X63483800Y7620000D01*
X60823800Y7620000D02*
X60823800Y-10220000D01*
X60823800Y-10220000D02*
X63483800Y-10220000D01*
X63483800Y7620000D02*
X63483800Y-10220000D01*
X63483800Y10220000D02*
X63483800Y8890000D01*
X62153800Y10220000D02*
X63483800Y10220000D01*
X71932800Y10220000D02*
X73262800Y10220000D01*
X73262800Y10220000D02*
X73262800Y8890000D01*
X73262800Y7620000D02*
X73262800Y-10220000D01*
X70602800Y-10220000D02*
X73262800Y-10220000D01*
X70602800Y7620000D02*
X70602800Y-10220000D01*
X70602800Y7620000D02*
X73262800Y7620000D01*
X39458578Y16690000D02*
X38941422Y16690000D01*
X39458578Y18110000D02*
X38941422Y18110000D01*
X39458578Y14590000D02*
X38941422Y14590000D01*
X39458578Y16010000D02*
X38941422Y16010000D01*
X23741422Y790000D02*
X24258578Y790000D01*
X23741422Y2210000D02*
X24258578Y2210000D01*
X60100000Y11700000D02*
G75*
G03X60100000Y11700000I-6100000J0D01*
G01*
X29185000Y4560000D02*
X26500000Y4560000D01*
X29185000Y2640000D02*
X29185000Y4560000D01*
X26500000Y2640000D02*
X29185000Y2640000D01*
X26500000Y4740000D02*
X29185000Y4740000D01*
X29185000Y4740000D02*
X29185000Y6660000D01*
X29185000Y6660000D02*
X26500000Y6660000D01*
X41085000Y7160000D02*
X38400000Y7160000D01*
X41085000Y5240000D02*
X41085000Y7160000D01*
X38400000Y5240000D02*
X41085000Y5240000D01*
X19370000Y-12310000D02*
X22030000Y-12310000D01*
X19370000Y-7170000D02*
X19370000Y-12310000D01*
X22030000Y-7170000D02*
X22030000Y-12310000D01*
X19370000Y-7170000D02*
X22030000Y-7170000D01*
X19370000Y-5900000D02*
X19370000Y-4570000D01*
X19370000Y-4570000D02*
X20700000Y-4570000D01*
X22670000Y-4570000D02*
X24000000Y-4570000D01*
X22670000Y-5900000D02*
X22670000Y-4570000D01*
X22670000Y-7170000D02*
X25330000Y-7170000D01*
X25330000Y-7170000D02*
X25330000Y-12310000D01*
X22670000Y-7170000D02*
X22670000Y-12310000D01*
X22670000Y-12310000D02*
X25330000Y-12310000D01*
X61940000Y17280000D02*
X61940000Y16350000D01*
X61940000Y14120000D02*
X61940000Y15050000D01*
X61940000Y14120000D02*
X65100000Y14120000D01*
X61940000Y17280000D02*
X63400000Y17280000D01*
X23741422Y2890000D02*
X24258578Y2890000D01*
X23741422Y4310000D02*
X24258578Y4310000D01*
X23741422Y6410000D02*
X24258578Y6410000D01*
X23741422Y4990000D02*
X24258578Y4990000D01*
X66941422Y14090000D02*
X67458578Y14090000D01*
X66941422Y15510000D02*
X67458578Y15510000D01*
X35641422Y6910000D02*
X36158578Y6910000D01*
X35641422Y5490000D02*
X36158578Y5490000D01*
D13*
X20750000Y18650000D02*
X26750000Y18650000D01*
X20750000Y15150000D02*
X26750000Y15150000D01*
D14*
X32200000Y10700000D02*
G75*
G02X32100000Y10700000I-50000J0D01*
G01*
X32100000Y10700000D02*
G75*
G02X32200000Y10700000I50000J0D01*
G01*
X32100000Y10700000D02*
X32100000Y10700000D01*
X32200000Y10700000D02*
X32200000Y10700000D01*
D13*
X41200000Y17940000D02*
X41200000Y13700000D01*
X38200000Y17940000D02*
X41200000Y17940000D01*
X38200000Y13875000D02*
X38200000Y17940000D01*
X33215000Y7525000D02*
X33215000Y13875000D01*
X46200000Y7525000D02*
X33215000Y7525000D01*
X46200000Y13875000D02*
X46200000Y7525000D01*
X33215000Y13875000D02*
X46200000Y13875000D01*
D11*
X14686095Y302619D02*
X14686095Y-506904D01*
X14733714Y-602142D01*
X14781333Y-649761D01*
X14876571Y-697380D01*
X15067047Y-697380D01*
X15162285Y-649761D01*
X15209904Y-602142D01*
X15257523Y-506904D01*
X15257523Y302619D01*
X16162285Y-30714D02*
X16162285Y-697380D01*
X15924190Y350238D02*
X15686095Y-364047D01*
X16305142Y-364047D01*
X29833333Y12742857D02*
X29785714Y12695238D01*
X29642857Y12647619D01*
X29547619Y12647619D01*
X29404761Y12695238D01*
X29309523Y12790476D01*
X29261904Y12885714D01*
X29214285Y13076190D01*
X29214285Y13219047D01*
X29261904Y13409523D01*
X29309523Y13504761D01*
X29404761Y13600000D01*
X29547619Y13647619D01*
X29642857Y13647619D01*
X29785714Y13600000D01*
X29833333Y13552380D01*
X30785714Y12647619D02*
X30214285Y12647619D01*
X30500000Y12647619D02*
X30500000Y13647619D01*
X30404761Y13504761D01*
X30309523Y13409523D01*
X30214285Y13361904D01*
X26357142Y12647619D02*
X26023809Y13123809D01*
X25785714Y12647619D02*
X25785714Y13647619D01*
X26166666Y13647619D01*
X26261904Y13600000D01*
X26309523Y13552380D01*
X26357142Y13457142D01*
X26357142Y13314285D01*
X26309523Y13219047D01*
X26261904Y13171428D01*
X26166666Y13123809D01*
X25785714Y13123809D01*
X27309523Y12647619D02*
X26738095Y12647619D01*
X27023809Y12647619D02*
X27023809Y13647619D01*
X26928571Y13504761D01*
X26833333Y13409523D01*
X26738095Y13361904D01*
X27642857Y13647619D02*
X28261904Y13647619D01*
X27928571Y13266666D01*
X28071428Y13266666D01*
X28166666Y13219047D01*
X28214285Y13171428D01*
X28261904Y13076190D01*
X28261904Y12838095D01*
X28214285Y12742857D01*
X28166666Y12695238D01*
X28071428Y12647619D01*
X27785714Y12647619D01*
X27690476Y12695238D01*
X27642857Y12742857D01*
X16557142Y12647619D02*
X16223809Y13123809D01*
X15985714Y12647619D02*
X15985714Y13647619D01*
X16366666Y13647619D01*
X16461904Y13600000D01*
X16509523Y13552380D01*
X16557142Y13457142D01*
X16557142Y13314285D01*
X16509523Y13219047D01*
X16461904Y13171428D01*
X16366666Y13123809D01*
X15985714Y13123809D01*
X17509523Y12647619D02*
X16938095Y12647619D01*
X17223809Y12647619D02*
X17223809Y13647619D01*
X17128571Y13504761D01*
X17033333Y13409523D01*
X16938095Y13361904D01*
X17890476Y13552380D02*
X17938095Y13600000D01*
X18033333Y13647619D01*
X18271428Y13647619D01*
X18366666Y13600000D01*
X18414285Y13552380D01*
X18461904Y13457142D01*
X18461904Y13361904D01*
X18414285Y13219047D01*
X17842857Y12647619D01*
X18461904Y12647619D01*
X31138095Y1647619D02*
X31138095Y838095D01*
X31185714Y742857D01*
X31233333Y695238D01*
X31328571Y647619D01*
X31519047Y647619D01*
X31614285Y695238D01*
X31661904Y742857D01*
X31709523Y838095D01*
X31709523Y1647619D01*
X32138095Y1552380D02*
X32185714Y1600000D01*
X32280952Y1647619D01*
X32519047Y1647619D01*
X32614285Y1600000D01*
X32661904Y1552380D01*
X32709523Y1457142D01*
X32709523Y1361904D01*
X32661904Y1219047D01*
X32090476Y647619D01*
X32709523Y647619D01*
X-23277619Y-761904D02*
X-22468095Y-761904D01*
X-22372857Y-714285D01*
X-22325238Y-666666D01*
X-22277619Y-571428D01*
X-22277619Y-380952D01*
X-22325238Y-285714D01*
X-22372857Y-238095D01*
X-22468095Y-190476D01*
X-23277619Y-190476D01*
X-22277619Y809523D02*
X-22277619Y238095D01*
X-22277619Y523809D02*
X-23277619Y523809D01*
X-23134761Y428571D01*
X-23039523Y333333D01*
X-22991904Y238095D01*
X-4947619Y10238095D02*
X-4138095Y10238095D01*
X-4042857Y10285714D01*
X-3995238Y10333333D01*
X-3947619Y10428571D01*
X-3947619Y10619047D01*
X-3995238Y10714285D01*
X-4042857Y10761904D01*
X-4138095Y10809523D01*
X-4947619Y10809523D01*
X-4947619Y11190476D02*
X-4947619Y11809523D01*
X-4566666Y11476190D01*
X-4566666Y11619047D01*
X-4519047Y11714285D01*
X-4471428Y11761904D01*
X-4376190Y11809523D01*
X-4138095Y11809523D01*
X-4042857Y11761904D01*
X-3995238Y11714285D01*
X-3947619Y11619047D01*
X-3947619Y11333333D01*
X-3995238Y11238095D01*
X-4042857Y11190476D01*
X-30797619Y-16208333D02*
X-30083333Y-16208333D01*
X-29940476Y-16255952D01*
X-29845238Y-16351190D01*
X-29797619Y-16494047D01*
X-29797619Y-16589285D01*
X-30702380Y-15779761D02*
X-30750000Y-15732142D01*
X-30797619Y-15636904D01*
X-30797619Y-15398809D01*
X-30750000Y-15303571D01*
X-30702380Y-15255952D01*
X-30607142Y-15208333D01*
X-30511904Y-15208333D01*
X-30369047Y-15255952D01*
X-29797619Y-15827380D01*
X-29797619Y-15208333D01*
X-71897619Y15541666D02*
X-71183333Y15541666D01*
X-71040476Y15494047D01*
X-70945238Y15398809D01*
X-70897619Y15255952D01*
X-70897619Y15160714D01*
X-71897619Y15922619D02*
X-71897619Y16541666D01*
X-71516666Y16208333D01*
X-71516666Y16351190D01*
X-71469047Y16446428D01*
X-71421428Y16494047D01*
X-71326190Y16541666D01*
X-71088095Y16541666D01*
X-70992857Y16494047D01*
X-70945238Y16446428D01*
X-70897619Y16351190D01*
X-70897619Y16065476D01*
X-70945238Y15970238D01*
X-70992857Y15922619D01*
X41633333Y16947619D02*
X41300000Y17423809D01*
X41061904Y16947619D02*
X41061904Y17947619D01*
X41442857Y17947619D01*
X41538095Y17900000D01*
X41585714Y17852380D01*
X41633333Y17757142D01*
X41633333Y17614285D01*
X41585714Y17519047D01*
X41538095Y17471428D01*
X41442857Y17423809D01*
X41061904Y17423809D01*
X42585714Y16947619D02*
X42014285Y16947619D01*
X42300000Y16947619D02*
X42300000Y17947619D01*
X42204761Y17804761D01*
X42109523Y17709523D01*
X42014285Y17661904D01*
X41633333Y14947619D02*
X41300000Y15423809D01*
X41061904Y14947619D02*
X41061904Y15947619D01*
X41442857Y15947619D01*
X41538095Y15900000D01*
X41585714Y15852380D01*
X41633333Y15757142D01*
X41633333Y15614285D01*
X41585714Y15519047D01*
X41538095Y15471428D01*
X41442857Y15423809D01*
X41061904Y15423809D01*
X42014285Y15852380D02*
X42061904Y15900000D01*
X42157142Y15947619D01*
X42395238Y15947619D01*
X42490476Y15900000D01*
X42538095Y15852380D01*
X42585714Y15757142D01*
X42585714Y15661904D01*
X42538095Y15519047D01*
X41966666Y14947619D01*
X42585714Y14947619D01*
X21233333Y1147619D02*
X20900000Y1623809D01*
X20661904Y1147619D02*
X20661904Y2147619D01*
X21042857Y2147619D01*
X21138095Y2100000D01*
X21185714Y2052380D01*
X21233333Y1957142D01*
X21233333Y1814285D01*
X21185714Y1719047D01*
X21138095Y1671428D01*
X21042857Y1623809D01*
X20661904Y1623809D01*
X22138095Y2147619D02*
X21661904Y2147619D01*
X21614285Y1671428D01*
X21661904Y1719047D01*
X21757142Y1766666D01*
X21995238Y1766666D01*
X22090476Y1719047D01*
X22138095Y1671428D01*
X22185714Y1576190D01*
X22185714Y1338095D01*
X22138095Y1242857D01*
X22090476Y1195238D01*
X21995238Y1147619D01*
X21757142Y1147619D01*
X21661904Y1195238D01*
X21614285Y1242857D01*
X55619047Y14071428D02*
X55761904Y14023809D01*
X55809523Y13976190D01*
X55857142Y13880952D01*
X55857142Y13738095D01*
X55809523Y13642857D01*
X55761904Y13595238D01*
X55666666Y13547619D01*
X55285714Y13547619D01*
X55285714Y14547619D01*
X55619047Y14547619D01*
X55714285Y14500000D01*
X55761904Y14452380D01*
X55809523Y14357142D01*
X55809523Y14261904D01*
X55761904Y14166666D01*
X55714285Y14119047D01*
X55619047Y14071428D01*
X55285714Y14071428D01*
X56190476Y14547619D02*
X56857142Y14547619D01*
X56190476Y13547619D01*
X56857142Y13547619D01*
X57761904Y13547619D02*
X57190476Y13547619D01*
X57476190Y13547619D02*
X57476190Y14547619D01*
X57380952Y14404761D01*
X57285714Y14309523D01*
X57190476Y14261904D01*
X49809047Y14168571D02*
X50570952Y14168571D01*
X50190000Y13787619D02*
X50190000Y14549523D01*
X38185714Y4097619D02*
X38185714Y5097619D01*
X38423809Y5097619D01*
X38566666Y5050000D01*
X38661904Y4954761D01*
X38709523Y4859523D01*
X38757142Y4669047D01*
X38757142Y4526190D01*
X38709523Y4335714D01*
X38661904Y4240476D01*
X38566666Y4145238D01*
X38423809Y4097619D01*
X38185714Y4097619D01*
X39709523Y4097619D02*
X39138095Y4097619D01*
X39423809Y4097619D02*
X39423809Y5097619D01*
X39328571Y4954761D01*
X39233333Y4859523D01*
X39138095Y4811904D01*
X40328571Y5097619D02*
X40423809Y5097619D01*
X40519047Y5050000D01*
X40566666Y5002380D01*
X40614285Y4907142D01*
X40661904Y4716666D01*
X40661904Y4478571D01*
X40614285Y4288095D01*
X40566666Y4192857D01*
X40519047Y4145238D01*
X40423809Y4097619D01*
X40328571Y4097619D01*
X40233333Y4145238D01*
X40185714Y4192857D01*
X40138095Y4288095D01*
X40090476Y4478571D01*
X40090476Y4716666D01*
X40138095Y4907142D01*
X40185714Y5002380D01*
X40233333Y5050000D01*
X40328571Y5097619D01*
X19866666Y-3022380D02*
X19866666Y-3736666D01*
X19819047Y-3879523D01*
X19723809Y-3974761D01*
X19580952Y-4022380D01*
X19485714Y-4022380D01*
X20342857Y-4022380D02*
X20342857Y-3022380D01*
X20723809Y-3022380D01*
X20819047Y-3070000D01*
X20866666Y-3117619D01*
X20914285Y-3212857D01*
X20914285Y-3355714D01*
X20866666Y-3450952D01*
X20819047Y-3498571D01*
X20723809Y-3546190D01*
X20342857Y-3546190D01*
X21866666Y-4022380D02*
X21295238Y-4022380D01*
X21580952Y-4022380D02*
X21580952Y-3022380D01*
X21485714Y-3165238D01*
X21390476Y-3260476D01*
X21295238Y-3308095D01*
X23166666Y-3022380D02*
X23166666Y-3736666D01*
X23119047Y-3879523D01*
X23023809Y-3974761D01*
X22880952Y-4022380D01*
X22785714Y-4022380D01*
X23642857Y-4022380D02*
X23642857Y-3022380D01*
X24023809Y-3022380D01*
X24119047Y-3070000D01*
X24166666Y-3117619D01*
X24214285Y-3212857D01*
X24214285Y-3355714D01*
X24166666Y-3450952D01*
X24119047Y-3498571D01*
X24023809Y-3546190D01*
X23642857Y-3546190D01*
X24595238Y-3117619D02*
X24642857Y-3070000D01*
X24738095Y-3022380D01*
X24976190Y-3022380D01*
X25071428Y-3070000D01*
X25119047Y-3117619D01*
X25166666Y-3212857D01*
X25166666Y-3308095D01*
X25119047Y-3450952D01*
X24547619Y-4022380D01*
X25166666Y-4022380D01*
X62604761Y12652380D02*
X62509523Y12700000D01*
X62414285Y12795238D01*
X62271428Y12938095D01*
X62176190Y12985714D01*
X62080952Y12985714D01*
X62128571Y12747619D02*
X62033333Y12795238D01*
X61938095Y12890476D01*
X61890476Y13080952D01*
X61890476Y13414285D01*
X61938095Y13604761D01*
X62033333Y13700000D01*
X62128571Y13747619D01*
X62319047Y13747619D01*
X62414285Y13700000D01*
X62509523Y13604761D01*
X62557142Y13414285D01*
X62557142Y13080952D01*
X62509523Y12890476D01*
X62414285Y12795238D01*
X62319047Y12747619D01*
X62128571Y12747619D01*
X63509523Y12747619D02*
X62938095Y12747619D01*
X63223809Y12747619D02*
X63223809Y13747619D01*
X63128571Y13604761D01*
X63033333Y13509523D01*
X62938095Y13461904D01*
X21233333Y3147619D02*
X20900000Y3623809D01*
X20661904Y3147619D02*
X20661904Y4147619D01*
X21042857Y4147619D01*
X21138095Y4100000D01*
X21185714Y4052380D01*
X21233333Y3957142D01*
X21233333Y3814285D01*
X21185714Y3719047D01*
X21138095Y3671428D01*
X21042857Y3623809D01*
X20661904Y3623809D01*
X21566666Y4147619D02*
X22185714Y4147619D01*
X21852380Y3766666D01*
X21995238Y3766666D01*
X22090476Y3719047D01*
X22138095Y3671428D01*
X22185714Y3576190D01*
X22185714Y3338095D01*
X22138095Y3242857D01*
X22090476Y3195238D01*
X21995238Y3147619D01*
X21709523Y3147619D01*
X21614285Y3195238D01*
X21566666Y3242857D01*
X21233333Y5247619D02*
X20900000Y5723809D01*
X20661904Y5247619D02*
X20661904Y6247619D01*
X21042857Y6247619D01*
X21138095Y6200000D01*
X21185714Y6152380D01*
X21233333Y6057142D01*
X21233333Y5914285D01*
X21185714Y5819047D01*
X21138095Y5771428D01*
X21042857Y5723809D01*
X20661904Y5723809D01*
X22090476Y5914285D02*
X22090476Y5247619D01*
X21852380Y6295238D02*
X21614285Y5580952D01*
X22233333Y5580952D01*
X66557142Y15997619D02*
X66223809Y16473809D01*
X65985714Y15997619D02*
X65985714Y16997619D01*
X66366666Y16997619D01*
X66461904Y16950000D01*
X66509523Y16902380D01*
X66557142Y16807142D01*
X66557142Y16664285D01*
X66509523Y16569047D01*
X66461904Y16521428D01*
X66366666Y16473809D01*
X65985714Y16473809D01*
X67509523Y15997619D02*
X66938095Y15997619D01*
X67223809Y15997619D02*
X67223809Y16997619D01*
X67128571Y16854761D01*
X67033333Y16759523D01*
X66938095Y16711904D01*
X68461904Y15997619D02*
X67890476Y15997619D01*
X68176190Y15997619D02*
X68176190Y16997619D01*
X68080952Y16854761D01*
X67985714Y16759523D01*
X67890476Y16711904D01*
X35257142Y7397619D02*
X34923809Y7873809D01*
X34685714Y7397619D02*
X34685714Y8397619D01*
X35066666Y8397619D01*
X35161904Y8350000D01*
X35209523Y8302380D01*
X35257142Y8207142D01*
X35257142Y8064285D01*
X35209523Y7969047D01*
X35161904Y7921428D01*
X35066666Y7873809D01*
X34685714Y7873809D01*
X36209523Y7397619D02*
X35638095Y7397619D01*
X35923809Y7397619D02*
X35923809Y8397619D01*
X35828571Y8254761D01*
X35733333Y8159523D01*
X35638095Y8111904D01*
X36828571Y8397619D02*
X36923809Y8397619D01*
X37019047Y8350000D01*
X37066666Y8302380D01*
X37114285Y8207142D01*
X37161904Y8016666D01*
X37161904Y7778571D01*
X37114285Y7588095D01*
X37066666Y7492857D01*
X37019047Y7445238D01*
X36923809Y7397619D01*
X36828571Y7397619D01*
X36733333Y7445238D01*
X36685714Y7492857D01*
X36638095Y7588095D01*
X36590476Y7778571D01*
X36590476Y8016666D01*
X36638095Y8207142D01*
X36685714Y8302380D01*
X36733333Y8350000D01*
X36828571Y8397619D01*
D15*
X22782380Y16385952D02*
X22963809Y16325476D01*
X23266190Y16325476D01*
X23387142Y16385952D01*
X23447619Y16446428D01*
X23508095Y16567380D01*
X23508095Y16688333D01*
X23447619Y16809285D01*
X23387142Y16869761D01*
X23266190Y16930238D01*
X23024285Y16990714D01*
X22903333Y17051190D01*
X22842857Y17111666D01*
X22782380Y17232619D01*
X22782380Y17353571D01*
X22842857Y17474523D01*
X22903333Y17535000D01*
X23024285Y17595476D01*
X23326666Y17595476D01*
X23508095Y17535000D01*
X24717619Y16325476D02*
X23991904Y16325476D01*
X24354761Y16325476D02*
X24354761Y17595476D01*
X24233809Y17414047D01*
X24112857Y17293095D01*
X23991904Y17232619D01*
X44871904Y15795476D02*
X44871904Y14888333D01*
X44811428Y14706904D01*
X44690476Y14585952D01*
X44509047Y14525476D01*
X44388095Y14525476D01*
X46141904Y14525476D02*
X45416190Y14525476D01*
X45779047Y14525476D02*
X45779047Y15795476D01*
X45658095Y15614047D01*
X45537142Y15493095D01*
X45416190Y15432619D01*
X46928095Y15795476D02*
X47049047Y15795476D01*
X47170000Y15735000D01*
X47230476Y15674523D01*
X47290952Y15553571D01*
X47351428Y15311666D01*
X47351428Y15009285D01*
X47290952Y14767380D01*
X47230476Y14646428D01*
X47170000Y14585952D01*
X47049047Y14525476D01*
X46928095Y14525476D01*
X46807142Y14585952D01*
X46746666Y14646428D01*
X46686190Y14767380D01*
X46625714Y15009285D01*
X46625714Y15311666D01*
X46686190Y15553571D01*
X46746666Y15674523D01*
X46807142Y15735000D01*
X46928095Y15795476D01*
M02*
