G04 #@! TF.GenerationSoftware,KiCad,Pcbnew,(5.1.4)-1*
G04 #@! TF.CreationDate,2021-03-05T08:28:38-08:00*
G04 #@! TF.ProjectId,BOMPanelClipon,424f4d50-616e-4656-9c43-6c69706f6e2e,rev?*
G04 #@! TF.SameCoordinates,Original*
G04 #@! TF.FileFunction,Paste,Top*
G04 #@! TF.FilePolarity,Positive*
%FSLAX46Y46*%
G04 Gerber Fmt 4.6, Leading zero omitted, Abs format (unit mm)*
G04 Created by KiCad (PCBNEW (5.1.4)-1) date 2021-03-05 08:28:38*
%MOMM*%
%LPD*%
G04 APERTURE LIST*
%ADD10C,0.100000*%
%ADD11C,0.975000*%
%ADD12R,1.900000X0.800000*%
G04 APERTURE END LIST*
D10*
G36*
X26630142Y13798826D02*
G01*
X26653803Y13795316D01*
X26677007Y13789504D01*
X26699529Y13781446D01*
X26721153Y13771218D01*
X26741670Y13758921D01*
X26760883Y13744671D01*
X26778607Y13728607D01*
X26794671Y13710883D01*
X26808921Y13691670D01*
X26821218Y13671153D01*
X26831446Y13649529D01*
X26839504Y13627007D01*
X26845316Y13603803D01*
X26848826Y13580142D01*
X26850000Y13556250D01*
X26850000Y12643750D01*
X26848826Y12619858D01*
X26845316Y12596197D01*
X26839504Y12572993D01*
X26831446Y12550471D01*
X26821218Y12528847D01*
X26808921Y12508330D01*
X26794671Y12489117D01*
X26778607Y12471393D01*
X26760883Y12455329D01*
X26741670Y12441079D01*
X26721153Y12428782D01*
X26699529Y12418554D01*
X26677007Y12410496D01*
X26653803Y12404684D01*
X26630142Y12401174D01*
X26606250Y12400000D01*
X26118750Y12400000D01*
X26094858Y12401174D01*
X26071197Y12404684D01*
X26047993Y12410496D01*
X26025471Y12418554D01*
X26003847Y12428782D01*
X25983330Y12441079D01*
X25964117Y12455329D01*
X25946393Y12471393D01*
X25930329Y12489117D01*
X25916079Y12508330D01*
X25903782Y12528847D01*
X25893554Y12550471D01*
X25885496Y12572993D01*
X25879684Y12596197D01*
X25876174Y12619858D01*
X25875000Y12643750D01*
X25875000Y13556250D01*
X25876174Y13580142D01*
X25879684Y13603803D01*
X25885496Y13627007D01*
X25893554Y13649529D01*
X25903782Y13671153D01*
X25916079Y13691670D01*
X25930329Y13710883D01*
X25946393Y13728607D01*
X25964117Y13744671D01*
X25983330Y13758921D01*
X26003847Y13771218D01*
X26025471Y13781446D01*
X26047993Y13789504D01*
X26071197Y13795316D01*
X26094858Y13798826D01*
X26118750Y13800000D01*
X26606250Y13800000D01*
X26630142Y13798826D01*
X26630142Y13798826D01*
G37*
D11*
X26362500Y13100000D03*
D10*
G36*
X28505142Y13798826D02*
G01*
X28528803Y13795316D01*
X28552007Y13789504D01*
X28574529Y13781446D01*
X28596153Y13771218D01*
X28616670Y13758921D01*
X28635883Y13744671D01*
X28653607Y13728607D01*
X28669671Y13710883D01*
X28683921Y13691670D01*
X28696218Y13671153D01*
X28706446Y13649529D01*
X28714504Y13627007D01*
X28720316Y13603803D01*
X28723826Y13580142D01*
X28725000Y13556250D01*
X28725000Y12643750D01*
X28723826Y12619858D01*
X28720316Y12596197D01*
X28714504Y12572993D01*
X28706446Y12550471D01*
X28696218Y12528847D01*
X28683921Y12508330D01*
X28669671Y12489117D01*
X28653607Y12471393D01*
X28635883Y12455329D01*
X28616670Y12441079D01*
X28596153Y12428782D01*
X28574529Y12418554D01*
X28552007Y12410496D01*
X28528803Y12404684D01*
X28505142Y12401174D01*
X28481250Y12400000D01*
X27993750Y12400000D01*
X27969858Y12401174D01*
X27946197Y12404684D01*
X27922993Y12410496D01*
X27900471Y12418554D01*
X27878847Y12428782D01*
X27858330Y12441079D01*
X27839117Y12455329D01*
X27821393Y12471393D01*
X27805329Y12489117D01*
X27791079Y12508330D01*
X27778782Y12528847D01*
X27768554Y12550471D01*
X27760496Y12572993D01*
X27754684Y12596197D01*
X27751174Y12619858D01*
X27750000Y12643750D01*
X27750000Y13556250D01*
X27751174Y13580142D01*
X27754684Y13603803D01*
X27760496Y13627007D01*
X27768554Y13649529D01*
X27778782Y13671153D01*
X27791079Y13691670D01*
X27805329Y13710883D01*
X27821393Y13728607D01*
X27839117Y13744671D01*
X27858330Y13758921D01*
X27878847Y13771218D01*
X27900471Y13781446D01*
X27922993Y13789504D01*
X27946197Y13795316D01*
X27969858Y13798826D01*
X27993750Y13800000D01*
X28481250Y13800000D01*
X28505142Y13798826D01*
X28505142Y13798826D01*
G37*
D11*
X28237500Y13100000D03*
D10*
G36*
X23130142Y13798826D02*
G01*
X23153803Y13795316D01*
X23177007Y13789504D01*
X23199529Y13781446D01*
X23221153Y13771218D01*
X23241670Y13758921D01*
X23260883Y13744671D01*
X23278607Y13728607D01*
X23294671Y13710883D01*
X23308921Y13691670D01*
X23321218Y13671153D01*
X23331446Y13649529D01*
X23339504Y13627007D01*
X23345316Y13603803D01*
X23348826Y13580142D01*
X23350000Y13556250D01*
X23350000Y12643750D01*
X23348826Y12619858D01*
X23345316Y12596197D01*
X23339504Y12572993D01*
X23331446Y12550471D01*
X23321218Y12528847D01*
X23308921Y12508330D01*
X23294671Y12489117D01*
X23278607Y12471393D01*
X23260883Y12455329D01*
X23241670Y12441079D01*
X23221153Y12428782D01*
X23199529Y12418554D01*
X23177007Y12410496D01*
X23153803Y12404684D01*
X23130142Y12401174D01*
X23106250Y12400000D01*
X22618750Y12400000D01*
X22594858Y12401174D01*
X22571197Y12404684D01*
X22547993Y12410496D01*
X22525471Y12418554D01*
X22503847Y12428782D01*
X22483330Y12441079D01*
X22464117Y12455329D01*
X22446393Y12471393D01*
X22430329Y12489117D01*
X22416079Y12508330D01*
X22403782Y12528847D01*
X22393554Y12550471D01*
X22385496Y12572993D01*
X22379684Y12596197D01*
X22376174Y12619858D01*
X22375000Y12643750D01*
X22375000Y13556250D01*
X22376174Y13580142D01*
X22379684Y13603803D01*
X22385496Y13627007D01*
X22393554Y13649529D01*
X22403782Y13671153D01*
X22416079Y13691670D01*
X22430329Y13710883D01*
X22446393Y13728607D01*
X22464117Y13744671D01*
X22483330Y13758921D01*
X22503847Y13771218D01*
X22525471Y13781446D01*
X22547993Y13789504D01*
X22571197Y13795316D01*
X22594858Y13798826D01*
X22618750Y13800000D01*
X23106250Y13800000D01*
X23130142Y13798826D01*
X23130142Y13798826D01*
G37*
D11*
X22862500Y13100000D03*
D10*
G36*
X25005142Y13798826D02*
G01*
X25028803Y13795316D01*
X25052007Y13789504D01*
X25074529Y13781446D01*
X25096153Y13771218D01*
X25116670Y13758921D01*
X25135883Y13744671D01*
X25153607Y13728607D01*
X25169671Y13710883D01*
X25183921Y13691670D01*
X25196218Y13671153D01*
X25206446Y13649529D01*
X25214504Y13627007D01*
X25220316Y13603803D01*
X25223826Y13580142D01*
X25225000Y13556250D01*
X25225000Y12643750D01*
X25223826Y12619858D01*
X25220316Y12596197D01*
X25214504Y12572993D01*
X25206446Y12550471D01*
X25196218Y12528847D01*
X25183921Y12508330D01*
X25169671Y12489117D01*
X25153607Y12471393D01*
X25135883Y12455329D01*
X25116670Y12441079D01*
X25096153Y12428782D01*
X25074529Y12418554D01*
X25052007Y12410496D01*
X25028803Y12404684D01*
X25005142Y12401174D01*
X24981250Y12400000D01*
X24493750Y12400000D01*
X24469858Y12401174D01*
X24446197Y12404684D01*
X24422993Y12410496D01*
X24400471Y12418554D01*
X24378847Y12428782D01*
X24358330Y12441079D01*
X24339117Y12455329D01*
X24321393Y12471393D01*
X24305329Y12489117D01*
X24291079Y12508330D01*
X24278782Y12528847D01*
X24268554Y12550471D01*
X24260496Y12572993D01*
X24254684Y12596197D01*
X24251174Y12619858D01*
X24250000Y12643750D01*
X24250000Y13556250D01*
X24251174Y13580142D01*
X24254684Y13603803D01*
X24260496Y13627007D01*
X24268554Y13649529D01*
X24278782Y13671153D01*
X24291079Y13691670D01*
X24305329Y13710883D01*
X24321393Y13728607D01*
X24339117Y13744671D01*
X24358330Y13758921D01*
X24378847Y13771218D01*
X24400471Y13781446D01*
X24422993Y13789504D01*
X24446197Y13795316D01*
X24469858Y13798826D01*
X24493750Y13800000D01*
X24981250Y13800000D01*
X25005142Y13798826D01*
X25005142Y13798826D01*
G37*
D11*
X24737500Y13100000D03*
D10*
G36*
X19630142Y13798826D02*
G01*
X19653803Y13795316D01*
X19677007Y13789504D01*
X19699529Y13781446D01*
X19721153Y13771218D01*
X19741670Y13758921D01*
X19760883Y13744671D01*
X19778607Y13728607D01*
X19794671Y13710883D01*
X19808921Y13691670D01*
X19821218Y13671153D01*
X19831446Y13649529D01*
X19839504Y13627007D01*
X19845316Y13603803D01*
X19848826Y13580142D01*
X19850000Y13556250D01*
X19850000Y12643750D01*
X19848826Y12619858D01*
X19845316Y12596197D01*
X19839504Y12572993D01*
X19831446Y12550471D01*
X19821218Y12528847D01*
X19808921Y12508330D01*
X19794671Y12489117D01*
X19778607Y12471393D01*
X19760883Y12455329D01*
X19741670Y12441079D01*
X19721153Y12428782D01*
X19699529Y12418554D01*
X19677007Y12410496D01*
X19653803Y12404684D01*
X19630142Y12401174D01*
X19606250Y12400000D01*
X19118750Y12400000D01*
X19094858Y12401174D01*
X19071197Y12404684D01*
X19047993Y12410496D01*
X19025471Y12418554D01*
X19003847Y12428782D01*
X18983330Y12441079D01*
X18964117Y12455329D01*
X18946393Y12471393D01*
X18930329Y12489117D01*
X18916079Y12508330D01*
X18903782Y12528847D01*
X18893554Y12550471D01*
X18885496Y12572993D01*
X18879684Y12596197D01*
X18876174Y12619858D01*
X18875000Y12643750D01*
X18875000Y13556250D01*
X18876174Y13580142D01*
X18879684Y13603803D01*
X18885496Y13627007D01*
X18893554Y13649529D01*
X18903782Y13671153D01*
X18916079Y13691670D01*
X18930329Y13710883D01*
X18946393Y13728607D01*
X18964117Y13744671D01*
X18983330Y13758921D01*
X19003847Y13771218D01*
X19025471Y13781446D01*
X19047993Y13789504D01*
X19071197Y13795316D01*
X19094858Y13798826D01*
X19118750Y13800000D01*
X19606250Y13800000D01*
X19630142Y13798826D01*
X19630142Y13798826D01*
G37*
D11*
X19362500Y13100000D03*
D10*
G36*
X21505142Y13798826D02*
G01*
X21528803Y13795316D01*
X21552007Y13789504D01*
X21574529Y13781446D01*
X21596153Y13771218D01*
X21616670Y13758921D01*
X21635883Y13744671D01*
X21653607Y13728607D01*
X21669671Y13710883D01*
X21683921Y13691670D01*
X21696218Y13671153D01*
X21706446Y13649529D01*
X21714504Y13627007D01*
X21720316Y13603803D01*
X21723826Y13580142D01*
X21725000Y13556250D01*
X21725000Y12643750D01*
X21723826Y12619858D01*
X21720316Y12596197D01*
X21714504Y12572993D01*
X21706446Y12550471D01*
X21696218Y12528847D01*
X21683921Y12508330D01*
X21669671Y12489117D01*
X21653607Y12471393D01*
X21635883Y12455329D01*
X21616670Y12441079D01*
X21596153Y12428782D01*
X21574529Y12418554D01*
X21552007Y12410496D01*
X21528803Y12404684D01*
X21505142Y12401174D01*
X21481250Y12400000D01*
X20993750Y12400000D01*
X20969858Y12401174D01*
X20946197Y12404684D01*
X20922993Y12410496D01*
X20900471Y12418554D01*
X20878847Y12428782D01*
X20858330Y12441079D01*
X20839117Y12455329D01*
X20821393Y12471393D01*
X20805329Y12489117D01*
X20791079Y12508330D01*
X20778782Y12528847D01*
X20768554Y12550471D01*
X20760496Y12572993D01*
X20754684Y12596197D01*
X20751174Y12619858D01*
X20750000Y12643750D01*
X20750000Y13556250D01*
X20751174Y13580142D01*
X20754684Y13603803D01*
X20760496Y13627007D01*
X20768554Y13649529D01*
X20778782Y13671153D01*
X20791079Y13691670D01*
X20805329Y13710883D01*
X20821393Y13728607D01*
X20839117Y13744671D01*
X20858330Y13758921D01*
X20878847Y13771218D01*
X20900471Y13781446D01*
X20922993Y13789504D01*
X20946197Y13795316D01*
X20969858Y13798826D01*
X20993750Y13800000D01*
X21481250Y13800000D01*
X21505142Y13798826D01*
X21505142Y13798826D01*
G37*
D11*
X21237500Y13100000D03*
D10*
G36*
X35030142Y18098826D02*
G01*
X35053803Y18095316D01*
X35077007Y18089504D01*
X35099529Y18081446D01*
X35121153Y18071218D01*
X35141670Y18058921D01*
X35160883Y18044671D01*
X35178607Y18028607D01*
X35194671Y18010883D01*
X35208921Y17991670D01*
X35221218Y17971153D01*
X35231446Y17949529D01*
X35239504Y17927007D01*
X35245316Y17903803D01*
X35248826Y17880142D01*
X35250000Y17856250D01*
X35250000Y16943750D01*
X35248826Y16919858D01*
X35245316Y16896197D01*
X35239504Y16872993D01*
X35231446Y16850471D01*
X35221218Y16828847D01*
X35208921Y16808330D01*
X35194671Y16789117D01*
X35178607Y16771393D01*
X35160883Y16755329D01*
X35141670Y16741079D01*
X35121153Y16728782D01*
X35099529Y16718554D01*
X35077007Y16710496D01*
X35053803Y16704684D01*
X35030142Y16701174D01*
X35006250Y16700000D01*
X34518750Y16700000D01*
X34494858Y16701174D01*
X34471197Y16704684D01*
X34447993Y16710496D01*
X34425471Y16718554D01*
X34403847Y16728782D01*
X34383330Y16741079D01*
X34364117Y16755329D01*
X34346393Y16771393D01*
X34330329Y16789117D01*
X34316079Y16808330D01*
X34303782Y16828847D01*
X34293554Y16850471D01*
X34285496Y16872993D01*
X34279684Y16896197D01*
X34276174Y16919858D01*
X34275000Y16943750D01*
X34275000Y17856250D01*
X34276174Y17880142D01*
X34279684Y17903803D01*
X34285496Y17927007D01*
X34293554Y17949529D01*
X34303782Y17971153D01*
X34316079Y17991670D01*
X34330329Y18010883D01*
X34346393Y18028607D01*
X34364117Y18044671D01*
X34383330Y18058921D01*
X34403847Y18071218D01*
X34425471Y18081446D01*
X34447993Y18089504D01*
X34471197Y18095316D01*
X34494858Y18098826D01*
X34518750Y18100000D01*
X35006250Y18100000D01*
X35030142Y18098826D01*
X35030142Y18098826D01*
G37*
D11*
X34762500Y17400000D03*
D10*
G36*
X36905142Y18098826D02*
G01*
X36928803Y18095316D01*
X36952007Y18089504D01*
X36974529Y18081446D01*
X36996153Y18071218D01*
X37016670Y18058921D01*
X37035883Y18044671D01*
X37053607Y18028607D01*
X37069671Y18010883D01*
X37083921Y17991670D01*
X37096218Y17971153D01*
X37106446Y17949529D01*
X37114504Y17927007D01*
X37120316Y17903803D01*
X37123826Y17880142D01*
X37125000Y17856250D01*
X37125000Y16943750D01*
X37123826Y16919858D01*
X37120316Y16896197D01*
X37114504Y16872993D01*
X37106446Y16850471D01*
X37096218Y16828847D01*
X37083921Y16808330D01*
X37069671Y16789117D01*
X37053607Y16771393D01*
X37035883Y16755329D01*
X37016670Y16741079D01*
X36996153Y16728782D01*
X36974529Y16718554D01*
X36952007Y16710496D01*
X36928803Y16704684D01*
X36905142Y16701174D01*
X36881250Y16700000D01*
X36393750Y16700000D01*
X36369858Y16701174D01*
X36346197Y16704684D01*
X36322993Y16710496D01*
X36300471Y16718554D01*
X36278847Y16728782D01*
X36258330Y16741079D01*
X36239117Y16755329D01*
X36221393Y16771393D01*
X36205329Y16789117D01*
X36191079Y16808330D01*
X36178782Y16828847D01*
X36168554Y16850471D01*
X36160496Y16872993D01*
X36154684Y16896197D01*
X36151174Y16919858D01*
X36150000Y16943750D01*
X36150000Y17856250D01*
X36151174Y17880142D01*
X36154684Y17903803D01*
X36160496Y17927007D01*
X36168554Y17949529D01*
X36178782Y17971153D01*
X36191079Y17991670D01*
X36205329Y18010883D01*
X36221393Y18028607D01*
X36239117Y18044671D01*
X36258330Y18058921D01*
X36278847Y18071218D01*
X36300471Y18081446D01*
X36322993Y18089504D01*
X36346197Y18095316D01*
X36369858Y18098826D01*
X36393750Y18100000D01*
X36881250Y18100000D01*
X36905142Y18098826D01*
X36905142Y18098826D01*
G37*
D11*
X36637500Y17400000D03*
D10*
G36*
X36905142Y15998826D02*
G01*
X36928803Y15995316D01*
X36952007Y15989504D01*
X36974529Y15981446D01*
X36996153Y15971218D01*
X37016670Y15958921D01*
X37035883Y15944671D01*
X37053607Y15928607D01*
X37069671Y15910883D01*
X37083921Y15891670D01*
X37096218Y15871153D01*
X37106446Y15849529D01*
X37114504Y15827007D01*
X37120316Y15803803D01*
X37123826Y15780142D01*
X37125000Y15756250D01*
X37125000Y14843750D01*
X37123826Y14819858D01*
X37120316Y14796197D01*
X37114504Y14772993D01*
X37106446Y14750471D01*
X37096218Y14728847D01*
X37083921Y14708330D01*
X37069671Y14689117D01*
X37053607Y14671393D01*
X37035883Y14655329D01*
X37016670Y14641079D01*
X36996153Y14628782D01*
X36974529Y14618554D01*
X36952007Y14610496D01*
X36928803Y14604684D01*
X36905142Y14601174D01*
X36881250Y14600000D01*
X36393750Y14600000D01*
X36369858Y14601174D01*
X36346197Y14604684D01*
X36322993Y14610496D01*
X36300471Y14618554D01*
X36278847Y14628782D01*
X36258330Y14641079D01*
X36239117Y14655329D01*
X36221393Y14671393D01*
X36205329Y14689117D01*
X36191079Y14708330D01*
X36178782Y14728847D01*
X36168554Y14750471D01*
X36160496Y14772993D01*
X36154684Y14796197D01*
X36151174Y14819858D01*
X36150000Y14843750D01*
X36150000Y15756250D01*
X36151174Y15780142D01*
X36154684Y15803803D01*
X36160496Y15827007D01*
X36168554Y15849529D01*
X36178782Y15871153D01*
X36191079Y15891670D01*
X36205329Y15910883D01*
X36221393Y15928607D01*
X36239117Y15944671D01*
X36258330Y15958921D01*
X36278847Y15971218D01*
X36300471Y15981446D01*
X36322993Y15989504D01*
X36346197Y15995316D01*
X36369858Y15998826D01*
X36393750Y16000000D01*
X36881250Y16000000D01*
X36905142Y15998826D01*
X36905142Y15998826D01*
G37*
D11*
X36637500Y15300000D03*
D10*
G36*
X35030142Y15998826D02*
G01*
X35053803Y15995316D01*
X35077007Y15989504D01*
X35099529Y15981446D01*
X35121153Y15971218D01*
X35141670Y15958921D01*
X35160883Y15944671D01*
X35178607Y15928607D01*
X35194671Y15910883D01*
X35208921Y15891670D01*
X35221218Y15871153D01*
X35231446Y15849529D01*
X35239504Y15827007D01*
X35245316Y15803803D01*
X35248826Y15780142D01*
X35250000Y15756250D01*
X35250000Y14843750D01*
X35248826Y14819858D01*
X35245316Y14796197D01*
X35239504Y14772993D01*
X35231446Y14750471D01*
X35221218Y14728847D01*
X35208921Y14708330D01*
X35194671Y14689117D01*
X35178607Y14671393D01*
X35160883Y14655329D01*
X35141670Y14641079D01*
X35121153Y14628782D01*
X35099529Y14618554D01*
X35077007Y14610496D01*
X35053803Y14604684D01*
X35030142Y14601174D01*
X35006250Y14600000D01*
X34518750Y14600000D01*
X34494858Y14601174D01*
X34471197Y14604684D01*
X34447993Y14610496D01*
X34425471Y14618554D01*
X34403847Y14628782D01*
X34383330Y14641079D01*
X34364117Y14655329D01*
X34346393Y14671393D01*
X34330329Y14689117D01*
X34316079Y14708330D01*
X34303782Y14728847D01*
X34293554Y14750471D01*
X34285496Y14772993D01*
X34279684Y14796197D01*
X34276174Y14819858D01*
X34275000Y14843750D01*
X34275000Y15756250D01*
X34276174Y15780142D01*
X34279684Y15803803D01*
X34285496Y15827007D01*
X34293554Y15849529D01*
X34303782Y15871153D01*
X34316079Y15891670D01*
X34330329Y15910883D01*
X34346393Y15928607D01*
X34364117Y15944671D01*
X34383330Y15958921D01*
X34403847Y15971218D01*
X34425471Y15981446D01*
X34447993Y15989504D01*
X34471197Y15995316D01*
X34494858Y15998826D01*
X34518750Y16000000D01*
X35006250Y16000000D01*
X35030142Y15998826D01*
X35030142Y15998826D01*
G37*
D11*
X34762500Y15300000D03*
D10*
G36*
X28705142Y2198826D02*
G01*
X28728803Y2195316D01*
X28752007Y2189504D01*
X28774529Y2181446D01*
X28796153Y2171218D01*
X28816670Y2158921D01*
X28835883Y2144671D01*
X28853607Y2128607D01*
X28869671Y2110883D01*
X28883921Y2091670D01*
X28896218Y2071153D01*
X28906446Y2049529D01*
X28914504Y2027007D01*
X28920316Y2003803D01*
X28923826Y1980142D01*
X28925000Y1956250D01*
X28925000Y1043750D01*
X28923826Y1019858D01*
X28920316Y996197D01*
X28914504Y972993D01*
X28906446Y950471D01*
X28896218Y928847D01*
X28883921Y908330D01*
X28869671Y889117D01*
X28853607Y871393D01*
X28835883Y855329D01*
X28816670Y841079D01*
X28796153Y828782D01*
X28774529Y818554D01*
X28752007Y810496D01*
X28728803Y804684D01*
X28705142Y801174D01*
X28681250Y800000D01*
X28193750Y800000D01*
X28169858Y801174D01*
X28146197Y804684D01*
X28122993Y810496D01*
X28100471Y818554D01*
X28078847Y828782D01*
X28058330Y841079D01*
X28039117Y855329D01*
X28021393Y871393D01*
X28005329Y889117D01*
X27991079Y908330D01*
X27978782Y928847D01*
X27968554Y950471D01*
X27960496Y972993D01*
X27954684Y996197D01*
X27951174Y1019858D01*
X27950000Y1043750D01*
X27950000Y1956250D01*
X27951174Y1980142D01*
X27954684Y2003803D01*
X27960496Y2027007D01*
X27968554Y2049529D01*
X27978782Y2071153D01*
X27991079Y2091670D01*
X28005329Y2110883D01*
X28021393Y2128607D01*
X28039117Y2144671D01*
X28058330Y2158921D01*
X28078847Y2171218D01*
X28100471Y2181446D01*
X28122993Y2189504D01*
X28146197Y2195316D01*
X28169858Y2198826D01*
X28193750Y2200000D01*
X28681250Y2200000D01*
X28705142Y2198826D01*
X28705142Y2198826D01*
G37*
D11*
X28437500Y1500000D03*
D10*
G36*
X26830142Y2198826D02*
G01*
X26853803Y2195316D01*
X26877007Y2189504D01*
X26899529Y2181446D01*
X26921153Y2171218D01*
X26941670Y2158921D01*
X26960883Y2144671D01*
X26978607Y2128607D01*
X26994671Y2110883D01*
X27008921Y2091670D01*
X27021218Y2071153D01*
X27031446Y2049529D01*
X27039504Y2027007D01*
X27045316Y2003803D01*
X27048826Y1980142D01*
X27050000Y1956250D01*
X27050000Y1043750D01*
X27048826Y1019858D01*
X27045316Y996197D01*
X27039504Y972993D01*
X27031446Y950471D01*
X27021218Y928847D01*
X27008921Y908330D01*
X26994671Y889117D01*
X26978607Y871393D01*
X26960883Y855329D01*
X26941670Y841079D01*
X26921153Y828782D01*
X26899529Y818554D01*
X26877007Y810496D01*
X26853803Y804684D01*
X26830142Y801174D01*
X26806250Y800000D01*
X26318750Y800000D01*
X26294858Y801174D01*
X26271197Y804684D01*
X26247993Y810496D01*
X26225471Y818554D01*
X26203847Y828782D01*
X26183330Y841079D01*
X26164117Y855329D01*
X26146393Y871393D01*
X26130329Y889117D01*
X26116079Y908330D01*
X26103782Y928847D01*
X26093554Y950471D01*
X26085496Y972993D01*
X26079684Y996197D01*
X26076174Y1019858D01*
X26075000Y1043750D01*
X26075000Y1956250D01*
X26076174Y1980142D01*
X26079684Y2003803D01*
X26085496Y2027007D01*
X26093554Y2049529D01*
X26103782Y2071153D01*
X26116079Y2091670D01*
X26130329Y2110883D01*
X26146393Y2128607D01*
X26164117Y2144671D01*
X26183330Y2158921D01*
X26203847Y2171218D01*
X26225471Y2181446D01*
X26247993Y2189504D01*
X26271197Y2195316D01*
X26294858Y2198826D01*
X26318750Y2200000D01*
X26806250Y2200000D01*
X26830142Y2198826D01*
X26830142Y2198826D01*
G37*
D11*
X26562500Y1500000D03*
D10*
G36*
X40405142Y18098826D02*
G01*
X40428803Y18095316D01*
X40452007Y18089504D01*
X40474529Y18081446D01*
X40496153Y18071218D01*
X40516670Y18058921D01*
X40535883Y18044671D01*
X40553607Y18028607D01*
X40569671Y18010883D01*
X40583921Y17991670D01*
X40596218Y17971153D01*
X40606446Y17949529D01*
X40614504Y17927007D01*
X40620316Y17903803D01*
X40623826Y17880142D01*
X40625000Y17856250D01*
X40625000Y16943750D01*
X40623826Y16919858D01*
X40620316Y16896197D01*
X40614504Y16872993D01*
X40606446Y16850471D01*
X40596218Y16828847D01*
X40583921Y16808330D01*
X40569671Y16789117D01*
X40553607Y16771393D01*
X40535883Y16755329D01*
X40516670Y16741079D01*
X40496153Y16728782D01*
X40474529Y16718554D01*
X40452007Y16710496D01*
X40428803Y16704684D01*
X40405142Y16701174D01*
X40381250Y16700000D01*
X39893750Y16700000D01*
X39869858Y16701174D01*
X39846197Y16704684D01*
X39822993Y16710496D01*
X39800471Y16718554D01*
X39778847Y16728782D01*
X39758330Y16741079D01*
X39739117Y16755329D01*
X39721393Y16771393D01*
X39705329Y16789117D01*
X39691079Y16808330D01*
X39678782Y16828847D01*
X39668554Y16850471D01*
X39660496Y16872993D01*
X39654684Y16896197D01*
X39651174Y16919858D01*
X39650000Y16943750D01*
X39650000Y17856250D01*
X39651174Y17880142D01*
X39654684Y17903803D01*
X39660496Y17927007D01*
X39668554Y17949529D01*
X39678782Y17971153D01*
X39691079Y17991670D01*
X39705329Y18010883D01*
X39721393Y18028607D01*
X39739117Y18044671D01*
X39758330Y18058921D01*
X39778847Y18071218D01*
X39800471Y18081446D01*
X39822993Y18089504D01*
X39846197Y18095316D01*
X39869858Y18098826D01*
X39893750Y18100000D01*
X40381250Y18100000D01*
X40405142Y18098826D01*
X40405142Y18098826D01*
G37*
D11*
X40137500Y17400000D03*
D10*
G36*
X38530142Y18098826D02*
G01*
X38553803Y18095316D01*
X38577007Y18089504D01*
X38599529Y18081446D01*
X38621153Y18071218D01*
X38641670Y18058921D01*
X38660883Y18044671D01*
X38678607Y18028607D01*
X38694671Y18010883D01*
X38708921Y17991670D01*
X38721218Y17971153D01*
X38731446Y17949529D01*
X38739504Y17927007D01*
X38745316Y17903803D01*
X38748826Y17880142D01*
X38750000Y17856250D01*
X38750000Y16943750D01*
X38748826Y16919858D01*
X38745316Y16896197D01*
X38739504Y16872993D01*
X38731446Y16850471D01*
X38721218Y16828847D01*
X38708921Y16808330D01*
X38694671Y16789117D01*
X38678607Y16771393D01*
X38660883Y16755329D01*
X38641670Y16741079D01*
X38621153Y16728782D01*
X38599529Y16718554D01*
X38577007Y16710496D01*
X38553803Y16704684D01*
X38530142Y16701174D01*
X38506250Y16700000D01*
X38018750Y16700000D01*
X37994858Y16701174D01*
X37971197Y16704684D01*
X37947993Y16710496D01*
X37925471Y16718554D01*
X37903847Y16728782D01*
X37883330Y16741079D01*
X37864117Y16755329D01*
X37846393Y16771393D01*
X37830329Y16789117D01*
X37816079Y16808330D01*
X37803782Y16828847D01*
X37793554Y16850471D01*
X37785496Y16872993D01*
X37779684Y16896197D01*
X37776174Y16919858D01*
X37775000Y16943750D01*
X37775000Y17856250D01*
X37776174Y17880142D01*
X37779684Y17903803D01*
X37785496Y17927007D01*
X37793554Y17949529D01*
X37803782Y17971153D01*
X37816079Y17991670D01*
X37830329Y18010883D01*
X37846393Y18028607D01*
X37864117Y18044671D01*
X37883330Y18058921D01*
X37903847Y18071218D01*
X37925471Y18081446D01*
X37947993Y18089504D01*
X37971197Y18095316D01*
X37994858Y18098826D01*
X38018750Y18100000D01*
X38506250Y18100000D01*
X38530142Y18098826D01*
X38530142Y18098826D01*
G37*
D11*
X38262500Y17400000D03*
D10*
G36*
X40405142Y15998826D02*
G01*
X40428803Y15995316D01*
X40452007Y15989504D01*
X40474529Y15981446D01*
X40496153Y15971218D01*
X40516670Y15958921D01*
X40535883Y15944671D01*
X40553607Y15928607D01*
X40569671Y15910883D01*
X40583921Y15891670D01*
X40596218Y15871153D01*
X40606446Y15849529D01*
X40614504Y15827007D01*
X40620316Y15803803D01*
X40623826Y15780142D01*
X40625000Y15756250D01*
X40625000Y14843750D01*
X40623826Y14819858D01*
X40620316Y14796197D01*
X40614504Y14772993D01*
X40606446Y14750471D01*
X40596218Y14728847D01*
X40583921Y14708330D01*
X40569671Y14689117D01*
X40553607Y14671393D01*
X40535883Y14655329D01*
X40516670Y14641079D01*
X40496153Y14628782D01*
X40474529Y14618554D01*
X40452007Y14610496D01*
X40428803Y14604684D01*
X40405142Y14601174D01*
X40381250Y14600000D01*
X39893750Y14600000D01*
X39869858Y14601174D01*
X39846197Y14604684D01*
X39822993Y14610496D01*
X39800471Y14618554D01*
X39778847Y14628782D01*
X39758330Y14641079D01*
X39739117Y14655329D01*
X39721393Y14671393D01*
X39705329Y14689117D01*
X39691079Y14708330D01*
X39678782Y14728847D01*
X39668554Y14750471D01*
X39660496Y14772993D01*
X39654684Y14796197D01*
X39651174Y14819858D01*
X39650000Y14843750D01*
X39650000Y15756250D01*
X39651174Y15780142D01*
X39654684Y15803803D01*
X39660496Y15827007D01*
X39668554Y15849529D01*
X39678782Y15871153D01*
X39691079Y15891670D01*
X39705329Y15910883D01*
X39721393Y15928607D01*
X39739117Y15944671D01*
X39758330Y15958921D01*
X39778847Y15971218D01*
X39800471Y15981446D01*
X39822993Y15989504D01*
X39846197Y15995316D01*
X39869858Y15998826D01*
X39893750Y16000000D01*
X40381250Y16000000D01*
X40405142Y15998826D01*
X40405142Y15998826D01*
G37*
D11*
X40137500Y15300000D03*
D10*
G36*
X38530142Y15998826D02*
G01*
X38553803Y15995316D01*
X38577007Y15989504D01*
X38599529Y15981446D01*
X38621153Y15971218D01*
X38641670Y15958921D01*
X38660883Y15944671D01*
X38678607Y15928607D01*
X38694671Y15910883D01*
X38708921Y15891670D01*
X38721218Y15871153D01*
X38731446Y15849529D01*
X38739504Y15827007D01*
X38745316Y15803803D01*
X38748826Y15780142D01*
X38750000Y15756250D01*
X38750000Y14843750D01*
X38748826Y14819858D01*
X38745316Y14796197D01*
X38739504Y14772993D01*
X38731446Y14750471D01*
X38721218Y14728847D01*
X38708921Y14708330D01*
X38694671Y14689117D01*
X38678607Y14671393D01*
X38660883Y14655329D01*
X38641670Y14641079D01*
X38621153Y14628782D01*
X38599529Y14618554D01*
X38577007Y14610496D01*
X38553803Y14604684D01*
X38530142Y14601174D01*
X38506250Y14600000D01*
X38018750Y14600000D01*
X37994858Y14601174D01*
X37971197Y14604684D01*
X37947993Y14610496D01*
X37925471Y14618554D01*
X37903847Y14628782D01*
X37883330Y14641079D01*
X37864117Y14655329D01*
X37846393Y14671393D01*
X37830329Y14689117D01*
X37816079Y14708330D01*
X37803782Y14728847D01*
X37793554Y14750471D01*
X37785496Y14772993D01*
X37779684Y14796197D01*
X37776174Y14819858D01*
X37775000Y14843750D01*
X37775000Y15756250D01*
X37776174Y15780142D01*
X37779684Y15803803D01*
X37785496Y15827007D01*
X37793554Y15849529D01*
X37803782Y15871153D01*
X37816079Y15891670D01*
X37830329Y15910883D01*
X37846393Y15928607D01*
X37864117Y15944671D01*
X37883330Y15958921D01*
X37903847Y15971218D01*
X37925471Y15981446D01*
X37947993Y15989504D01*
X37971197Y15995316D01*
X37994858Y15998826D01*
X38018750Y16000000D01*
X38506250Y16000000D01*
X38530142Y15998826D01*
X38530142Y15998826D01*
G37*
D11*
X38262500Y15300000D03*
D10*
G36*
X25205142Y2198826D02*
G01*
X25228803Y2195316D01*
X25252007Y2189504D01*
X25274529Y2181446D01*
X25296153Y2171218D01*
X25316670Y2158921D01*
X25335883Y2144671D01*
X25353607Y2128607D01*
X25369671Y2110883D01*
X25383921Y2091670D01*
X25396218Y2071153D01*
X25406446Y2049529D01*
X25414504Y2027007D01*
X25420316Y2003803D01*
X25423826Y1980142D01*
X25425000Y1956250D01*
X25425000Y1043750D01*
X25423826Y1019858D01*
X25420316Y996197D01*
X25414504Y972993D01*
X25406446Y950471D01*
X25396218Y928847D01*
X25383921Y908330D01*
X25369671Y889117D01*
X25353607Y871393D01*
X25335883Y855329D01*
X25316670Y841079D01*
X25296153Y828782D01*
X25274529Y818554D01*
X25252007Y810496D01*
X25228803Y804684D01*
X25205142Y801174D01*
X25181250Y800000D01*
X24693750Y800000D01*
X24669858Y801174D01*
X24646197Y804684D01*
X24622993Y810496D01*
X24600471Y818554D01*
X24578847Y828782D01*
X24558330Y841079D01*
X24539117Y855329D01*
X24521393Y871393D01*
X24505329Y889117D01*
X24491079Y908330D01*
X24478782Y928847D01*
X24468554Y950471D01*
X24460496Y972993D01*
X24454684Y996197D01*
X24451174Y1019858D01*
X24450000Y1043750D01*
X24450000Y1956250D01*
X24451174Y1980142D01*
X24454684Y2003803D01*
X24460496Y2027007D01*
X24468554Y2049529D01*
X24478782Y2071153D01*
X24491079Y2091670D01*
X24505329Y2110883D01*
X24521393Y2128607D01*
X24539117Y2144671D01*
X24558330Y2158921D01*
X24578847Y2171218D01*
X24600471Y2181446D01*
X24622993Y2189504D01*
X24646197Y2195316D01*
X24669858Y2198826D01*
X24693750Y2200000D01*
X25181250Y2200000D01*
X25205142Y2198826D01*
X25205142Y2198826D01*
G37*
D11*
X24937500Y1500000D03*
D10*
G36*
X23330142Y2198826D02*
G01*
X23353803Y2195316D01*
X23377007Y2189504D01*
X23399529Y2181446D01*
X23421153Y2171218D01*
X23441670Y2158921D01*
X23460883Y2144671D01*
X23478607Y2128607D01*
X23494671Y2110883D01*
X23508921Y2091670D01*
X23521218Y2071153D01*
X23531446Y2049529D01*
X23539504Y2027007D01*
X23545316Y2003803D01*
X23548826Y1980142D01*
X23550000Y1956250D01*
X23550000Y1043750D01*
X23548826Y1019858D01*
X23545316Y996197D01*
X23539504Y972993D01*
X23531446Y950471D01*
X23521218Y928847D01*
X23508921Y908330D01*
X23494671Y889117D01*
X23478607Y871393D01*
X23460883Y855329D01*
X23441670Y841079D01*
X23421153Y828782D01*
X23399529Y818554D01*
X23377007Y810496D01*
X23353803Y804684D01*
X23330142Y801174D01*
X23306250Y800000D01*
X22818750Y800000D01*
X22794858Y801174D01*
X22771197Y804684D01*
X22747993Y810496D01*
X22725471Y818554D01*
X22703847Y828782D01*
X22683330Y841079D01*
X22664117Y855329D01*
X22646393Y871393D01*
X22630329Y889117D01*
X22616079Y908330D01*
X22603782Y928847D01*
X22593554Y950471D01*
X22585496Y972993D01*
X22579684Y996197D01*
X22576174Y1019858D01*
X22575000Y1043750D01*
X22575000Y1956250D01*
X22576174Y1980142D01*
X22579684Y2003803D01*
X22585496Y2027007D01*
X22593554Y2049529D01*
X22603782Y2071153D01*
X22616079Y2091670D01*
X22630329Y2110883D01*
X22646393Y2128607D01*
X22664117Y2144671D01*
X22683330Y2158921D01*
X22703847Y2171218D01*
X22725471Y2181446D01*
X22747993Y2189504D01*
X22771197Y2195316D01*
X22794858Y2198826D01*
X22818750Y2200000D01*
X23306250Y2200000D01*
X23330142Y2198826D01*
X23330142Y2198826D01*
G37*
D11*
X23062500Y1500000D03*
D10*
G36*
X26830142Y4298826D02*
G01*
X26853803Y4295316D01*
X26877007Y4289504D01*
X26899529Y4281446D01*
X26921153Y4271218D01*
X26941670Y4258921D01*
X26960883Y4244671D01*
X26978607Y4228607D01*
X26994671Y4210883D01*
X27008921Y4191670D01*
X27021218Y4171153D01*
X27031446Y4149529D01*
X27039504Y4127007D01*
X27045316Y4103803D01*
X27048826Y4080142D01*
X27050000Y4056250D01*
X27050000Y3143750D01*
X27048826Y3119858D01*
X27045316Y3096197D01*
X27039504Y3072993D01*
X27031446Y3050471D01*
X27021218Y3028847D01*
X27008921Y3008330D01*
X26994671Y2989117D01*
X26978607Y2971393D01*
X26960883Y2955329D01*
X26941670Y2941079D01*
X26921153Y2928782D01*
X26899529Y2918554D01*
X26877007Y2910496D01*
X26853803Y2904684D01*
X26830142Y2901174D01*
X26806250Y2900000D01*
X26318750Y2900000D01*
X26294858Y2901174D01*
X26271197Y2904684D01*
X26247993Y2910496D01*
X26225471Y2918554D01*
X26203847Y2928782D01*
X26183330Y2941079D01*
X26164117Y2955329D01*
X26146393Y2971393D01*
X26130329Y2989117D01*
X26116079Y3008330D01*
X26103782Y3028847D01*
X26093554Y3050471D01*
X26085496Y3072993D01*
X26079684Y3096197D01*
X26076174Y3119858D01*
X26075000Y3143750D01*
X26075000Y4056250D01*
X26076174Y4080142D01*
X26079684Y4103803D01*
X26085496Y4127007D01*
X26093554Y4149529D01*
X26103782Y4171153D01*
X26116079Y4191670D01*
X26130329Y4210883D01*
X26146393Y4228607D01*
X26164117Y4244671D01*
X26183330Y4258921D01*
X26203847Y4271218D01*
X26225471Y4281446D01*
X26247993Y4289504D01*
X26271197Y4295316D01*
X26294858Y4298826D01*
X26318750Y4300000D01*
X26806250Y4300000D01*
X26830142Y4298826D01*
X26830142Y4298826D01*
G37*
D11*
X26562500Y3600000D03*
D10*
G36*
X28705142Y4298826D02*
G01*
X28728803Y4295316D01*
X28752007Y4289504D01*
X28774529Y4281446D01*
X28796153Y4271218D01*
X28816670Y4258921D01*
X28835883Y4244671D01*
X28853607Y4228607D01*
X28869671Y4210883D01*
X28883921Y4191670D01*
X28896218Y4171153D01*
X28906446Y4149529D01*
X28914504Y4127007D01*
X28920316Y4103803D01*
X28923826Y4080142D01*
X28925000Y4056250D01*
X28925000Y3143750D01*
X28923826Y3119858D01*
X28920316Y3096197D01*
X28914504Y3072993D01*
X28906446Y3050471D01*
X28896218Y3028847D01*
X28883921Y3008330D01*
X28869671Y2989117D01*
X28853607Y2971393D01*
X28835883Y2955329D01*
X28816670Y2941079D01*
X28796153Y2928782D01*
X28774529Y2918554D01*
X28752007Y2910496D01*
X28728803Y2904684D01*
X28705142Y2901174D01*
X28681250Y2900000D01*
X28193750Y2900000D01*
X28169858Y2901174D01*
X28146197Y2904684D01*
X28122993Y2910496D01*
X28100471Y2918554D01*
X28078847Y2928782D01*
X28058330Y2941079D01*
X28039117Y2955329D01*
X28021393Y2971393D01*
X28005329Y2989117D01*
X27991079Y3008330D01*
X27978782Y3028847D01*
X27968554Y3050471D01*
X27960496Y3072993D01*
X27954684Y3096197D01*
X27951174Y3119858D01*
X27950000Y3143750D01*
X27950000Y4056250D01*
X27951174Y4080142D01*
X27954684Y4103803D01*
X27960496Y4127007D01*
X27968554Y4149529D01*
X27978782Y4171153D01*
X27991079Y4191670D01*
X28005329Y4210883D01*
X28021393Y4228607D01*
X28039117Y4244671D01*
X28058330Y4258921D01*
X28078847Y4271218D01*
X28100471Y4281446D01*
X28122993Y4289504D01*
X28146197Y4295316D01*
X28169858Y4298826D01*
X28193750Y4300000D01*
X28681250Y4300000D01*
X28705142Y4298826D01*
X28705142Y4298826D01*
G37*
D11*
X28437500Y3600000D03*
D10*
G36*
X28705142Y6398826D02*
G01*
X28728803Y6395316D01*
X28752007Y6389504D01*
X28774529Y6381446D01*
X28796153Y6371218D01*
X28816670Y6358921D01*
X28835883Y6344671D01*
X28853607Y6328607D01*
X28869671Y6310883D01*
X28883921Y6291670D01*
X28896218Y6271153D01*
X28906446Y6249529D01*
X28914504Y6227007D01*
X28920316Y6203803D01*
X28923826Y6180142D01*
X28925000Y6156250D01*
X28925000Y5243750D01*
X28923826Y5219858D01*
X28920316Y5196197D01*
X28914504Y5172993D01*
X28906446Y5150471D01*
X28896218Y5128847D01*
X28883921Y5108330D01*
X28869671Y5089117D01*
X28853607Y5071393D01*
X28835883Y5055329D01*
X28816670Y5041079D01*
X28796153Y5028782D01*
X28774529Y5018554D01*
X28752007Y5010496D01*
X28728803Y5004684D01*
X28705142Y5001174D01*
X28681250Y5000000D01*
X28193750Y5000000D01*
X28169858Y5001174D01*
X28146197Y5004684D01*
X28122993Y5010496D01*
X28100471Y5018554D01*
X28078847Y5028782D01*
X28058330Y5041079D01*
X28039117Y5055329D01*
X28021393Y5071393D01*
X28005329Y5089117D01*
X27991079Y5108330D01*
X27978782Y5128847D01*
X27968554Y5150471D01*
X27960496Y5172993D01*
X27954684Y5196197D01*
X27951174Y5219858D01*
X27950000Y5243750D01*
X27950000Y6156250D01*
X27951174Y6180142D01*
X27954684Y6203803D01*
X27960496Y6227007D01*
X27968554Y6249529D01*
X27978782Y6271153D01*
X27991079Y6291670D01*
X28005329Y6310883D01*
X28021393Y6328607D01*
X28039117Y6344671D01*
X28058330Y6358921D01*
X28078847Y6371218D01*
X28100471Y6381446D01*
X28122993Y6389504D01*
X28146197Y6395316D01*
X28169858Y6398826D01*
X28193750Y6400000D01*
X28681250Y6400000D01*
X28705142Y6398826D01*
X28705142Y6398826D01*
G37*
D11*
X28437500Y5700000D03*
D10*
G36*
X26830142Y6398826D02*
G01*
X26853803Y6395316D01*
X26877007Y6389504D01*
X26899529Y6381446D01*
X26921153Y6371218D01*
X26941670Y6358921D01*
X26960883Y6344671D01*
X26978607Y6328607D01*
X26994671Y6310883D01*
X27008921Y6291670D01*
X27021218Y6271153D01*
X27031446Y6249529D01*
X27039504Y6227007D01*
X27045316Y6203803D01*
X27048826Y6180142D01*
X27050000Y6156250D01*
X27050000Y5243750D01*
X27048826Y5219858D01*
X27045316Y5196197D01*
X27039504Y5172993D01*
X27031446Y5150471D01*
X27021218Y5128847D01*
X27008921Y5108330D01*
X26994671Y5089117D01*
X26978607Y5071393D01*
X26960883Y5055329D01*
X26941670Y5041079D01*
X26921153Y5028782D01*
X26899529Y5018554D01*
X26877007Y5010496D01*
X26853803Y5004684D01*
X26830142Y5001174D01*
X26806250Y5000000D01*
X26318750Y5000000D01*
X26294858Y5001174D01*
X26271197Y5004684D01*
X26247993Y5010496D01*
X26225471Y5018554D01*
X26203847Y5028782D01*
X26183330Y5041079D01*
X26164117Y5055329D01*
X26146393Y5071393D01*
X26130329Y5089117D01*
X26116079Y5108330D01*
X26103782Y5128847D01*
X26093554Y5150471D01*
X26085496Y5172993D01*
X26079684Y5196197D01*
X26076174Y5219858D01*
X26075000Y5243750D01*
X26075000Y6156250D01*
X26076174Y6180142D01*
X26079684Y6203803D01*
X26085496Y6227007D01*
X26093554Y6249529D01*
X26103782Y6271153D01*
X26116079Y6291670D01*
X26130329Y6310883D01*
X26146393Y6328607D01*
X26164117Y6344671D01*
X26183330Y6358921D01*
X26203847Y6371218D01*
X26225471Y6381446D01*
X26247993Y6389504D01*
X26271197Y6395316D01*
X26294858Y6398826D01*
X26318750Y6400000D01*
X26806250Y6400000D01*
X26830142Y6398826D01*
X26830142Y6398826D01*
G37*
D11*
X26562500Y5700000D03*
D10*
G36*
X38730142Y6898826D02*
G01*
X38753803Y6895316D01*
X38777007Y6889504D01*
X38799529Y6881446D01*
X38821153Y6871218D01*
X38841670Y6858921D01*
X38860883Y6844671D01*
X38878607Y6828607D01*
X38894671Y6810883D01*
X38908921Y6791670D01*
X38921218Y6771153D01*
X38931446Y6749529D01*
X38939504Y6727007D01*
X38945316Y6703803D01*
X38948826Y6680142D01*
X38950000Y6656250D01*
X38950000Y5743750D01*
X38948826Y5719858D01*
X38945316Y5696197D01*
X38939504Y5672993D01*
X38931446Y5650471D01*
X38921218Y5628847D01*
X38908921Y5608330D01*
X38894671Y5589117D01*
X38878607Y5571393D01*
X38860883Y5555329D01*
X38841670Y5541079D01*
X38821153Y5528782D01*
X38799529Y5518554D01*
X38777007Y5510496D01*
X38753803Y5504684D01*
X38730142Y5501174D01*
X38706250Y5500000D01*
X38218750Y5500000D01*
X38194858Y5501174D01*
X38171197Y5504684D01*
X38147993Y5510496D01*
X38125471Y5518554D01*
X38103847Y5528782D01*
X38083330Y5541079D01*
X38064117Y5555329D01*
X38046393Y5571393D01*
X38030329Y5589117D01*
X38016079Y5608330D01*
X38003782Y5628847D01*
X37993554Y5650471D01*
X37985496Y5672993D01*
X37979684Y5696197D01*
X37976174Y5719858D01*
X37975000Y5743750D01*
X37975000Y6656250D01*
X37976174Y6680142D01*
X37979684Y6703803D01*
X37985496Y6727007D01*
X37993554Y6749529D01*
X38003782Y6771153D01*
X38016079Y6791670D01*
X38030329Y6810883D01*
X38046393Y6828607D01*
X38064117Y6844671D01*
X38083330Y6858921D01*
X38103847Y6871218D01*
X38125471Y6881446D01*
X38147993Y6889504D01*
X38171197Y6895316D01*
X38194858Y6898826D01*
X38218750Y6900000D01*
X38706250Y6900000D01*
X38730142Y6898826D01*
X38730142Y6898826D01*
G37*
D11*
X38462500Y6200000D03*
D10*
G36*
X40605142Y6898826D02*
G01*
X40628803Y6895316D01*
X40652007Y6889504D01*
X40674529Y6881446D01*
X40696153Y6871218D01*
X40716670Y6858921D01*
X40735883Y6844671D01*
X40753607Y6828607D01*
X40769671Y6810883D01*
X40783921Y6791670D01*
X40796218Y6771153D01*
X40806446Y6749529D01*
X40814504Y6727007D01*
X40820316Y6703803D01*
X40823826Y6680142D01*
X40825000Y6656250D01*
X40825000Y5743750D01*
X40823826Y5719858D01*
X40820316Y5696197D01*
X40814504Y5672993D01*
X40806446Y5650471D01*
X40796218Y5628847D01*
X40783921Y5608330D01*
X40769671Y5589117D01*
X40753607Y5571393D01*
X40735883Y5555329D01*
X40716670Y5541079D01*
X40696153Y5528782D01*
X40674529Y5518554D01*
X40652007Y5510496D01*
X40628803Y5504684D01*
X40605142Y5501174D01*
X40581250Y5500000D01*
X40093750Y5500000D01*
X40069858Y5501174D01*
X40046197Y5504684D01*
X40022993Y5510496D01*
X40000471Y5518554D01*
X39978847Y5528782D01*
X39958330Y5541079D01*
X39939117Y5555329D01*
X39921393Y5571393D01*
X39905329Y5589117D01*
X39891079Y5608330D01*
X39878782Y5628847D01*
X39868554Y5650471D01*
X39860496Y5672993D01*
X39854684Y5696197D01*
X39851174Y5719858D01*
X39850000Y5743750D01*
X39850000Y6656250D01*
X39851174Y6680142D01*
X39854684Y6703803D01*
X39860496Y6727007D01*
X39868554Y6749529D01*
X39878782Y6771153D01*
X39891079Y6791670D01*
X39905329Y6810883D01*
X39921393Y6828607D01*
X39939117Y6844671D01*
X39958330Y6858921D01*
X39978847Y6871218D01*
X40000471Y6881446D01*
X40022993Y6889504D01*
X40046197Y6895316D01*
X40069858Y6898826D01*
X40093750Y6900000D01*
X40581250Y6900000D01*
X40605142Y6898826D01*
X40605142Y6898826D01*
G37*
D11*
X40337500Y6200000D03*
D12*
X64200000Y14750000D03*
X64200000Y16650000D03*
X61200000Y15700000D03*
D10*
G36*
X25205142Y4298826D02*
G01*
X25228803Y4295316D01*
X25252007Y4289504D01*
X25274529Y4281446D01*
X25296153Y4271218D01*
X25316670Y4258921D01*
X25335883Y4244671D01*
X25353607Y4228607D01*
X25369671Y4210883D01*
X25383921Y4191670D01*
X25396218Y4171153D01*
X25406446Y4149529D01*
X25414504Y4127007D01*
X25420316Y4103803D01*
X25423826Y4080142D01*
X25425000Y4056250D01*
X25425000Y3143750D01*
X25423826Y3119858D01*
X25420316Y3096197D01*
X25414504Y3072993D01*
X25406446Y3050471D01*
X25396218Y3028847D01*
X25383921Y3008330D01*
X25369671Y2989117D01*
X25353607Y2971393D01*
X25335883Y2955329D01*
X25316670Y2941079D01*
X25296153Y2928782D01*
X25274529Y2918554D01*
X25252007Y2910496D01*
X25228803Y2904684D01*
X25205142Y2901174D01*
X25181250Y2900000D01*
X24693750Y2900000D01*
X24669858Y2901174D01*
X24646197Y2904684D01*
X24622993Y2910496D01*
X24600471Y2918554D01*
X24578847Y2928782D01*
X24558330Y2941079D01*
X24539117Y2955329D01*
X24521393Y2971393D01*
X24505329Y2989117D01*
X24491079Y3008330D01*
X24478782Y3028847D01*
X24468554Y3050471D01*
X24460496Y3072993D01*
X24454684Y3096197D01*
X24451174Y3119858D01*
X24450000Y3143750D01*
X24450000Y4056250D01*
X24451174Y4080142D01*
X24454684Y4103803D01*
X24460496Y4127007D01*
X24468554Y4149529D01*
X24478782Y4171153D01*
X24491079Y4191670D01*
X24505329Y4210883D01*
X24521393Y4228607D01*
X24539117Y4244671D01*
X24558330Y4258921D01*
X24578847Y4271218D01*
X24600471Y4281446D01*
X24622993Y4289504D01*
X24646197Y4295316D01*
X24669858Y4298826D01*
X24693750Y4300000D01*
X25181250Y4300000D01*
X25205142Y4298826D01*
X25205142Y4298826D01*
G37*
D11*
X24937500Y3600000D03*
D10*
G36*
X23330142Y4298826D02*
G01*
X23353803Y4295316D01*
X23377007Y4289504D01*
X23399529Y4281446D01*
X23421153Y4271218D01*
X23441670Y4258921D01*
X23460883Y4244671D01*
X23478607Y4228607D01*
X23494671Y4210883D01*
X23508921Y4191670D01*
X23521218Y4171153D01*
X23531446Y4149529D01*
X23539504Y4127007D01*
X23545316Y4103803D01*
X23548826Y4080142D01*
X23550000Y4056250D01*
X23550000Y3143750D01*
X23548826Y3119858D01*
X23545316Y3096197D01*
X23539504Y3072993D01*
X23531446Y3050471D01*
X23521218Y3028847D01*
X23508921Y3008330D01*
X23494671Y2989117D01*
X23478607Y2971393D01*
X23460883Y2955329D01*
X23441670Y2941079D01*
X23421153Y2928782D01*
X23399529Y2918554D01*
X23377007Y2910496D01*
X23353803Y2904684D01*
X23330142Y2901174D01*
X23306250Y2900000D01*
X22818750Y2900000D01*
X22794858Y2901174D01*
X22771197Y2904684D01*
X22747993Y2910496D01*
X22725471Y2918554D01*
X22703847Y2928782D01*
X22683330Y2941079D01*
X22664117Y2955329D01*
X22646393Y2971393D01*
X22630329Y2989117D01*
X22616079Y3008330D01*
X22603782Y3028847D01*
X22593554Y3050471D01*
X22585496Y3072993D01*
X22579684Y3096197D01*
X22576174Y3119858D01*
X22575000Y3143750D01*
X22575000Y4056250D01*
X22576174Y4080142D01*
X22579684Y4103803D01*
X22585496Y4127007D01*
X22593554Y4149529D01*
X22603782Y4171153D01*
X22616079Y4191670D01*
X22630329Y4210883D01*
X22646393Y4228607D01*
X22664117Y4244671D01*
X22683330Y4258921D01*
X22703847Y4271218D01*
X22725471Y4281446D01*
X22747993Y4289504D01*
X22771197Y4295316D01*
X22794858Y4298826D01*
X22818750Y4300000D01*
X23306250Y4300000D01*
X23330142Y4298826D01*
X23330142Y4298826D01*
G37*
D11*
X23062500Y3600000D03*
D10*
G36*
X23330142Y6398826D02*
G01*
X23353803Y6395316D01*
X23377007Y6389504D01*
X23399529Y6381446D01*
X23421153Y6371218D01*
X23441670Y6358921D01*
X23460883Y6344671D01*
X23478607Y6328607D01*
X23494671Y6310883D01*
X23508921Y6291670D01*
X23521218Y6271153D01*
X23531446Y6249529D01*
X23539504Y6227007D01*
X23545316Y6203803D01*
X23548826Y6180142D01*
X23550000Y6156250D01*
X23550000Y5243750D01*
X23548826Y5219858D01*
X23545316Y5196197D01*
X23539504Y5172993D01*
X23531446Y5150471D01*
X23521218Y5128847D01*
X23508921Y5108330D01*
X23494671Y5089117D01*
X23478607Y5071393D01*
X23460883Y5055329D01*
X23441670Y5041079D01*
X23421153Y5028782D01*
X23399529Y5018554D01*
X23377007Y5010496D01*
X23353803Y5004684D01*
X23330142Y5001174D01*
X23306250Y5000000D01*
X22818750Y5000000D01*
X22794858Y5001174D01*
X22771197Y5004684D01*
X22747993Y5010496D01*
X22725471Y5018554D01*
X22703847Y5028782D01*
X22683330Y5041079D01*
X22664117Y5055329D01*
X22646393Y5071393D01*
X22630329Y5089117D01*
X22616079Y5108330D01*
X22603782Y5128847D01*
X22593554Y5150471D01*
X22585496Y5172993D01*
X22579684Y5196197D01*
X22576174Y5219858D01*
X22575000Y5243750D01*
X22575000Y6156250D01*
X22576174Y6180142D01*
X22579684Y6203803D01*
X22585496Y6227007D01*
X22593554Y6249529D01*
X22603782Y6271153D01*
X22616079Y6291670D01*
X22630329Y6310883D01*
X22646393Y6328607D01*
X22664117Y6344671D01*
X22683330Y6358921D01*
X22703847Y6371218D01*
X22725471Y6381446D01*
X22747993Y6389504D01*
X22771197Y6395316D01*
X22794858Y6398826D01*
X22818750Y6400000D01*
X23306250Y6400000D01*
X23330142Y6398826D01*
X23330142Y6398826D01*
G37*
D11*
X23062500Y5700000D03*
D10*
G36*
X25205142Y6398826D02*
G01*
X25228803Y6395316D01*
X25252007Y6389504D01*
X25274529Y6381446D01*
X25296153Y6371218D01*
X25316670Y6358921D01*
X25335883Y6344671D01*
X25353607Y6328607D01*
X25369671Y6310883D01*
X25383921Y6291670D01*
X25396218Y6271153D01*
X25406446Y6249529D01*
X25414504Y6227007D01*
X25420316Y6203803D01*
X25423826Y6180142D01*
X25425000Y6156250D01*
X25425000Y5243750D01*
X25423826Y5219858D01*
X25420316Y5196197D01*
X25414504Y5172993D01*
X25406446Y5150471D01*
X25396218Y5128847D01*
X25383921Y5108330D01*
X25369671Y5089117D01*
X25353607Y5071393D01*
X25335883Y5055329D01*
X25316670Y5041079D01*
X25296153Y5028782D01*
X25274529Y5018554D01*
X25252007Y5010496D01*
X25228803Y5004684D01*
X25205142Y5001174D01*
X25181250Y5000000D01*
X24693750Y5000000D01*
X24669858Y5001174D01*
X24646197Y5004684D01*
X24622993Y5010496D01*
X24600471Y5018554D01*
X24578847Y5028782D01*
X24558330Y5041079D01*
X24539117Y5055329D01*
X24521393Y5071393D01*
X24505329Y5089117D01*
X24491079Y5108330D01*
X24478782Y5128847D01*
X24468554Y5150471D01*
X24460496Y5172993D01*
X24454684Y5196197D01*
X24451174Y5219858D01*
X24450000Y5243750D01*
X24450000Y6156250D01*
X24451174Y6180142D01*
X24454684Y6203803D01*
X24460496Y6227007D01*
X24468554Y6249529D01*
X24478782Y6271153D01*
X24491079Y6291670D01*
X24505329Y6310883D01*
X24521393Y6328607D01*
X24539117Y6344671D01*
X24558330Y6358921D01*
X24578847Y6371218D01*
X24600471Y6381446D01*
X24622993Y6389504D01*
X24646197Y6395316D01*
X24669858Y6398826D01*
X24693750Y6400000D01*
X25181250Y6400000D01*
X25205142Y6398826D01*
X25205142Y6398826D01*
G37*
D11*
X24937500Y5700000D03*
D10*
G36*
X68405142Y15498826D02*
G01*
X68428803Y15495316D01*
X68452007Y15489504D01*
X68474529Y15481446D01*
X68496153Y15471218D01*
X68516670Y15458921D01*
X68535883Y15444671D01*
X68553607Y15428607D01*
X68569671Y15410883D01*
X68583921Y15391670D01*
X68596218Y15371153D01*
X68606446Y15349529D01*
X68614504Y15327007D01*
X68620316Y15303803D01*
X68623826Y15280142D01*
X68625000Y15256250D01*
X68625000Y14343750D01*
X68623826Y14319858D01*
X68620316Y14296197D01*
X68614504Y14272993D01*
X68606446Y14250471D01*
X68596218Y14228847D01*
X68583921Y14208330D01*
X68569671Y14189117D01*
X68553607Y14171393D01*
X68535883Y14155329D01*
X68516670Y14141079D01*
X68496153Y14128782D01*
X68474529Y14118554D01*
X68452007Y14110496D01*
X68428803Y14104684D01*
X68405142Y14101174D01*
X68381250Y14100000D01*
X67893750Y14100000D01*
X67869858Y14101174D01*
X67846197Y14104684D01*
X67822993Y14110496D01*
X67800471Y14118554D01*
X67778847Y14128782D01*
X67758330Y14141079D01*
X67739117Y14155329D01*
X67721393Y14171393D01*
X67705329Y14189117D01*
X67691079Y14208330D01*
X67678782Y14228847D01*
X67668554Y14250471D01*
X67660496Y14272993D01*
X67654684Y14296197D01*
X67651174Y14319858D01*
X67650000Y14343750D01*
X67650000Y15256250D01*
X67651174Y15280142D01*
X67654684Y15303803D01*
X67660496Y15327007D01*
X67668554Y15349529D01*
X67678782Y15371153D01*
X67691079Y15391670D01*
X67705329Y15410883D01*
X67721393Y15428607D01*
X67739117Y15444671D01*
X67758330Y15458921D01*
X67778847Y15471218D01*
X67800471Y15481446D01*
X67822993Y15489504D01*
X67846197Y15495316D01*
X67869858Y15498826D01*
X67893750Y15500000D01*
X68381250Y15500000D01*
X68405142Y15498826D01*
X68405142Y15498826D01*
G37*
D11*
X68137500Y14800000D03*
D10*
G36*
X66530142Y15498826D02*
G01*
X66553803Y15495316D01*
X66577007Y15489504D01*
X66599529Y15481446D01*
X66621153Y15471218D01*
X66641670Y15458921D01*
X66660883Y15444671D01*
X66678607Y15428607D01*
X66694671Y15410883D01*
X66708921Y15391670D01*
X66721218Y15371153D01*
X66731446Y15349529D01*
X66739504Y15327007D01*
X66745316Y15303803D01*
X66748826Y15280142D01*
X66750000Y15256250D01*
X66750000Y14343750D01*
X66748826Y14319858D01*
X66745316Y14296197D01*
X66739504Y14272993D01*
X66731446Y14250471D01*
X66721218Y14228847D01*
X66708921Y14208330D01*
X66694671Y14189117D01*
X66678607Y14171393D01*
X66660883Y14155329D01*
X66641670Y14141079D01*
X66621153Y14128782D01*
X66599529Y14118554D01*
X66577007Y14110496D01*
X66553803Y14104684D01*
X66530142Y14101174D01*
X66506250Y14100000D01*
X66018750Y14100000D01*
X65994858Y14101174D01*
X65971197Y14104684D01*
X65947993Y14110496D01*
X65925471Y14118554D01*
X65903847Y14128782D01*
X65883330Y14141079D01*
X65864117Y14155329D01*
X65846393Y14171393D01*
X65830329Y14189117D01*
X65816079Y14208330D01*
X65803782Y14228847D01*
X65793554Y14250471D01*
X65785496Y14272993D01*
X65779684Y14296197D01*
X65776174Y14319858D01*
X65775000Y14343750D01*
X65775000Y15256250D01*
X65776174Y15280142D01*
X65779684Y15303803D01*
X65785496Y15327007D01*
X65793554Y15349529D01*
X65803782Y15371153D01*
X65816079Y15391670D01*
X65830329Y15410883D01*
X65846393Y15428607D01*
X65864117Y15444671D01*
X65883330Y15458921D01*
X65903847Y15471218D01*
X65925471Y15481446D01*
X65947993Y15489504D01*
X65971197Y15495316D01*
X65994858Y15498826D01*
X66018750Y15500000D01*
X66506250Y15500000D01*
X66530142Y15498826D01*
X66530142Y15498826D01*
G37*
D11*
X66262500Y14800000D03*
D10*
G36*
X35230142Y6898826D02*
G01*
X35253803Y6895316D01*
X35277007Y6889504D01*
X35299529Y6881446D01*
X35321153Y6871218D01*
X35341670Y6858921D01*
X35360883Y6844671D01*
X35378607Y6828607D01*
X35394671Y6810883D01*
X35408921Y6791670D01*
X35421218Y6771153D01*
X35431446Y6749529D01*
X35439504Y6727007D01*
X35445316Y6703803D01*
X35448826Y6680142D01*
X35450000Y6656250D01*
X35450000Y5743750D01*
X35448826Y5719858D01*
X35445316Y5696197D01*
X35439504Y5672993D01*
X35431446Y5650471D01*
X35421218Y5628847D01*
X35408921Y5608330D01*
X35394671Y5589117D01*
X35378607Y5571393D01*
X35360883Y5555329D01*
X35341670Y5541079D01*
X35321153Y5528782D01*
X35299529Y5518554D01*
X35277007Y5510496D01*
X35253803Y5504684D01*
X35230142Y5501174D01*
X35206250Y5500000D01*
X34718750Y5500000D01*
X34694858Y5501174D01*
X34671197Y5504684D01*
X34647993Y5510496D01*
X34625471Y5518554D01*
X34603847Y5528782D01*
X34583330Y5541079D01*
X34564117Y5555329D01*
X34546393Y5571393D01*
X34530329Y5589117D01*
X34516079Y5608330D01*
X34503782Y5628847D01*
X34493554Y5650471D01*
X34485496Y5672993D01*
X34479684Y5696197D01*
X34476174Y5719858D01*
X34475000Y5743750D01*
X34475000Y6656250D01*
X34476174Y6680142D01*
X34479684Y6703803D01*
X34485496Y6727007D01*
X34493554Y6749529D01*
X34503782Y6771153D01*
X34516079Y6791670D01*
X34530329Y6810883D01*
X34546393Y6828607D01*
X34564117Y6844671D01*
X34583330Y6858921D01*
X34603847Y6871218D01*
X34625471Y6881446D01*
X34647993Y6889504D01*
X34671197Y6895316D01*
X34694858Y6898826D01*
X34718750Y6900000D01*
X35206250Y6900000D01*
X35230142Y6898826D01*
X35230142Y6898826D01*
G37*
D11*
X34962500Y6200000D03*
D10*
G36*
X37105142Y6898826D02*
G01*
X37128803Y6895316D01*
X37152007Y6889504D01*
X37174529Y6881446D01*
X37196153Y6871218D01*
X37216670Y6858921D01*
X37235883Y6844671D01*
X37253607Y6828607D01*
X37269671Y6810883D01*
X37283921Y6791670D01*
X37296218Y6771153D01*
X37306446Y6749529D01*
X37314504Y6727007D01*
X37320316Y6703803D01*
X37323826Y6680142D01*
X37325000Y6656250D01*
X37325000Y5743750D01*
X37323826Y5719858D01*
X37320316Y5696197D01*
X37314504Y5672993D01*
X37306446Y5650471D01*
X37296218Y5628847D01*
X37283921Y5608330D01*
X37269671Y5589117D01*
X37253607Y5571393D01*
X37235883Y5555329D01*
X37216670Y5541079D01*
X37196153Y5528782D01*
X37174529Y5518554D01*
X37152007Y5510496D01*
X37128803Y5504684D01*
X37105142Y5501174D01*
X37081250Y5500000D01*
X36593750Y5500000D01*
X36569858Y5501174D01*
X36546197Y5504684D01*
X36522993Y5510496D01*
X36500471Y5518554D01*
X36478847Y5528782D01*
X36458330Y5541079D01*
X36439117Y5555329D01*
X36421393Y5571393D01*
X36405329Y5589117D01*
X36391079Y5608330D01*
X36378782Y5628847D01*
X36368554Y5650471D01*
X36360496Y5672993D01*
X36354684Y5696197D01*
X36351174Y5719858D01*
X36350000Y5743750D01*
X36350000Y6656250D01*
X36351174Y6680142D01*
X36354684Y6703803D01*
X36360496Y6727007D01*
X36368554Y6749529D01*
X36378782Y6771153D01*
X36391079Y6791670D01*
X36405329Y6810883D01*
X36421393Y6828607D01*
X36439117Y6844671D01*
X36458330Y6858921D01*
X36478847Y6871218D01*
X36500471Y6881446D01*
X36522993Y6889504D01*
X36546197Y6895316D01*
X36569858Y6898826D01*
X36593750Y6900000D01*
X37081250Y6900000D01*
X37105142Y6898826D01*
X37105142Y6898826D01*
G37*
D11*
X36837500Y6200000D03*
M02*
